{
.appVersion = "1075";
classes = (
{
code = "Euro bar cent colon comma degree divide dollar eight equal five four greater less minus multiply nine numbersign one paragraph percent period periodcentered plus plusminus quotedbl quotesingle section semicolon seven six slash sterling three two underscore yen zero";
name = tnum1;
},
{
code = "Euro.tnum bar.tnum cent.tnum colon.tnum comma.tnum degree.tnum divide.tnum dollar.tnum eight.tnum equal.tnum five.tnum four.tnum greater.tnum less.tnum minus.tnum multiply.tnum nine.tnum numbersign.tnum one.tnum paragraph.tnum percent.tnum period.tnum periodcentered.tnum plus.tnum plusminus.tnum quotedbl.tnum quotesingle.tnum section.tnum semicolon.tnum seven.tnum six.tnum slash.tnum sterling.tnum three.tnum two.tnum underscore.tnum yen.tnum zero.tnum";
name = tnum2;
}
);
copyright = "Copyright 2012 The Libre Caslon Text Project Authors (https://github.com/impallari/Libre-Caslon-Text)";
customParameters = (
{
name = licenseURL;
value = "http://scripts.sil.org/OFL";
},
{
name = description;
value = "Libre Caslon in Text is optimized for web body text";
},
{
name = trademark;
value = "Libre Caslon is a trademark of Pablo Impallari";
},
{
name = license;
value = "This Font Software is licensed under the SIL Open Font License, Version 1.1. This license is available with a FAQ at: http://scripts.sil.org/OFL";
},
{
name = openTypeOS2VendorID;
value = IMPA;
},
{
name = fsType;
value = (
);
},
{
name = "Use Typo Metrics";
value = 1;
},
{
name = "Disable Last Change";
value = 1;
},
{
name = "Use Line Breaks";
value = 1;
}
);
date = "2013-03-13 08:26:45 +0000";
designer = "Pablo Impallari, Rodrigo Fuenzalida";
designerURL = "http://www.impallari.com";
disablesAutomaticAlignment = 1;
familyName = "Libre Caslon Text";
features = (
{
code = "sub f f i by f_f_i;
	sub f f l by f_f_l;
	sub f f b by f_f_b;
	sub f f h by f_f_h;
	sub f f j by f_f_j;
	sub f f k by f_f_k;
	sub f f t by f_f_t;		
	sub f f by f_f;
	sub f i by f_i;
	sub f l by f_l;

glyphs = (
{
glyphname = A;
layers = (
{
anchors = (
{
name = bottom;
position = "{598, 0}";
},
{
name = topcap;
position = "{365, 830}";
}
);
background = {
paths = (
{
closed = 1;
nodes = (
"289 736 LINE",
"315 677 LINE",
"121 134 LINE SMOOTH",
"96 64 OFFCURVE",
"82 39 OFFCURVE",
"-24 23 CURVE",
"-24 0 LINE",
"257 0 LINE",
"257 23 LINE",
"184 34 OFFCURVE",
"154 51 OFFCURVE",
"154 86 CURVE SMOOTH",
"154 99 OFFCURVE",
"158 114 OFFCURVE",
"165 132 CURVE SMOOTH",
"339 614 LINE",
"527 100 LINE SMOOTH",
"536 74 OFFCURVE",
"538 66 OFFCURVE",
"538 55 CURVE SMOOTH",
"538 33 OFFCURVE",
"520 27 OFFCURVE",
"435 23 CURVE",
"435 0 LINE",
"753 0 LINE",
"753 23 LINE",
"683 28 OFFCURVE",
"668 38 OFFCURVE",
"651 84 CURVE SMOOTH",
"387 790 LINE"
);
},
{
closed = 1;
nodes = (
"206 283 LINE",
"476 283 LINE",
"476 323 LINE",
"206 323 LINE"
);
}
);
};
layerId = UUID0;
paths = (
{
closed = 1;
nodes = (
"341 614 LINE",
"527 100 LINE SMOOTH",
"536 76 OFFCURVE",
"538 65 OFFCURVE",
"538 56 CURVE SMOOTH",
"538 35 OFFCURVE",
"527 27 OFFCURVE",
"435 23 CURVE",
"435 0 LINE",
"753 0 LINE",
"753 23 LINE",
"683 28 OFFCURVE",
"668 38 OFFCURVE",
"651 84 CURVE SMOOTH",
"387 790 LINE",
"289 736 LINE",
"315 677 LINE",
"121 134 LINE SMOOTH",
"96 64 OFFCURVE",
"82 39 OFFCURVE",
"-24 23 CURVE",
"-24 0 LINE",
"257 0 LINE",
"257 23 LINE",
"190 33 OFFCURVE",
"154 49 OFFCURVE",
"154 85 CURVE SMOOTH",
"154 97 OFFCURVE",
"158 112 OFFCURVE",
"165 132 CURVE SMOOTH",
"337 614 LINE"
);
},
{
closed = 1;
nodes = (
"206 283 LINE",
"476 283 LINE",
"476 323 LINE",
"206 323 LINE"
);
}
);
width = 744;
},
{
background = {
paths = (
{
closed = 1;
nodes = (
"262 733 LINE",
"308 630 LINE",
"119 148 LINE SMOOTH",
"87 67 OFFCURVE",
"74 53 OFFCURVE",
"-20 37 CURVE",
"-20 0 LINE",
"290 0 LINE",
"290 37 LINE",
"207 49 OFFCURVE",
"177 65 OFFCURVE",
"177 99 CURVE SMOOTH",
"177 112 OFFCURVE",
"181 127 OFFCURVE",
"188 146 CURVE SMOOTH",
"330 516 LINE",
"334 516 LINE",
"482 114 LINE SMOOTH",
"488 98 OFFCURVE",
"491 84 OFFCURVE",
"491 74 CURVE SMOOTH",
"491 47 OFFCURVE",
"466 39 OFFCURVE",
"393 37 CURVE",
"393 0 LINE",
"805 0 LINE",
"805 37 LINE",
"732 42 OFFCURVE",
"716 52 OFFCURVE",
"697 98 CURVE SMOOTH",
"411 790 LINE"
);
},
{
closed = 1;
nodes = (
"184 222 LINE",
"506 222 LINE",
"506 279 LINE",
"184 279 LINE"
);
}
);
};
layerId = "1CCFBABC-759F-491A-B184-EA51E5B5BC4A";
paths = (
{
closed = 1;
nodes = (
"334 516 LINE",
"482 114 LINE SMOOTH",
"488 98 OFFCURVE",
"491 84 OFFCURVE",
"491 74 CURVE SMOOTH",
"491 47 OFFCURVE",
"466 39 OFFCURVE",
"393 37 CURVE",
"393 0 LINE",
"805 0 LINE",
"805 37 LINE",
"732 42 OFFCURVE",
"716 52 OFFCURVE",
"697 98 CURVE SMOOTH",
"411 790 LINE",
"262 733 LINE",
"308 630 LINE",
"119 148 LINE SMOOTH",
"87 67 OFFCURVE",
"74 53 OFFCURVE",
"-20 37 CURVE",
"-20 0 LINE",
"290 0 LINE",
"290 37 LINE",
"207 49 OFFCURVE",
"177 65 OFFCURVE",
"177 99 CURVE SMOOTH",
"177 112 OFFCURVE",
"181 127 OFFCURVE",
"188 146 CURVE SMOOTH",
"330 516 LINE"
);
},
{
closed = 1;
nodes = (
"184 222 LINE",
"506 222 LINE",
"506 279 LINE",
"184 279 LINE"
);
}
);
width = 781;
}
);
leftKerningGroup = A;
rightKerningGroup = A;
unicode = 0041;
},
{
glyphname = Aringacute;
layers = (
{
background = {
paths = (
{
closed = 1;
nodes = (
"378 953 LINE",
"393 964 OFFCURVE",
"406 969 OFFCURVE",
"422 969 CURVE SMOOTH",
"442 969 OFFCURVE",
"466 958 OFFCURVE",
"466 934 CURVE SMOOTH",
"466 912 OFFCURVE",
"455 892 OFFCURVE",
"397 879 CURVE"
);
},
{
closed = 1;
nodes = (
"245 825 LINE",
"234 846 LINE",
"288 886 LINE",
"316 846 LINE"
);
},
{
closed = 1;
nodes = (
"302 830 OFFCURVE",
"274 860 OFFCURVE",
"274 900 CURVE SMOOTH",
"274 940 OFFCURVE",
"304 970 OFFCURVE",
"344 970 CURVE SMOOTH",
"384 970 OFFCURVE",
"414 940 OFFCURVE",
"414 900 CURVE SMOOTH",
"414 860 OFFCURVE",
"384 830 OFFCURVE",
"344 830 CURVE SMOOTH"
);
},
{
closed = 1;
nodes = (
"309 879 OFFCURVE",
"323 865 OFFCURVE",
"344 865 CURVE SMOOTH",
"365 865 OFFCURVE",
"379 879 OFFCURVE",
"379 900 CURVE SMOOTH",
"379 921 OFFCURVE",
"365 935 OFFCURVE",
"344 935 CURVE SMOOTH",
"323 935 OFFCURVE",
"309 921 OFFCURVE",
"309 900 CURVE SMOOTH"
);
}
);
};
components = (
{
name = A;
}
);
layerId = UUID0;
paths = (
{
closed = 1;
nodes = (
"245 825 LINE",
"302 842 LINE",
"313 834 OFFCURVE",
"328 830 OFFCURVE",
"344 830 CURVE SMOOTH",
"378 830 OFFCURVE",
"404 851 OFFCURVE",
"412 882 CURVE",
"457 895 OFFCURVE",
"466 914 OFFCURVE",
"466 934 CURVE SMOOTH",
"466 958 OFFCURVE",
"442 969 OFFCURVE",
"422 969 CURVE SMOOTH",
"408 969 OFFCURVE",
"397 965 OFFCURVE",
"385 958 CURVE",
"373 966 OFFCURVE",
"359 970 OFFCURVE",
"344 970 CURVE SMOOTH",
"304 970 OFFCURVE",
"274 940 OFFCURVE",
"274 900 CURVE SMOOTH",
"274 892 OFFCURVE",
"275 885 OFFCURVE",
"277 878 CURVE",
"234 846 LINE"
);
},
{
closed = 1;
nodes = (
"323 865 OFFCURVE",
"309 879 OFFCURVE",
"309 900 CURVE SMOOTH",
"309 921 OFFCURVE",
"323 935 OFFCURVE",
"344 935 CURVE SMOOTH",
"365 935 OFFCURVE",
"379 921 OFFCURVE",
"379 900 CURVE SMOOTH",
"379 879 OFFCURVE",
"365 865 OFFCURVE",
"344 865 CURVE SMOOTH"
);
}
);
width = 744;
},
{
background = {
paths = (
{
closed = 1;
nodes = (
"372 953 LINE",
"387 964 OFFCURVE",
"400 969 OFFCURVE",
"416 969 CURVE SMOOTH",
"436 969 OFFCURVE",
"460 958 OFFCURVE",
"460 934 CURVE SMOOTH",
"460 912 OFFCURVE",
"449 892 OFFCURVE",
"391 879 CURVE"
);
},
{
closed = 1;
nodes = (
"239 825 LINE",
"228 846 LINE",
"282 886 LINE",
"310 846 LINE"
);
},
{
closed = 1;
nodes = (
"296 830 OFFCURVE",
"268 860 OFFCURVE",
"268 900 CURVE SMOOTH",
"268 940 OFFCURVE",
"298 970 OFFCURVE",
"338 970 CURVE SMOOTH",
"378 970 OFFCURVE",
"408 940 OFFCURVE",
"408 900 CURVE SMOOTH",
"408 860 OFFCURVE",
"378 830 OFFCURVE",
"338 830 CURVE SMOOTH"
);
},
{
closed = 1;
nodes = (
"318 888 OFFCURVE",
"326 880 OFFCURVE",
"338 880 CURVE SMOOTH",
"350 880 OFFCURVE",
"358 888 OFFCURVE",
"358 900 CURVE SMOOTH",
"358 912 OFFCURVE",
"350 920 OFFCURVE",
"338 920 CURVE SMOOTH",
"326 920 OFFCURVE",
"318 912 OFFCURVE",
"318 900 CURVE SMOOTH"
);
}
);
};
components = (
{
name = A;
}
);
layerId = "1CCFBABC-759F-491A-B184-EA51E5B5BC4A";
paths = (
{
closed = 1;
nodes = (
"239 825 LINE",
"296 842 LINE",
"307 834 OFFCURVE",
"322 830 OFFCURVE",
"338 830 CURVE SMOOTH",
"372 830 OFFCURVE",
"398 851 OFFCURVE",
"406 882 CURVE",
"451 895 OFFCURVE",
"460 914 OFFCURVE",
"460 934 CURVE SMOOTH",
"460 958 OFFCURVE",
"436 969 OFFCURVE",
"416 969 CURVE SMOOTH",
"402 969 OFFCURVE",
"391 965 OFFCURVE",
"379 958 CURVE",
"367 966 OFFCURVE",
"353 970 OFFCURVE",
"338 970 CURVE SMOOTH",
"298 970 OFFCURVE",
"268 940 OFFCURVE",
"268 900 CURVE SMOOTH",
"268 892 OFFCURVE",
"269 885 OFFCURVE",
"271 878 CURVE",
"228 846 LINE"
);
},
{
closed = 1;
nodes = (
"326 880 OFFCURVE",
"318 888 OFFCURVE",
"318 900 CURVE SMOOTH",
"318 912 OFFCURVE",
"326 920 OFFCURVE",
"338 920 CURVE SMOOTH",
"350 920 OFFCURVE",
"358 912 OFFCURVE",
"358 900 CURVE SMOOTH",
"358 888 OFFCURVE",
"350 880 OFFCURVE",
"338 880 CURVE SMOOTH"
);
}
);
width = 781;
}
);
leftKerningGroup = A;
rightKerningGroup = A;
unicode = 01FA;
},
{
glyphname = AE;
layers = (
{
background = {
paths = (
{
closed = 1;
nodes = (
"863 730 LINE",
"896 673 OFFCURVE",
"919 607 OFFCURVE",
"935 550 CURVE",
"959 550 LINE",
"942 770 LINE",
"376 770 LINE",
"376 747 LINE",
"461 730 LINE",
"147 134 LINE SMOOTH",
"109 62 OFFCURVE",
"86 39 OFFCURVE",
"-22 23 CURVE",
"-22 0 LINE",
"258 0 LINE",
"258 23 LINE",
"196 33 OFFCURVE",
"169 44 OFFCURVE",
"169 72 CURVE SMOOTH",
"169 87 OFFCURVE",
"176 106 OFFCURVE",
"190 132 CURVE SMOOTH",
"273 292 LINE",
"471 292 LINE",
"471 42 LINE",
"386 23 LINE",
"386 0 LINE",
"938 0 LINE",
"975 234 LINE",
"942 234 LINE",
"920 169 OFFCURVE",
"898 105 OFFCURVE",
"858 40 CURVE",
"576 40 LINE",
"576 367 LINE",
"755 367 LINE",
"774 327 OFFCURVE",
"786 287 OFFCURVE",
"792 247 CURVE",
"816 247 LINE",
"816 527 LINE",
"792 527 LINE",
"785 487 OFFCURVE",
"774 447 OFFCURVE",
"755 407 CURVE",
"576 407 LINE",
"576 730 LINE"
);
},
{
closed = 1;
nodes = (
"470 667 LINE",
"470 332 LINE",
"294 332 LINE"
);
}
);
};
layerId = UUID0;
paths = (
{
closed = 1;
nodes = (
"-22 0 LINE",
"258 0 LINE",
"258 23 LINE",
"196 33 OFFCURVE",
"169 44 OFFCURVE",
"169 72 CURVE SMOOTH",
"169 87 OFFCURVE",
"176 106 OFFCURVE",
"190 132 CURVE SMOOTH",
"273 292 LINE",
"471 292 LINE",
"471 42 LINE",
"386 23 LINE",
"386 0 LINE",
"938 0 LINE",
"975 234 LINE",
"942 234 LINE",
"920 169 OFFCURVE",
"898 105 OFFCURVE",
"858 40 CURVE",
"576 40 LINE",
"576 367 LINE",
"755 367 LINE",
"774 327 OFFCURVE",
"786 287 OFFCURVE",
"792 247 CURVE",
"816 247 LINE",
"816 527 LINE",
"792 527 LINE",
"785 487 OFFCURVE",
"774 447 OFFCURVE",
"755 407 CURVE",
"576 407 LINE",
"576 730 LINE",
"863 730 LINE",
"896 673 OFFCURVE",
"919 607 OFFCURVE",
"935 550 CURVE",
"959 550 LINE",
"942 770 LINE",
"376 770 LINE",
"376 747 LINE",
"461 730 LINE",
"147 134 LINE SMOOTH",
"109 62 OFFCURVE",
"86 39 OFFCURVE",
"-22 23 CURVE"
);
},
{
closed = 1;
nodes = (
"294 332 LINE",
"466 667 LINE",
"470 667 LINE",
"470 332 LINE"
);
}
);
width = 1029;
},
{
background = {
paths = (
{
closed = 1;
nodes = (
"916 713 LINE",
"950 661 OFFCURVE",
"977 603 OFFCURVE",
"993 550 CURVE",
"1035 550 LINE",
"1016 770 LINE",
"384 770 LINE",
"384 743 LINE",
"446 725 LINE",
"142 148 LINE SMOOTH",
"102 72 OFFCURVE",
"75 52 OFFCURVE",
"-27 37 CURVE",
"-27 0 LINE",
"271 0 LINE",
"272 37 LINE",
"218 45 OFFCURVE",
"195 60 OFFCURVE",
"195 88 CURVE SMOOTH",
"195 103 OFFCURVE",
"203 122 OFFCURVE",
"215 146 CURVE SMOOTH",
"288 288 LINE",
"489 288 LINE",
"489 56 LINE",
"404 37 LINE",
"404 0 LINE",
"1011 0 LINE",
"1053 234 LINE",
"1001 234 LINE",
"978 169 OFFCURVE",
"953 116 OFFCURVE",
"910 57 CURVE",
"661 57 LINE",
"661 380 LINE",
"787 380 LINE",
"809 343 OFFCURVE",
"823 307 OFFCURVE",
"830 267 CURVE",
"872 267 LINE",
"872 547 LINE",
"830 547 LINE",
"823 507 OFFCURVE",
"809 471 OFFCURVE",
"787 434 CURVE",
"661 434 LINE",
"661 713 LINE"
);
},
{
closed = 1;
nodes = (
"485 667 LINE",
"489 667 LINE",
"489 342 LINE",
"316 342 LINE"
);
}
);
};
layerId = "1CCFBABC-759F-491A-B184-EA51E5B5BC4A";
paths = (
{
closed = 1;
nodes = (
"-27 0 LINE",
"272 0 LINE",
"272 37 LINE",
"218 45 OFFCURVE",
"195 60 OFFCURVE",
"195 88 CURVE SMOOTH",
"195 103 OFFCURVE",
"203 122 OFFCURVE",
"215 146 CURVE SMOOTH",
"288 288 LINE",
"489 288 LINE",
"489 56 LINE",
"404 37 LINE",
"404 0 LINE",
"1011 0 LINE",
"1053 234 LINE",
"1001 234 LINE",
"978 169 OFFCURVE",
"953 116 OFFCURVE",
"910 57 CURVE",
"661 57 LINE",
"661 380 LINE",
"787 380 LINE",
"809 343 OFFCURVE",
"823 307 OFFCURVE",
"830 267 CURVE",
"872 267 LINE",
"872 547 LINE",
"830 547 LINE",
"823 507 OFFCURVE",
"809 471 OFFCURVE",
"787 434 CURVE",
"661 434 LINE",
"661 713 LINE",
"916 713 LINE",
"950 661 OFFCURVE",
"977 603 OFFCURVE",
"993 550 CURVE",
"1035 550 LINE",
"1016 770 LINE",
"384 770 LINE",
"384 743 LINE",
"446 725 LINE",
"142 148 LINE SMOOTH",
"102 72 OFFCURVE",
"75 52 OFFCURVE",
"-27 37 CURVE"
);
},
{
closed = 1;
nodes = (
"316 342 LINE",
"485 667 LINE",
"489 667 LINE",
"489 342 LINE"
);
}
);
width = 1093;
}
);
leftKerningGroup = AE;
rightKerningGroup = E;
unicode = 00C6;
},
{
glyphname = B;
layers = (
{
background = {
paths = (
{
closed = 1;
nodes = (
"49 770 LINE",
"49 747 LINE",
"134 728 LINE",
"134 42 LINE",
"49 23 LINE",
"49 0 LINE",
"362 0 LINE SMOOTH",
"471 0 OFFCURVE",
"532 15 OFFCURVE",
"578 52 CURVE SMOOTH",
"620 87 OFFCURVE",
"645 143 OFFCURVE",
"645 204 CURVE SMOOTH",
"645 313 OFFCURVE",
"566 395 OFFCURVE",
"446 408 CURVE",
"446 412 LINE",
"552 434 OFFCURVE",
"611 496 OFFCURVE",
"611 583 CURVE SMOOTH",
"611 642 OFFCURVE",
"583 696 OFFCURVE",
"536 729 CURVE SMOOTH",
"495 757 OFFCURVE",
"437 770 OFFCURVE",
"345 770 CURVE SMOOTH"
);
},
{
closed = 1;
nodes = (
"239 730 LINE",
"325 730 LINE SMOOTH",
"398 730 OFFCURVE",
"433 720 OFFCURVE",
"462 690 CURVE SMOOTH",
"488 663 OFFCURVE",
"499 633 OFFCURVE",
"499 586 CURVE SMOOTH",
"499 495 OFFCURVE",
"458 440 OFFCURVE",
"385 432 CURVE SMOOTH",
"363 430 OFFCURVE",
"340 429 OFFCURVE",
"301 429 CURVE SMOOTH",
"239 429 LINE"
);
},
{
closed = 1;
nodes = (
"324 389 LINE",
"464 389 OFFCURVE",
"529 333 OFFCURVE",
"529 213 CURVE SMOOTH",
"529 93 OFFCURVE",
"465 38 OFFCURVE",
"327 38 CURVE SMOOTH",
"259 38 OFFCURVE",
"239 51 OFFCURVE",
"239 98 CURVE SMOOTH",
"239 389 LINE"
);
}
);
};
layerId = UUID0;
paths = (
{
closed = 1;
nodes = (
"49 770 LINE",
"49 747 LINE",
"134 728 LINE",
"134 42 LINE",
"49 23 LINE",
"49 0 LINE",
"362 0 LINE SMOOTH",
"471 0 OFFCURVE",
"532 15 OFFCURVE",
"578 52 CURVE SMOOTH",
"620 87 OFFCURVE",
"645 143 OFFCURVE",
"645 204 CURVE SMOOTH",
"645 313 OFFCURVE",
"566 395 OFFCURVE",
"446 408 CURVE",
"446 412 LINE",
"552 434 OFFCURVE",
"611 496 OFFCURVE",
"611 583 CURVE SMOOTH",
"611 642 OFFCURVE",
"583 696 OFFCURVE",
"536 729 CURVE SMOOTH",
"495 757 OFFCURVE",
"437 770 OFFCURVE",
"345 770 CURVE SMOOTH"
);
},
{
closed = 1;
nodes = (
"239 730 LINE",
"325 730 LINE SMOOTH",
"398 730 OFFCURVE",
"433 720 OFFCURVE",
"462 690 CURVE SMOOTH",
"488 663 OFFCURVE",
"499 633 OFFCURVE",
"499 586 CURVE SMOOTH",
"499 495 OFFCURVE",
"458 440 OFFCURVE",
"385 432 CURVE SMOOTH",
"363 430 OFFCURVE",
"340 429 OFFCURVE",
"301 429 CURVE SMOOTH",
"239 429 LINE"
);
},
{
closed = 1;
nodes = (
"324 389 LINE",
"464 389 OFFCURVE",
"529 333 OFFCURVE",
"529 213 CURVE SMOOTH",
"529 93 OFFCURVE",
"465 38 OFFCURVE",
"327 38 CURVE SMOOTH",
"259 38 OFFCURVE",
"239 51 OFFCURVE",
"239 98 CURVE SMOOTH",
"239 389 LINE"
);
}
);
width = 699;
},
{
background = {
paths = (
{
closed = 1;
nodes = (
"42 770 LINE",
"42 733 LINE",
"127 712 LINE",
"127 59 LINE",
"42 37 LINE",
"42 0 LINE",
"397 0 LINE SMOOTH",
"517 0 OFFCURVE",
"584 15 OFFCURVE",
"635 52 CURVE SMOOTH",
"681 87 OFFCURVE",
"709 143 OFFCURVE",
"709 204 CURVE SMOOTH",
"709 321 OFFCURVE",
"620 405 OFFCURVE",
"485 418 CURVE",
"485 422 LINE",
"604 443 OFFCURVE",
"671 502 OFFCURVE",
"671 583 CURVE SMOOTH",
"671 642 OFFCURVE",
"641 696 OFFCURVE",
"589 729 CURVE SMOOTH",
"544 757 OFFCURVE",
"480 770 OFFCURVE",
"379 770 CURVE SMOOTH"
);
},
{
closed = 1;
nodes = (
"299 716 LINE",
"317 716 LINE SMOOTH",
"374 716 OFFCURVE",
"417 705 OFFCURVE",
"446 682 CURVE SMOOTH",
"473 660 OFFCURVE",
"488 626 OFFCURVE",
"488 579 CURVE SMOOTH",
"488 497 OFFCURVE",
"443 448 OFFCURVE",
"363 440 CURVE SMOOTH",
"350 438 OFFCURVE",
"334 437 OFFCURVE",
"310 437 CURVE SMOOTH",
"299 437 LINE"
);
},
{
closed = 1;
nodes = (
"336 383 LINE",
"462 383 OFFCURVE",
"521 330 OFFCURVE",
"521 213 CURVE SMOOTH",
"521 103 OFFCURVE",
"475 53 OFFCURVE",
"376 53 CURVE SMOOTH",
"317 53 OFFCURVE",
"299 66 OFFCURVE",
"299 113 CURVE SMOOTH",
"299 383 LINE"
);
}
);
};
layerId = "1CCFBABC-759F-491A-B184-EA51E5B5BC4A";
paths = (
{
closed = 1;
nodes = (
"42 770 LINE",
"42 733 LINE",
"127 712 LINE",
"127 59 LINE",
"42 37 LINE",
"42 0 LINE",
"397 0 LINE SMOOTH",
"517 0 OFFCURVE",
"584 15 OFFCURVE",
"635 52 CURVE SMOOTH",
"681 87 OFFCURVE",
"709 143 OFFCURVE",
"709 204 CURVE SMOOTH",
"709 321 OFFCURVE",
"620 405 OFFCURVE",
"485 418 CURVE",
"485 422 LINE",
"604 443 OFFCURVE",
"671 502 OFFCURVE",
"671 583 CURVE SMOOTH",
"671 642 OFFCURVE",
"641 696 OFFCURVE",
"589 729 CURVE SMOOTH",
"544 757 OFFCURVE",
"480 770 OFFCURVE",
"379 770 CURVE SMOOTH"
);
},
{
closed = 1;
nodes = (
"299 716 LINE",
"317 716 LINE SMOOTH",
"374 716 OFFCURVE",
"417 705 OFFCURVE",
"446 682 CURVE SMOOTH",
"473 660 OFFCURVE",
"488 626 OFFCURVE",
"488 579 CURVE SMOOTH",
"488 497 OFFCURVE",
"443 448 OFFCURVE",
"363 440 CURVE SMOOTH",
"350 438 OFFCURVE",
"334 437 OFFCURVE",
"310 437 CURVE SMOOTH",
"299 437 LINE"
);
},
{
closed = 1;
nodes = (
"336 383 LINE",
"462 383 OFFCURVE",
"521 330 OFFCURVE",
"521 213 CURVE SMOOTH",
"521 103 OFFCURVE",
"475 53 OFFCURVE",
"376 53 CURVE SMOOTH",
"317 53 OFFCURVE",
"299 66 OFFCURVE",
"299 113 CURVE SMOOTH",
"299 383 LINE"
);
}
);
width = 751;
}
);
leftKerningGroup = I;
unicode = 0042;
},
{
glyphname = C;
layers = (
{
anchors = (
{
name = bottom;
position = "{433, 0}";
},
{
name = topcap;
position = "{433, 830}";
}
);
background = {
paths = (
{
closed = 1;
nodes = (
"56 149 OFFCURVE",
"203 -10 OFFCURVE",
"418 -10 CURVE SMOOTH",
"500 -10 OFFCURVE",
"567 13 OFFCURVE",
"638 66 CURVE",
"684 0 LINE",
"708 0 LINE",
"708 262 LINE",
"681 262 LINE",
"671 209 OFFCURVE",
"653 164 OFFCURVE",
"628 129 CURVE SMOOTH",
"585 67 OFFCURVE",
"520 35 OFFCURVE",
"440 35 CURVE SMOOTH",
"276 35 OFFCURVE",
"182 164 OFFCURVE",
"182 387 CURVE SMOOTH",
"182 610 OFFCURVE",
"274 736 OFFCURVE",
"439 736 CURVE SMOOTH",
"528 736 OFFCURVE",
"590 706 OFFCURVE",
"637 630 CURVE SMOOTH",
"652 605 OFFCURVE",
"666 576 OFFCURVE",
"678 540 CURVE",
"708 540 LINE",
"708 770 LINE",
"690 770 LINE",
"641 719 LINE",
"637 719 LINE",
"577 758 OFFCURVE",
"500 780 OFFCURVE",
"422 780 CURVE SMOOTH",
"208 780 OFFCURVE",
"56 614 OFFCURVE",
"56 380 CURVE SMOOTH"
);
}
);
};
layerId = UUID0;
paths = (
{
closed = 1;
nodes = (
"56 149 OFFCURVE",
"203 -10 OFFCURVE",
"418 -10 CURVE SMOOTH",
"500 -10 OFFCURVE",
"567 13 OFFCURVE",
"638 66 CURVE",
"684 0 LINE",
"708 0 LINE",
"708 262 LINE",
"681 262 LINE",
"671 209 OFFCURVE",
"653 164 OFFCURVE",
"628 129 CURVE SMOOTH",
"585 67 OFFCURVE",
"520 35 OFFCURVE",
"440 35 CURVE SMOOTH",
"276 35 OFFCURVE",
"182 164 OFFCURVE",
"182 387 CURVE SMOOTH",
"182 610 OFFCURVE",
"274 736 OFFCURVE",
"439 736 CURVE SMOOTH",
"528 736 OFFCURVE",
"590 706 OFFCURVE",
"637 630 CURVE SMOOTH",
"652 605 OFFCURVE",
"666 576 OFFCURVE",
"678 540 CURVE",
"708 540 LINE",
"708 770 LINE",
"690 770 LINE",
"641 719 LINE",
"637 719 LINE",
"577 758 OFFCURVE",
"500 780 OFFCURVE",
"422 780 CURVE SMOOTH",
"208 780 OFFCURVE",
"56 614 OFFCURVE",
"56 380 CURVE SMOOTH"
);
}
);
width = 774;
},
{
background = {
paths = (
{
closed = 1;
nodes = (
"45 148 OFFCURVE",
"204 -10 OFFCURVE",
"436 -10 CURVE SMOOTH",
"524 -10 OFFCURVE",
"597 13 OFFCURVE",
"675 66 CURVE",
"716 0 LINE",
"753 0 LINE",
"753 277 LINE",
"708 277 LINE",
"699 228 OFFCURVE",
"681 186 OFFCURVE",
"658 152 CURVE SMOOTH",
"613 87 OFFCURVE",
"545 50 OFFCURVE",
"463 50 CURVE SMOOTH",
"314 50 OFFCURVE",
"234 169 OFFCURVE",
"234 390 CURVE SMOOTH",
"234 609 OFFCURVE",
"313 721 OFFCURVE",
"467 721 CURVE SMOOTH",
"551 721 OFFCURVE",
"614 688 OFFCURVE",
"661 616 CURVE SMOOTH",
"678 591 OFFCURVE",
"692 560 OFFCURVE",
"705 525 CURVE",
"753 525 LINE",
"753 770 LINE",
"723 770 LINE",
"679 719 LINE",
"675 719 LINE",
"609 758 OFFCURVE",
"523 780 OFFCURVE",
"439 780 CURVE SMOOTH",
"208 780 OFFCURVE",
"45 614 OFFCURVE",
"45 380 CURVE SMOOTH"
);
}
);
};
layerId = "1CCFBABC-759F-491A-B184-EA51E5B5BC4A";
paths = (
{
closed = 1;
nodes = (
"45 148 OFFCURVE",
"204 -10 OFFCURVE",
"436 -10 CURVE SMOOTH",
"524 -10 OFFCURVE",
"597 13 OFFCURVE",
"675 66 CURVE",
"716 0 LINE",
"753 0 LINE",
"753 277 LINE",
"708 277 LINE",
"699 228 OFFCURVE",
"681 186 OFFCURVE",
"658 152 CURVE SMOOTH",
"613 87 OFFCURVE",
"545 50 OFFCURVE",
"463 50 CURVE SMOOTH",
"314 50 OFFCURVE",
"234 169 OFFCURVE",
"234 390 CURVE SMOOTH",
"234 609 OFFCURVE",
"313 721 OFFCURVE",
"467 721 CURVE SMOOTH",
"551 721 OFFCURVE",
"614 688 OFFCURVE",
"661 616 CURVE SMOOTH",
"678 591 OFFCURVE",
"692 560 OFFCURVE",
"705 525 CURVE",
"753 525 LINE",
"753 770 LINE",
"723 770 LINE",
"679 719 LINE",
"675 719 LINE",
"609 758 OFFCURVE",
"523 780 OFFCURVE",
"439 780 CURVE SMOOTH",
"208 780 OFFCURVE",
"45 614 OFFCURVE",
"45 380 CURVE SMOOTH"
);
}
);
width = 813;
}
);
leftKerningGroup = C;
rightKerningGroup = C;
unicode = 0043;
},
{
glyphname = D;
layers = (
{
anchors = (
{
name = bottom;
position = "{410, 0}";
},
{
name = topcap;
position = "{410, 830}";
}
);
background = {
paths = (
{
closed = 1;
nodes = (
"384 0 LINE",
"484 0 OFFCURVE",
"547 17 OFFCURVE",
"605 59 CURVE SMOOTH",
"698 127 OFFCURVE",
"753 247 OFFCURVE",
"753 383 CURVE SMOOTH",
"753 514 OFFCURVE",
"702 628 OFFCURVE",
"612 697 CURVE SMOOTH",
"542 750 OFFCURVE",
"457 770 OFFCURVE",
"298 770 CURVE SMOOTH",
"49 770 LINE",
"49 747 LINE",
"134 728 LINE",
"134 42 LINE",
"49 23 LINE",
"49 0 LINE"
);
},
{
closed = 1;
nodes = (
"264 38 OFFCURVE",
"239 52 OFFCURVE",
"239 98 CURVE SMOOTH",
"239 730 LINE",
"318 730 LINE SMOOTH",
"430 730 OFFCURVE",
"492 710 OFFCURVE",
"543 657 CURVE SMOOTH",
"599 598 OFFCURVE",
"628 508 OFFCURVE",
"628 395 CURVE SMOOTH",
"628 283 OFFCURVE",
"599 185 OFFCURVE",
"546 119 CURVE SMOOTH",
"498 61 OFFCURVE",
"441 38 OFFCURVE",
"343 38 CURVE SMOOTH"
);
}
);
};
layerId = UUID0;
paths = (
{
closed = 1;
nodes = (
"384 0 LINE",
"484 0 OFFCURVE",
"547 17 OFFCURVE",
"605 59 CURVE SMOOTH",
"698 127 OFFCURVE",
"753 247 OFFCURVE",
"753 383 CURVE SMOOTH",
"753 514 OFFCURVE",
"702 628 OFFCURVE",
"612 697 CURVE SMOOTH",
"542 750 OFFCURVE",
"457 770 OFFCURVE",
"298 770 CURVE SMOOTH",
"49 770 LINE",
"49 747 LINE",
"134 728 LINE",
"134 42 LINE",
"49 23 LINE",
"49 0 LINE"
);
},
{
closed = 1;
nodes = (
"264 38 OFFCURVE",
"239 52 OFFCURVE",
"239 98 CURVE SMOOTH",
"239 730 LINE",
"318 730 LINE SMOOTH",
"430 730 OFFCURVE",
"492 710 OFFCURVE",
"543 657 CURVE SMOOTH",
"599 598 OFFCURVE",
"628 508 OFFCURVE",
"628 395 CURVE SMOOTH",
"628 283 OFFCURVE",
"599 185 OFFCURVE",
"546 119 CURVE SMOOTH",
"498 61 OFFCURVE",
"441 38 OFFCURVE",
"343 38 CURVE SMOOTH"
);
}
);
width = 810;
},
{
background = {
paths = (
{
closed = 1;
nodes = (
"412 0 LINE",
"525 0 OFFCURVE",
"598 17 OFFCURVE",
"664 59 CURVE SMOOTH",
"766 124 OFFCURVE",
"832 246 OFFCURVE",
"832 386 CURVE SMOOTH",
"832 522 OFFCURVE",
"770 632 OFFCURVE",
"672 697 CURVE SMOOTH",
"591 751 OFFCURVE",
"488 770 OFFCURVE",
"314 770 CURVE SMOOTH",
"41 770 LINE",
"41 733 LINE",
"127 714 LINE",
"127 57 LINE",
"41 38 LINE",
"41 0 LINE"
);
},
{
closed = 1;
nodes = (
"328 54 OFFCURVE",
"299 72 OFFCURVE",
"299 114 CURVE SMOOTH",
"299 714 LINE",
"389 714 LINE SMOOTH",
"474 714 OFFCURVE",
"535 691 OFFCURVE",
"575 642 CURVE SMOOTH",
"620 588 OFFCURVE",
"640 508 OFFCURVE",
"640 386 CURVE SMOOTH",
"640 262 OFFCURVE",
"620 174 OFFCURVE",
"575 121 CURVE SMOOTH",
"536 75 OFFCURVE",
"479 54 OFFCURVE",
"401 54 CURVE SMOOTH"
);
}
);
};
layerId = "1CCFBABC-759F-491A-B184-EA51E5B5BC4A";
paths = (
{
closed = 1;
nodes = (
"412 0 LINE",
"525 0 OFFCURVE",
"598 17 OFFCURVE",
"664 59 CURVE SMOOTH",
"766 124 OFFCURVE",
"832 246 OFFCURVE",
"832 386 CURVE SMOOTH",
"832 522 OFFCURVE",
"770 632 OFFCURVE",
"672 697 CURVE SMOOTH",
"591 751 OFFCURVE",
"488 770 OFFCURVE",
"314 770 CURVE SMOOTH",
"41 770 LINE",
"41 733 LINE",
"127 714 LINE",
"127 57 LINE",
"41 38 LINE",
"41 0 LINE"
);
},
{
closed = 1;
nodes = (
"328 54 OFFCURVE",
"299 72 OFFCURVE",
"299 114 CURVE SMOOTH",
"299 714 LINE",
"389 714 LINE SMOOTH",
"474 714 OFFCURVE",
"535 691 OFFCURVE",
"575 642 CURVE SMOOTH",
"620 588 OFFCURVE",
"640 508 OFFCURVE",
"640 386 CURVE SMOOTH",
"640 262 OFFCURVE",
"620 174 OFFCURVE",
"575 121 CURVE SMOOTH",
"536 75 OFFCURVE",
"479 54 OFFCURVE",
"401 54 CURVE SMOOTH"
);
}
);
width = 878;
}
);
leftKerningGroup = I;
rightKerningGroup = D;
unicode = 0044;
},
{
glyphname = Eth;
layers = (
{
background = {
paths = (
{
closed = 1;
nodes = (
"363 364 LINE",
"363 429 LINE",
"56 429 LINE",
"56 364 LINE"
);
},
{
closed = 1;
nodes = (
"385 0 LINE SMOOTH",
"485 0 OFFCURVE",
"548 17 OFFCURVE",
"606 59 CURVE SMOOTH",
"699 127 OFFCURVE",
"754 247 OFFCURVE",
"754 383 CURVE SMOOTH",
"754 514 OFFCURVE",
"703 628 OFFCURVE",
"613 697 CURVE SMOOTH",
"543 750 OFFCURVE",
"458 770 OFFCURVE",
"299 770 CURVE SMOOTH",
"50 770 LINE",
"50 747 LINE",
"135 728 LINE",
"135 42 LINE",
"50 23 LINE",
"50 0 LINE"
);
},
{
closed = 1;
nodes = (
"265 38 OFFCURVE",
"240 52 OFFCURVE",
"240 98 CURVE SMOOTH",
"240 730 LINE",
"319 730 LINE SMOOTH",
"431 730 OFFCURVE",
"493 710 OFFCURVE",
"544 657 CURVE SMOOTH",
"600 598 OFFCURVE",
"629 508 OFFCURVE",
"629 395 CURVE SMOOTH",
"629 283 OFFCURVE",
"600 185 OFFCURVE",
"547 119 CURVE SMOOTH",
"499 61 OFFCURVE",
"442 38 OFFCURVE",
"344 38 CURVE SMOOTH"
);
}
);
};
layerId = UUID0;
paths = (
{
closed = 1;
nodes = (
"385 0 LINE SMOOTH",
"485 0 OFFCURVE",
"548 17 OFFCURVE",
"606 59 CURVE SMOOTH",
"699 127 OFFCURVE",
"754 247 OFFCURVE",
"754 383 CURVE SMOOTH",
"754 514 OFFCURVE",
"703 628 OFFCURVE",
"613 697 CURVE SMOOTH",
"543 750 OFFCURVE",
"458 770 OFFCURVE",
"299 770 CURVE SMOOTH",
"50 770 LINE",
"50 747 LINE",
"135 728 LINE",
"135 429 LINE",
"56 429 LINE",
"56 364 LINE",
"135 364 LINE",
"135 42 LINE",
"50 23 LINE",
"50 0 LINE"
);
},
{
closed = 1;
nodes = (
"265 38 OFFCURVE",
"240 52 OFFCURVE",
"240 98 CURVE SMOOTH",
"240 364 LINE",
"363 364 LINE",
"363 429 LINE",
"240 429 LINE",
"240 730 LINE",
"319 730 LINE SMOOTH",
"431 730 OFFCURVE",
"493 710 OFFCURVE",
"544 657 CURVE SMOOTH",
"600 598 OFFCURVE",
"629 508 OFFCURVE",
"629 395 CURVE SMOOTH",
"629 283 OFFCURVE",
"600 185 OFFCURVE",
"547 119 CURVE SMOOTH",
"499 61 OFFCURVE",
"442 38 OFFCURVE",
"344 38 CURVE SMOOTH"
);
}
);
width = 811;
},
{
background = {
paths = (
{
closed = 1;
nodes = (
"439 354 LINE",
"439 439 LINE",
"52 439 LINE",
"52 354 LINE"
);
},
{
closed = 1;
nodes = (
"412 0 LINE",
"525 0 OFFCURVE",
"598 17 OFFCURVE",
"664 59 CURVE SMOOTH",
"766 124 OFFCURVE",
"832 246 OFFCURVE",
"832 386 CURVE SMOOTH",
"832 522 OFFCURVE",
"770 632 OFFCURVE",
"672 697 CURVE SMOOTH",
"591 751 OFFCURVE",
"488 770 OFFCURVE",
"314 770 CURVE SMOOTH",
"41 770 LINE",
"41 733 LINE",
"127 714 LINE",
"127 57 LINE",
"41 38 LINE",
"41 0 LINE"
);
},
{
closed = 1;
nodes = (
"328 54 OFFCURVE",
"299 72 OFFCURVE",
"299 114 CURVE SMOOTH",
"299 714 LINE",
"389 714 LINE SMOOTH",
"474 714 OFFCURVE",
"535 691 OFFCURVE",
"575 642 CURVE SMOOTH",
"620 588 OFFCURVE",
"640 508 OFFCURVE",
"640 386 CURVE SMOOTH",
"640 262 OFFCURVE",
"620 174 OFFCURVE",
"575 121 CURVE SMOOTH",
"536 75 OFFCURVE",
"479 54 OFFCURVE",
"401 54 CURVE SMOOTH"
);
}
);
};
layerId = "1CCFBABC-759F-491A-B184-EA51E5B5BC4A";
paths = (
{
closed = 1;
nodes = (
"412 0 LINE SMOOTH",
"525 0 OFFCURVE",
"598 17 OFFCURVE",
"664 59 CURVE SMOOTH",
"766 124 OFFCURVE",
"832 246 OFFCURVE",
"832 386 CURVE SMOOTH",
"832 522 OFFCURVE",
"770 632 OFFCURVE",
"672 697 CURVE SMOOTH",
"591 751 OFFCURVE",
"488 770 OFFCURVE",
"314 770 CURVE SMOOTH",
"41 770 LINE",
"41 733 LINE",
"127 714 LINE",
"127 439 LINE",
"52 439 LINE",
"52 354 LINE",
"127 354 LINE",
"127 57 LINE",
"41 38 LINE",
"41 0 LINE"
);
},
{
closed = 1;
nodes = (
"328 54 OFFCURVE",
"299 72 OFFCURVE",
"299 114 CURVE SMOOTH",
"299 354 LINE",
"439 354 LINE",
"439 439 LINE",
"299 439 LINE",
"299 714 LINE",
"389 714 LINE SMOOTH",
"474 714 OFFCURVE",
"535 691 OFFCURVE",
"575 642 CURVE SMOOTH",
"620 588 OFFCURVE",
"640 508 OFFCURVE",
"640 386 CURVE SMOOTH",
"640 262 OFFCURVE",
"620 174 OFFCURVE",
"575 121 CURVE SMOOTH",
"536 75 OFFCURVE",
"479 54 OFFCURVE",
"401 54 CURVE SMOOTH"
);
}
);
width = 878;
}
);
leftKerningGroup = I;
rightKerningGroup = D;
unicode = 00D0;
},
{
glyphname = Dcroat;
layers = (
{
background = {
paths = (
{
closed = 1;
nodes = (
"363 364 LINE",
"363 429 LINE",
"56 429 LINE",
"56 364 LINE"
);
},
{
closed = 1;
nodes = (
"385 0 LINE",
"485 0 OFFCURVE",
"548 17 OFFCURVE",
"606 59 CURVE SMOOTH",
"699 127 OFFCURVE",
"754 247 OFFCURVE",
"754 383 CURVE SMOOTH",
"754 514 OFFCURVE",
"703 628 OFFCURVE",
"613 697 CURVE SMOOTH",
"543 750 OFFCURVE",
"458 770 OFFCURVE",
"299 770 CURVE SMOOTH",
"50 770 LINE",
"50 747 LINE",
"135 728 LINE",
"135 42 LINE",
"50 23 LINE",
"50 0 LINE"
);
},
{
closed = 1;
nodes = (
"265 38 OFFCURVE",
"240 52 OFFCURVE",
"240 98 CURVE SMOOTH",
"240 730 LINE",
"319 730 LINE SMOOTH",
"431 730 OFFCURVE",
"493 710 OFFCURVE",
"544 657 CURVE SMOOTH",
"600 598 OFFCURVE",
"629 508 OFFCURVE",
"629 395 CURVE SMOOTH",
"629 283 OFFCURVE",
"600 185 OFFCURVE",
"547 119 CURVE SMOOTH",
"499 61 OFFCURVE",
"442 38 OFFCURVE",
"344 38 CURVE SMOOTH"
);
}
);
};
layerId = UUID0;
paths = (
{
closed = 1;
nodes = (
"385 0 LINE SMOOTH",
"485 0 OFFCURVE",
"548 17 OFFCURVE",
"606 59 CURVE SMOOTH",
"699 127 OFFCURVE",
"754 247 OFFCURVE",
"754 383 CURVE SMOOTH",
"754 514 OFFCURVE",
"703 628 OFFCURVE",
"613 697 CURVE SMOOTH",
"543 750 OFFCURVE",
"458 770 OFFCURVE",
"299 770 CURVE SMOOTH",
"50 770 LINE",
"50 747 LINE",
"135 728 LINE",
"135 429 LINE",
"56 429 LINE",
"56 364 LINE",
"135 364 LINE",
"135 42 LINE",
"50 23 LINE",
"50 0 LINE"
);
},
{
closed = 1;
nodes = (
"265 38 OFFCURVE",
"240 52 OFFCURVE",
"240 98 CURVE SMOOTH",
"240 364 LINE",
"363 364 LINE",
"363 429 LINE",
"240 429 LINE",
"240 730 LINE",
"319 730 LINE SMOOTH",
"431 730 OFFCURVE",
"493 710 OFFCURVE",
"544 657 CURVE SMOOTH",
"600 598 OFFCURVE",
"629 508 OFFCURVE",
"629 395 CURVE SMOOTH",
"629 283 OFFCURVE",
"600 185 OFFCURVE",
"547 119 CURVE SMOOTH",
"499 61 OFFCURVE",
"442 38 OFFCURVE",
"344 38 CURVE SMOOTH"
);
}
);
width = 811;
},
{
background = {
paths = (
{
closed = 1;
nodes = (
"439 354 LINE",
"439 439 LINE",
"52 439 LINE",
"52 354 LINE"
);
},
{
closed = 1;
nodes = (
"412 0 LINE",
"525 0 OFFCURVE",
"598 17 OFFCURVE",
"664 59 CURVE SMOOTH",
"766 124 OFFCURVE",
"832 246 OFFCURVE",
"832 386 CURVE SMOOTH",
"832 522 OFFCURVE",
"770 632 OFFCURVE",
"672 697 CURVE SMOOTH",
"591 751 OFFCURVE",
"488 770 OFFCURVE",
"314 770 CURVE SMOOTH",
"41 770 LINE",
"41 733 LINE",
"127 714 LINE",
"127 57 LINE",
"41 38 LINE",
"41 0 LINE"
);
},
{
closed = 1;
nodes = (
"328 54 OFFCURVE",
"299 72 OFFCURVE",
"299 114 CURVE SMOOTH",
"299 714 LINE",
"389 714 LINE SMOOTH",
"474 714 OFFCURVE",
"535 691 OFFCURVE",
"575 642 CURVE SMOOTH",
"620 588 OFFCURVE",
"640 508 OFFCURVE",
"640 386 CURVE SMOOTH",
"640 262 OFFCURVE",
"620 174 OFFCURVE",
"575 121 CURVE SMOOTH",
"536 75 OFFCURVE",
"479 54 OFFCURVE",
"401 54 CURVE SMOOTH"
);
}
);
};
layerId = "1CCFBABC-759F-491A-B184-EA51E5B5BC4A";
paths = (
{
closed = 1;
nodes = (
"412 0 LINE SMOOTH",
"525 0 OFFCURVE",
"598 17 OFFCURVE",
"664 59 CURVE SMOOTH",
"766 124 OFFCURVE",
"832 246 OFFCURVE",
"832 386 CURVE SMOOTH",
"832 522 OFFCURVE",
"770 632 OFFCURVE",
"672 697 CURVE SMOOTH",
"591 751 OFFCURVE",
"488 770 OFFCURVE",
"314 770 CURVE SMOOTH",
"41 770 LINE",
"41 733 LINE",
"127 714 LINE",
"127 439 LINE",
"52 439 LINE",
"52 354 LINE",
"127 354 LINE",
"127 57 LINE",
"41 38 LINE",
"41 0 LINE"
);
},
{
closed = 1;
nodes = (
"328 54 OFFCURVE",
"299 72 OFFCURVE",
"299 114 CURVE SMOOTH",
"299 354 LINE",
"439 354 LINE",
"439 439 LINE",
"299 439 LINE",
"299 714 LINE",
"389 714 LINE SMOOTH",
"474 714 OFFCURVE",
"535 691 OFFCURVE",
"575 642 CURVE SMOOTH",
"620 588 OFFCURVE",
"640 508 OFFCURVE",
"640 386 CURVE SMOOTH",
"640 262 OFFCURVE",
"620 174 OFFCURVE",
"575 121 CURVE SMOOTH",
"536 75 OFFCURVE",
"479 54 OFFCURVE",
"401 54 CURVE SMOOTH"
);
}
);
width = 878;
}
);
leftKerningGroup = I;
rightKerningGroup = D;
unicode = 0110;
},
{
glyphname = E;
layers = (
{
anchors = (
{
name = bottom;
position = "{358, 0}";
},
{
name = topcap;
position = "{356, 830}";
}
);
background = {
paths = (
{
closed = 1;
nodes = (
"225 386 LINE",
"418 386 LINE",
"437 346 OFFCURVE",
"449 306 OFFCURVE",
"455 266 CURVE",
"479 266 LINE",
"479 546 LINE",
"455 546 LINE",
"448 506 OFFCURVE",
"437 466 OFFCURVE",
"418 426 CURVE",
"225 426 LINE"
);
},
{
closed = 1;
nodes = (
"526 730 LINE",
"559 673 OFFCURVE",
"582 607 OFFCURVE",
"598 550 CURVE",
"622 550 LINE",
"605 770 LINE",
"49 770 LINE",
"49 747 LINE",
"134 728 LINE",
"134 42 LINE",
"49 23 LINE",
"49 0 LINE",
"601 0 LINE",
"638 234 LINE",
"605 234 LINE",
"583 169 OFFCURVE",
"561 105 OFFCURVE",
"521 40 CURVE",
"239 40 LINE",
"239 730 LINE"
);
}
);
};
layerId = UUID0;
paths = (
{
closed = 1;
nodes = (
"225 386 LINE",
"418 386 LINE",
"437 346 OFFCURVE",
"449 306 OFFCURVE",
"455 266 CURVE",
"479 266 LINE",
"479 546 LINE",
"455 546 LINE",
"448 506 OFFCURVE",
"437 466 OFFCURVE",
"418 426 CURVE",
"225 426 LINE"
);
},
{
closed = 1;
nodes = (
"526 730 LINE",
"559 673 OFFCURVE",
"582 607 OFFCURVE",
"598 550 CURVE",
"622 550 LINE",
"605 770 LINE",
"49 770 LINE",
"49 747 LINE",
"134 728 LINE",
"134 42 LINE",
"49 23 LINE",
"49 0 LINE",
"601 0 LINE",
"638 234 LINE",
"605 234 LINE",
"583 169 OFFCURVE",
"561 105 OFFCURVE",
"521 40 CURVE",
"239 40 LINE",
"239 730 LINE"
);
}
);
width = 692;
},
{
background = {
paths = (
{
closed = 1;
nodes = (
"283 380 LINE",
"425 380 LINE",
"446 343 OFFCURVE",
"460 304 OFFCURVE",
"468 267 CURVE",
"510 267 LINE",
"510 547 LINE",
"468 547 LINE",
"460 510 OFFCURVE",
"447 471 OFFCURVE",
"425 434 CURVE",
"283 434 LINE"
);
},
{
closed = 1;
nodes = (
"554 713 LINE",
"588 661 OFFCURVE",
"613 602 OFFCURVE",
"631 550 CURVE",
"673 550 LINE",
"654 770 LINE",
"42 770 LINE",
"42 733 LINE",
"127 714 LINE",
"127 56 LINE",
"42 37 LINE",
"42 0 LINE",
"649 0 LINE",
"691 234 LINE",
"639 234 LINE",
"615 175 OFFCURVE",
"591 116 OFFCURVE",
"548 57 CURVE",
"299 57 LINE",
"299 713 LINE"
);
}
);
};
layerId = "1CCFBABC-759F-491A-B184-EA51E5B5BC4A";
paths = (
{
closed = 1;
nodes = (
"283 380 LINE",
"425 380 LINE",
"446 343 OFFCURVE",
"460 304 OFFCURVE",
"468 267 CURVE",
"510 267 LINE",
"510 547 LINE",
"468 547 LINE",
"460 510 OFFCURVE",
"447 471 OFFCURVE",
"425 434 CURVE",
"283 434 LINE"
);
},
{
closed = 1;
nodes = (
"554 713 LINE",
"588 661 OFFCURVE",
"613 602 OFFCURVE",
"631 550 CURVE",
"673 550 LINE",
"654 770 LINE",
"42 770 LINE",
"42 733 LINE",
"127 714 LINE",
"127 56 LINE",
"42 37 LINE",
"42 0 LINE",
"649 0 LINE",
"691 234 LINE",
"639 234 LINE",
"615 175 OFFCURVE",
"591 116 OFFCURVE",
"548 57 CURVE",
"299 57 LINE",
"299 713 LINE"
);
}
);
width = 731;
}
);
leftKerningGroup = I;
rightKerningGroup = E;
unicode = 0045;
},
{
glyphname = F;
layers = (
{
background = {
paths = (
{
closed = 1;
nodes = (
"526 730 LINE",
"559 673 OFFCURVE",
"582 607 OFFCURVE",
"598 550 CURVE",
"622 550 LINE",
"605 770 LINE",
"49 770 LINE",
"49 747 LINE",
"134 728 LINE",
"134 42 LINE",
"49 23 LINE",
"49 0 LINE",
"353 0 LINE",
"353 23 LINE",
"239 42 LINE",
"239 730 LINE"
);
},
{
closed = 1;
nodes = (
"225 386 LINE",
"418 386 LINE",
"437 346 OFFCURVE",
"449 306 OFFCURVE",
"455 266 CURVE",
"479 266 LINE",
"479 546 LINE",
"455 546 LINE",
"448 506 OFFCURVE",
"437 466 OFFCURVE",
"418 426 CURVE",
"225 426 LINE"
);
}
);
};
layerId = UUID0;
paths = (
{
closed = 1;
nodes = (
"526 730 LINE",
"559 673 OFFCURVE",
"582 607 OFFCURVE",
"598 550 CURVE",
"622 550 LINE",
"605 770 LINE",
"49 770 LINE",
"49 747 LINE",
"134 728 LINE",
"134 42 LINE",
"49 23 LINE",
"49 0 LINE",
"353 0 LINE",
"353 23 LINE",
"239 42 LINE",
"239 730 LINE"
);
},
{
closed = 1;
nodes = (
"225 386 LINE",
"418 386 LINE",
"437 346 OFFCURVE",
"449 306 OFFCURVE",
"455 266 CURVE",
"479 266 LINE",
"479 546 LINE",
"455 546 LINE",
"448 506 OFFCURVE",
"437 466 OFFCURVE",
"418 426 CURVE",
"225 426 LINE"
);
}
);
width = 650;
},
{
background = {
paths = (
{
closed = 1;
nodes = (
"560 713 LINE",
"593 661 OFFCURVE",
"616 602 OFFCURVE",
"632 550 CURVE",
"671 550 LINE",
"654 770 LINE",
"42 770 LINE",
"42 733 LINE",
"127 714 LINE",
"127 56 LINE",
"42 37 LINE",
"42 0 LINE",
"412 0 LINE",
"412 37 LINE",
"298 56 LINE",
"298 713 LINE"
);
},
{
closed = 1;
nodes = (
"285 381 LINE",
"433 381 LINE",
"451 343 OFFCURVE",
"463 305 OFFCURVE",
"470 267 CURVE",
"509 267 LINE",
"509 547 LINE",
"470 547 LINE",
"463 509 OFFCURVE",
"452 472 OFFCURVE",
"433 434 CURVE",
"285 434 LINE"
);
}
);
};
layerId = "1CCFBABC-759F-491A-B184-EA51E5B5BC4A";
paths = (
{
closed = 1;
nodes = (
"560 713 LINE",
"593 661 OFFCURVE",
"616 602 OFFCURVE",
"632 550 CURVE",
"671 550 LINE",
"654 770 LINE",
"42 770 LINE",
"42 733 LINE",
"127 714 LINE",
"127 56 LINE",
"42 37 LINE",
"42 0 LINE",
"412 0 LINE",
"412 37 LINE",
"298 56 LINE",
"298 713 LINE"
);
},
{
closed = 1;
nodes = (
"285 381 LINE",
"433 381 LINE",
"451 343 OFFCURVE",
"463 305 OFFCURVE",
"470 267 CURVE",
"509 267 LINE",
"509 547 LINE",
"470 547 LINE",
"463 509 OFFCURVE",
"452 472 OFFCURVE",
"433 434 CURVE",
"285 434 LINE"
);
}
);
width = 684;
}
);
leftKerningGroup = I;
unicode = 0046;
},
{
glyphname = G;
layers = (
{
anchors = (
{
name = bottom;
position = "{427, 0}";
},
{
name = topcap;
position = "{437, 830}";
}
);
background = {
paths = (
{
closed = 1;
nodes = (
"691 344 LINE",
"780 363 LINE",
"780 386 LINE",
"496 386 LINE",
"496 363 LINE",
"586 344 LINE",
"586 149 LINE SMOOTH",
"586 115 OFFCURVE",
"584 107 OFFCURVE",
"578 97 CURVE SMOOTH",
"553 56 OFFCURVE",
"500 36 OFFCURVE",
"435 36 CURVE SMOOTH",
"266 36 OFFCURVE",
"183 149 OFFCURVE",
"183 376 CURVE SMOOTH",
"183 612 OFFCURVE",
"272 735 OFFCURVE",
"444 735 CURVE SMOOTH",
"555 735 OFFCURVE",
"615 685 OFFCURVE",
"679 540 CURVE",
"702 540 LINE",
"702 770 LINE",
"680 770 LINE",
"626 719 LINE",
"622 719 LINE",
"578 758 OFFCURVE",
"508 780 OFFCURVE",
"430 780 CURVE SMOOTH",
"214 780 OFFCURVE",
"55 608 OFFCURVE",
"55 376 CURVE SMOOTH",
"55 150 OFFCURVE",
"205 -10 OFFCURVE",
"418 -10 CURVE SMOOTH",
"521 -10 OFFCURVE",
"636 28 OFFCURVE",
"691 81 CURVE"
);
}
);
};
layerId = UUID0;
paths = (
{
closed = 1;
nodes = (
"691 344 LINE",
"780 363 LINE",
"780 386 LINE",
"496 386 LINE",
"496 363 LINE",
"586 344 LINE",
"586 149 LINE SMOOTH",
"586 115 OFFCURVE",
"584 107 OFFCURVE",
"578 97 CURVE SMOOTH",
"553 56 OFFCURVE",
"500 36 OFFCURVE",
"435 36 CURVE SMOOTH",
"266 36 OFFCURVE",
"183 149 OFFCURVE",
"183 376 CURVE SMOOTH",
"183 612 OFFCURVE",
"272 735 OFFCURVE",
"444 735 CURVE SMOOTH",
"555 735 OFFCURVE",
"615 685 OFFCURVE",
"679 540 CURVE",
"702 540 LINE",
"702 770 LINE",
"680 770 LINE",
"626 719 LINE",
"622 719 LINE",
"578 758 OFFCURVE",
"508 780 OFFCURVE",
"430 780 CURVE SMOOTH",
"214 780 OFFCURVE",
"55 608 OFFCURVE",
"55 376 CURVE SMOOTH",
"55 150 OFFCURVE",
"205 -10 OFFCURVE",
"418 -10 CURVE SMOOTH",
"521 -10 OFFCURVE",
"636 28 OFFCURVE",
"691 81 CURVE"
);
}
);
width = 808;
},
{
background = {
paths = (
{
closed = 1;
nodes = (
"749 330 LINE",
"838 349 LINE",
"838 386 LINE",
"487 386 LINE",
"487 349 LINE",
"577 330 LINE",
"577 161 LINE SMOOTH",
"577 129 OFFCURVE",
"575 118 OFFCURVE",
"566 105 CURVE SMOOTH",
"542 70 OFFCURVE",
"492 48 OFFCURVE",
"434 48 CURVE SMOOTH",
"299 48 OFFCURVE",
"237 147 OFFCURVE",
"237 377 CURVE SMOOTH",
"237 607 OFFCURVE",
"312 720 OFFCURVE",
"464 720 CURVE SMOOTH",
"570 720 OFFCURVE",
"633 668 OFFCURVE",
"702 525 CURVE",
"747 525 LINE",
"748 770 LINE",
"715 770 LINE",
"671 719 LINE",
"667 719 LINE",
"618 757 OFFCURVE",
"535 780 OFFCURVE",
"446 780 CURVE SMOOTH",
"211 780 OFFCURVE",
"45 612 OFFCURVE",
"45 373 CURVE SMOOTH",
"45 143 OFFCURVE",
"200 -10 OFFCURVE",
"434 -10 CURVE SMOOTH",
"550 -10 OFFCURVE",
"686 29 OFFCURVE",
"749 81 CURVE"
);
}
);
};
layerId = "1CCFBABC-759F-491A-B184-EA51E5B5BC4A";
paths = (
{
closed = 1;
nodes = (
"749 330 LINE",
"838 349 LINE",
"838 386 LINE",
"487 386 LINE",
"487 349 LINE",
"577 330 LINE",
"577 161 LINE SMOOTH",
"577 129 OFFCURVE",
"575 118 OFFCURVE",
"566 105 CURVE SMOOTH",
"542 70 OFFCURVE",
"492 48 OFFCURVE",
"434 48 CURVE SMOOTH",
"299 48 OFFCURVE",
"237 147 OFFCURVE",
"237 377 CURVE SMOOTH",
"237 607 OFFCURVE",
"312 720 OFFCURVE",
"464 720 CURVE SMOOTH",
"570 720 OFFCURVE",
"633 668 OFFCURVE",
"702 525 CURVE",
"747 525 LINE",
"747 770 LINE",
"715 770 LINE",
"671 719 LINE",
"667 719 LINE",
"618 757 OFFCURVE",
"535 780 OFFCURVE",
"446 780 CURVE SMOOTH",
"211 780 OFFCURVE",
"45 612 OFFCURVE",
"45 373 CURVE SMOOTH",
"45 143 OFFCURVE",
"200 -10 OFFCURVE",
"434 -10 CURVE SMOOTH",
"550 -10 OFFCURVE",
"686 29 OFFCURVE",
"749 81 CURVE"
);
}
);
width = 855;
}
);
leftKerningGroup = G;
rightKerningGroup = G;
unicode = 0047;
},
{
glyphname = H;
layers = (
{
anchors = (
{
name = bottom;
position = "{432, 0}";
},
{
name = topcap;
position = "{432, 830}";
}
);
background = {
paths = (
{
closed = 1;
nodes = (
"135 42 LINE",
"45 23 LINE",
"45 0 LINE",
"329 0 LINE",
"329 23 LINE",
"240 42 LINE",
"240 728 LINE",
"329 747 LINE",
"329 770 LINE",
"45 770 LINE",
"45 747 LINE",
"135 728 LINE"
);
},
{
closed = 1;
nodes = (
"618 42 LINE",
"528 23 LINE",
"528 0 LINE",
"812 0 LINE",
"812 21 LINE",
"723 42 LINE",
"723 728 LINE",
"812 745 LINE",
"812 770 LINE",
"528 770 LINE",
"528 747 LINE",
"618 728 LINE"
);
},
{
closed = 1;
nodes = (
"200 385 LINE",
"660 385 LINE",
"660 425 LINE",
"200 425 LINE"
);
}
);
};
layerId = UUID0;
paths = (
{
closed = 1;
nodes = (
"135 42 LINE",
"45 23 LINE",
"45 0 LINE",
"329 0 LINE",
"329 23 LINE",
"240 42 LINE",
"240 728 LINE",
"329 747 LINE",
"329 770 LINE",
"45 770 LINE",
"45 747 LINE",
"135 728 LINE"
);
},
{
closed = 1;
nodes = (
"618 42 LINE",
"528 23 LINE",
"528 0 LINE",
"812 0 LINE",
"812 21 LINE",
"723 42 LINE",
"723 728 LINE",
"812 745 LINE",
"812 770 LINE",
"528 770 LINE",
"528 747 LINE",
"618 728 LINE"
);
},
{
closed = 1;
nodes = (
"200 385 LINE",
"660 385 LINE",
"660 425 LINE",
"200 425 LINE"
);
}
);
width = 857;
},
{
background = {
paths = (
{
closed = 1;
nodes = (
"127 58 LINE",
"42 37 LINE",
"42 0 LINE",
"383 0 LINE",
"383 37 LINE",
"299 58 LINE",
"299 713 LINE",
"383 733 LINE",
"383 770 LINE",
"42 770 LINE",
"42 733 LINE",
"127 713 LINE"
);
},
{
closed = 1;
nodes = (
"625 58 LINE",
"540 37 LINE",
"540 0 LINE",
"881 0 LINE",
"881 37 LINE",
"797 58 LINE",
"797 713 LINE",
"881 733 LINE",
"881 770 LINE",
"540 770 LINE",
"540 733 LINE",
"625 713 LINE"
);
},
{
closed = 1;
nodes = (
"201 378 LINE",
"725 378 LINE",
"725 435 LINE",
"201 435 LINE"
);
}
);
};
layerId = "1CCFBABC-759F-491A-B184-EA51E5B5BC4A";
paths = (
{
closed = 1;
nodes = (
"127 58 LINE",
"42 37 LINE",
"42 0 LINE",
"383 0 LINE",
"383 37 LINE",
"299 58 LINE",
"299 713 LINE",
"383 733 LINE",
"383 770 LINE",
"42 770 LINE",
"42 733 LINE",
"127 713 LINE"
);
},
{
closed = 1;
nodes = (
"625 58 LINE",
"540 37 LINE",
"540 0 LINE",
"881 0 LINE",
"881 37 LINE",
"797 58 LINE",
"797 713 LINE",
"881 733 LINE",
"881 770 LINE",
"540 770 LINE",
"540 733 LINE",
"625 713 LINE"
);
},
{
closed = 1;
nodes = (
"201 378 LINE",
"725 378 LINE",
"725 435 LINE",
"201 435 LINE"
);
}
);
width = 923;
}
);
leftKerningGroup = I;
rightKerningGroup = I;
unicode = 0048;
},
{
glyphname = Hbar;
layers = (
{
background = {
paths = (
{
closed = 1;
nodes = (
"813 547 LINE",
"813 612 LINE",
"55 612 LINE",
"55 547 LINE"
);
}
);
};
layerId = UUID0;
paths = (
{
closed = 1;
nodes = (
"135 42 LINE",
"45 23 LINE",
"45 0 LINE",
"329 0 LINE",
"329 23 LINE",
"240 42 LINE",
"240 385 LINE",
"618 385 LINE",
"618 42 LINE",
"528 23 LINE",
"528 0 LINE",
"812 0 LINE",
"812 21 LINE",
"723 42 LINE",
"723 547 LINE",
"813 547 LINE",
"813 612 LINE",
"723 612 LINE",
"723 728 LINE",
"812 745 LINE",
"812 770 LINE",
"528 770 LINE",
"528 747 LINE",
"618 728 LINE",
"618 612 LINE",
"240 612 LINE",
"240 728 LINE",
"329 747 LINE",
"329 770 LINE",
"45 770 LINE",
"45 747 LINE",
"135 728 LINE",
"135 612 LINE",
"55 612 LINE",
"55 547 LINE",
"135 547 LINE"
);
},
{
closed = 1;
nodes = (
"240 547 LINE",
"618 547 LINE",
"618 425 LINE",
"240 425 LINE"
);
}
);
width = 858;
},
{
background = {
paths = (
{
closed = 1;
nodes = (
"875 537 LINE",
"875 622 LINE",
"53 622 LINE",
"53 537 LINE"
);
}
);
};
layerId = "1CCFBABC-759F-491A-B184-EA51E5B5BC4A";
paths = (
{
closed = 1;
nodes = (
"128 58 LINE",
"43 37 LINE",
"43 0 LINE",
"384 0 LINE",
"384 37 LINE",
"300 58 LINE",
"300 378 LINE",
"626 378 LINE",
"626 58 LINE",
"541 37 LINE",
"541 0 LINE",
"882 0 LINE",
"882 37 LINE",
"798 58 LINE",
"798 537 LINE",
"875 537 LINE",
"875 612 LINE",
"798 612 LINE",
"798 713 LINE",
"882 733 LINE",
"882 770 LINE",
"541 770 LINE",
"541 733 LINE",
"626 713 LINE",
"626 612 LINE",
"300 612 LINE",
"300 713 LINE",
"384 733 LINE",
"384 770 LINE",
"43 770 LINE",
"43 733 LINE",
"128 713 LINE",
"128 612 LINE",
"53 612 LINE",
"53 537 LINE",
"128 537 LINE"
);
},
{
closed = 1;
nodes = (
"300 537 LINE",
"626 537 LINE",
"626 435 LINE",
"300 435 LINE"
);
}
);
width = 925;
}
);
leftKerningGroup = I;
rightKerningGroup = I;
unicode = 0126;
},
{
glyphname = I;
layers = (
{
anchors = (
{
name = bottom;
position = "{188, 0}";
},
{
name = topcap;
position = "{188, 830}";
}
);
background = {
paths = (
{
closed = 1;
nodes = (
"135 42 LINE",
"45 23 LINE",
"45 0 LINE",
"329 0 LINE",
"329 23 LINE",
"240 42 LINE",
"240 728 LINE",
"329 747 LINE",
"329 770 LINE",
"45 770 LINE",
"45 747 LINE",
"135 728 LINE"
);
}
);
};
layerId = UUID0;
paths = (
{
closed = 1;
nodes = (
"135 42 LINE",
"45 23 LINE",
"45 0 LINE",
"329 0 LINE",
"329 23 LINE",
"240 42 LINE",
"240 728 LINE",
"329 747 LINE",
"329 770 LINE",
"45 770 LINE",
"45 747 LINE",
"135 728 LINE"
);
}
);
width = 374;
},
{
background = {
paths = (
{
closed = 1;
nodes = (
"127 58 LINE",
"42 37 LINE",
"42 0 LINE",
"383 0 LINE",
"383 37 LINE",
"299 58 LINE",
"299 713 LINE",
"383 733 LINE",
"383 770 LINE",
"42 770 LINE",
"42 733 LINE",
"127 713 LINE"
);
}
);
};
layerId = "1CCFBABC-759F-491A-B184-EA51E5B5BC4A";
paths = (
{
closed = 1;
nodes = (
"127 58 LINE",
"42 37 LINE",
"42 0 LINE",
"383 0 LINE",
"383 37 LINE",
"299 58 LINE",
"299 713 LINE",
"383 733 LINE",
"383 770 LINE",
"42 770 LINE",
"42 733 LINE",
"127 713 LINE"
);
}
);
width = 425;
}
);
leftKerningGroup = I;
rightKerningGroup = I;
unicode = 0049;
},
{
glyphname = J;
layers = (
{
anchors = (
{
name = topcap;
position = "{181, 830}";
}
);
background = {
paths = (
{
closed = 1;
nodes = (
"233 728 LINE",
"322 747 LINE",
"322 770 LINE",
"38 770 LINE",
"38 747 LINE",
"128 728 LINE",
"128 -48 LINE SMOOTH",
"128 -156 OFFCURVE",
"92 -208 OFFCURVE",
"46 -208 CURVE SMOOTH",
"20 -208 OFFCURVE",
"-1 -192 OFFCURVE",
"-15 -154 CURVE SMOOTH",
"-26 -124 OFFCURVE",
"-42 -108 OFFCURVE",
"-70 -108 CURVE SMOOTH",
"-106 -108 OFFCURVE",
"-129 -133 OFFCURVE",
"-129 -173 CURVE SMOOTH",
"-129 -227 OFFCURVE",
"-83 -260 OFFCURVE",
"-9 -260 CURVE SMOOTH",
"73 -260 OFFCURVE",
"152 -215 OFFCURVE",
"199 -131 CURVE SMOOTH",
"228 -78 OFFCURVE",
"233 -41 OFFCURVE",
"233 155 CURVE SMOOTH"
);
}
);
};
layerId = UUID0;
paths = (
{
closed = 1;
nodes = (
"233 728 LINE",
"322 747 LINE",
"322 770 LINE",
"38 770 LINE",
"38 747 LINE",
"128 728 LINE",
"128 -48 LINE SMOOTH",
"128 -156 OFFCURVE",
"92 -208 OFFCURVE",
"46 -208 CURVE SMOOTH",
"20 -208 OFFCURVE",
"-1 -192 OFFCURVE",
"-15 -154 CURVE SMOOTH",
"-26 -124 OFFCURVE",
"-42 -108 OFFCURVE",
"-70 -108 CURVE SMOOTH",
"-106 -108 OFFCURVE",
"-129 -133 OFFCURVE",
"-129 -173 CURVE SMOOTH",
"-129 -227 OFFCURVE",
"-83 -260 OFFCURVE",
"-9 -260 CURVE SMOOTH",
"73 -260 OFFCURVE",
"152 -215 OFFCURVE",
"199 -131 CURVE SMOOTH",
"228 -78 OFFCURVE",
"233 -41 OFFCURVE",
"233 155 CURVE SMOOTH"
);
}
);
width = 362;
},
{
background = {
paths = (
{
closed = 1;
nodes = (
"291 713 LINE",
"375 733 LINE",
"375 770 LINE",
"34 770 LINE",
"34 733 LINE",
"119 713 LINE",
"119 -43 LINE SMOOTH",
"119 -151 OFFCURVE",
"87 -203 OFFCURVE",
"47 -203 CURVE SMOOTH",
"23 -203 OFFCURVE",
"6 -184 OFFCURVE",
"-9 -139 CURVE SMOOTH",
"-22 -103 OFFCURVE",
"-41 -77 OFFCURVE",
"-82 -77 CURVE SMOOTH",
"-122 -77 OFFCURVE",
"-154 -103 OFFCURVE",
"-154 -153 CURVE SMOOTH",
"-154 -218 OFFCURVE",
"-93 -260 OFFCURVE",
"15 -260 CURVE SMOOTH",
"109 -260 OFFCURVE",
"204 -215 OFFCURVE",
"257 -131 CURVE",
"286 -78 OFFCURVE",
"291 -41 OFFCURVE",
"291 155 CURVE SMOOTH"
);
}
);
};
layerId = "1CCFBABC-759F-491A-B184-EA51E5B5BC4A";
paths = (
{
closed = 1;
nodes = (
"291 713 LINE",
"375 733 LINE",
"375 770 LINE",
"34 770 LINE",
"34 733 LINE",
"119 713 LINE",
"119 -43 LINE SMOOTH",
"119 -151 OFFCURVE",
"87 -203 OFFCURVE",
"47 -203 CURVE SMOOTH",
"23 -203 OFFCURVE",
"6 -184 OFFCURVE",
"-9 -139 CURVE SMOOTH",
"-22 -103 OFFCURVE",
"-41 -77 OFFCURVE",
"-82 -77 CURVE SMOOTH",
"-122 -77 OFFCURVE",
"-154 -103 OFFCURVE",
"-154 -153 CURVE SMOOTH",
"-154 -218 OFFCURVE",
"-93 -260 OFFCURVE",
"15 -260 CURVE SMOOTH",
"109 -260 OFFCURVE",
"204 -215 OFFCURVE",
"257 -131 CURVE",
"286 -78 OFFCURVE",
"291 -41 OFFCURVE",
"291 155 CURVE SMOOTH"
);
}
);
width = 409;
}
);
leftKerningGroup = J;
rightKerningGroup = J;
unicode = 004A;
},
{
glyphname = K;
layers = (
{
anchors = (
{
name = bottom;
position = "{396, 0}";
}
);
background = {
paths = (
{
closed = 1;
nodes = (
"293 395 LINE",
"590 0 LINE",
"807 0 LINE",
"807 23 LINE",
"696 42 LINE",
"371 465 LINE"
);
},
{
closed = 1;
nodes = (
"135 42 LINE",
"45 23 LINE",
"45 0 LINE",
"329 0 LINE",
"329 23 LINE",
"240 42 LINE",
"240 728 LINE",
"329 747 LINE",
"329 770 LINE",
"45 770 LINE",
"45 747 LINE",
"135 728 LINE"
);
},
{
closed = 1;
nodes = (
"455 747 LINE",
"514 743 OFFCURVE",
"539 734 OFFCURVE",
"539 717 CURVE SMOOTH",
"539 709 OFFCURVE",
"534 699 OFFCURVE",
"523 687 CURVE SMOOTH",
"207 333 LINE",
"218 280 LINE",
"573 685 LINE SMOOTH",
"605 722 OFFCURVE",
"627 731 OFFCURVE",
"719 747 CURVE",
"719 770 LINE",
"455 770 LINE"
);
}
);
};
layerId = UUID0;
paths = (
{
closed = 1;
nodes = (
"45 0 LINE",
"329 0 LINE",
"329 23 LINE",
"240 42 LINE",
"240 305 LINE",
"305 379 LINE",
"590 0 LINE",
"807 0 LINE",
"807 23 LINE",
"696 42 LINE",
"375 459 LINE",
"573 685 LINE SMOOTH",
"605 722 OFFCURVE",
"627 731 OFFCURVE",
"719 747 CURVE",
"719 770 LINE",
"455 770 LINE",
"455 747 LINE",
"514 743 OFFCURVE",
"539 734 OFFCURVE",
"539 717 CURVE SMOOTH",
"539 709 OFFCURVE",
"534 699 OFFCURVE",
"523 687 CURVE SMOOTH",
"240 370 LINE",
"240 728 LINE",
"329 747 LINE",
"329 770 LINE",
"45 770 LINE",
"45 747 LINE",
"135 728 LINE",
"135 42 LINE",
"45 23 LINE"
);
}
);
width = 783;
},
{
background = {
paths = (
{
closed = 1;
nodes = (
"310 367 LINE",
"567 0 LINE",
"834 0 LINE",
"834 37 LINE",
"743 56 LINE",
"437 482 LINE"
);
},
{
closed = 1;
nodes = (
"127 58 LINE",
"42 37 LINE",
"42 0 LINE",
"383 0 LINE",
"383 37 LINE",
"299 58 LINE",
"299 713 LINE",
"383 733 LINE",
"383 770 LINE",
"42 770 LINE",
"42 733 LINE",
"127 713 LINE"
);
},
{
closed = 1;
nodes = (
"476 734 LINE",
"527 732 OFFCURVE",
"553 724 OFFCURVE",
"553 705 CURVE SMOOTH",
"553 697 OFFCURVE",
"550 685 OFFCURVE",
"539 674 CURVE SMOOTH",
"184 293 LINE",
"218 240 LINE",
"615 671 LINE SMOOTH",
"648 707 OFFCURVE",
"669 718 OFFCURVE",
"763 733 CURVE",
"763 770 LINE",
"476 770 LINE"
);
}
);
};
layerId = "1CCFBABC-759F-491A-B184-EA51E5B5BC4A";
paths = (
{
closed = 1;
nodes = (
"42 0 LINE",
"383 0 LINE",
"383 37 LINE",
"299 58 LINE",
"299 328 LINE",
"321 351 LINE",
"567 0 LINE",
"834 0 LINE",
"834 37 LINE",
"743 56 LINE",
"439 479 LINE",
"615 671 LINE SMOOTH",
"648 707 OFFCURVE",
"669 718 OFFCURVE",
"763 733 CURVE",
"763 770 LINE",
"476 770 LINE",
"476 734 LINE",
"527 732 OFFCURVE",
"553 724 OFFCURVE",
"553 705 CURVE SMOOTH",
"553 697 OFFCURVE",
"550 685 OFFCURVE",
"539 674 CURVE SMOOTH",
"299 416 LINE",
"299 713 LINE",
"383 733 LINE",
"383 770 LINE",
"42 770 LINE",
"42 733 LINE",
"127 713 LINE",
"127 58 LINE",
"42 37 LINE"
);
}
);
width = 807;
}
);
leftKerningGroup = I;
rightKerningGroup = K;
unicode = 004B;
},
{
glyphname = L;
layers = (
{
anchors = (
{
name = bottom;
position = "{345, 0}";
},
{
name = topcap;
position = "{185, 830}";
}
);
background = {
paths = (
{
closed = 1;
nodes = (
"334 747 LINE",
"334 770 LINE",
"49 770 LINE",
"49 747 LINE",
"134 728 LINE",
"134 42 LINE",
"49 23 LINE",
"49 0 LINE",
"601 0 LINE",
"638 239 LINE",
"612 239 LINE",
"590 173 OFFCURVE",
"568 106 OFFCURVE",
"528 40 CURVE",
"239 40 LINE",
"239 728 LINE"
);
}
);
};
layerId = UUID0;
paths = (
{
closed = 1;
nodes = (
"334 747 LINE",
"334 770 LINE",
"49 770 LINE",
"49 747 LINE",
"134 728 LINE",
"134 42 LINE",
"49 23 LINE",
"49 0 LINE",
"601 0 LINE",
"638 239 LINE",
"612 239 LINE",
"590 173 OFFCURVE",
"568 106 OFFCURVE",
"528 40 CURVE",
"239 40 LINE",
"239 728 LINE"
);
}
);
width = 656;
},
{
background = {
paths = (
{
closed = 1;
nodes = (
"393 733 LINE",
"393 770 LINE",
"42 770 LINE",
"42 733 LINE",
"127 714 LINE",
"127 56 LINE",
"42 37 LINE",
"42 0 LINE",
"649 0 LINE",
"691 234 LINE",
"639 234 LINE",
"615 175 OFFCURVE",
"591 116 OFFCURVE",
"548 57 CURVE",
"299 57 LINE",
"299 713 LINE"
);
}
);
};
layerId = "1CCFBABC-759F-491A-B184-EA51E5B5BC4A";
paths = (
{
closed = 1;
nodes = (
"393 733 LINE",
"393 770 LINE",
"42 770 LINE",
"42 733 LINE",
"127 714 LINE",
"127 56 LINE",
"42 37 LINE",
"42 0 LINE",
"649 0 LINE",
"691 234 LINE",
"639 234 LINE",
"615 175 OFFCURVE",
"591 116 OFFCURVE",
"548 57 CURVE",
"299 57 LINE",
"299 713 LINE"
);
}
);
width = 699;
}
);
leftKerningGroup = I;
rightKerningGroup = L;
unicode = 004C;
},
{
glyphname = Lslash;
layers = (
{
background = {
paths = (
{
closed = 1;
nodes = (
"335 454 LINE",
"335 519 LINE",
"59 371 LINE",
"59 306 LINE"
);
}
);
};
components = (
{
name = L;
transform = "{1, 0, 0, 1, 1, 0}";
}
);
layerId = UUID0;
paths = (
{
closed = 1;
nodes = (
"335 454 LINE",
"335 519 LINE",
"59 371 LINE",
"59 306 LINE"
);
}
);
width = 657;
},
{
background = {
paths = (
{
closed = 1;
nodes = (
"373 442 LINE",
"373 537 LINE",
"61 371 LINE",
"61 276 LINE"
);
}
);
};
components = (
{
name = L;
transform = "{1, 0, 0, 1, 1, 0}";
}
);
layerId = "1CCFBABC-759F-491A-B184-EA51E5B5BC4A";
paths = (
{
closed = 1;
nodes = (
"373 442 LINE",
"373 537 LINE",
"61 371 LINE",
"61 276 LINE"
);
}
);
width = 700;
}
);
leftKerningGroup = I;
rightKerningGroup = L;
unicode = 0141;
},
{
glyphname = M;
layers = (
{
background = {
paths = (
{
closed = 1;
nodes = (
"773 42 LINE",
"683 23 LINE",
"683 0 LINE",
"967 0 LINE",
"967 23 LINE",
"878 42 LINE",
"878 728 LINE",
"967 747 LINE",
"967 770 LINE",
"773 770 LINE",
"769 656 LINE",
"773 655 LINE"
);
},
{
closed = 1;
nodes = (
"135 42 LINE",
"45 23 LINE",
"45 0 LINE",
"264 0 LINE",
"264 23 LINE",
"175 42 LINE",
"175 770 LINE",
"45 770 LINE",
"45 747 LINE",
"135 728 LINE"
);
},
{
closed = 1;
nodes = (
"485 -10 LINE",
"818 770 LINE",
"758 770 LINE",
"509 177 LINE",
"504 177 LINE",
"255 770 LINE",
"175 770 LINE",
"175 659 LINE",
"179 660 LINE",
"458 -10 LINE"
);
}
);
};
layerId = UUID0;
paths = (
{
closed = 1;
nodes = (
"135 42 LINE",
"45 23 LINE",
"45 0 LINE",
"264 0 LINE",
"264 23 LINE",
"175 42 LINE",
"175 660 LINE",
"179 660 LINE",
"458 -10 LINE",
"485 -10 LINE",
"769 656 LINE",
"773 656 LINE",
"773 42 LINE",
"683 23 LINE",
"683 0 LINE",
"967 0 LINE",
"967 23 LINE",
"878 42 LINE",
"878 728 LINE",
"967 747 LINE",
"967 770 LINE",
"758 770 LINE",
"509 177 LINE",
"504 177 LINE",
"255 770 LINE",
"45 770 LINE",
"45 747 LINE",
"135 728 LINE"
);
}
);
width = 1012;
},
{
background = {
paths = (
{
closed = 1;
nodes = (
"128 56 LINE",
"39 37 LINE",
"39 0 LINE",
"285 0 LINE",
"285 37 LINE",
"197 56 LINE",
"197 621 LINE",
"201 621 LINE",
"472 -10 LINE",
"520 -10 LINE",
"771 594 LINE",
"775 594 LINE",
"775 58 LINE",
"690 37 LINE",
"690 0 LINE",
"1031 0 LINE",
"1031 37 LINE",
"947 58 LINE",
"947 713 LINE",
"1031 733 LINE",
"1031 770 LINE",
"774 770 LINE",
"557 254 LINE",
"551 254 LINE",
"343 770 LINE",
"40 770 LINE",
"40 733 LINE",
"128 714 LINE"
);
}
);
};
layerId = "1CCFBABC-759F-491A-B184-EA51E5B5BC4A";
paths = (
{
closed = 1;
nodes = (
"128 56 LINE",
"39 37 LINE",
"39 0 LINE",
"285 0 LINE",
"285 37 LINE",
"197 56 LINE",
"197 621 LINE",
"201 621 LINE",
"472 -10 LINE",
"520 -10 LINE",
"771 594 LINE",
"775 594 LINE",
"775 58 LINE",
"690 37 LINE",
"690 0 LINE",
"1031 0 LINE",
"1031 37 LINE",
"947 58 LINE",
"947 713 LINE",
"1031 733 LINE",
"1031 770 LINE",
"774 770 LINE",
"557 254 LINE",
"551 254 LINE",
"343 770 LINE",
"40 770 LINE",
"40 733 LINE",
"128 714 LINE"
);
}
);
width = 1073;
}
);
leftKerningGroup = N;
rightKerningGroup = I;
unicode = 004D;
},
{
glyphname = N;
layers = (
{
anchors = (
{
name = bottom;
position = "{405, 0}";
},
{
name = topcap;
position = "{453, 830}";
}
);
background = {
paths = (
{
closed = 1;
nodes = (
"135 42 LINE",
"45 23 LINE",
"45 0 LINE",
"264 0 LINE",
"264 23 LINE",
"175 42 LINE",
"175 770 LINE",
"45 770 LINE",
"45 747 LINE",
"135 728 LINE"
);
},
{
closed = 1;
nodes = (
"699 728 LINE",
"789 747 LINE",
"789 770 LINE",
"570 770 LINE",
"570 747 LINE",
"659 728 LINE",
"659 72 LINE",
"668 -20 LINE",
"699 -20 LINE"
);
},
{
closed = 1;
nodes = (
"668 -20 LINE",
"680 175 LINE",
"247 770 LINE",
"152 770 LINE",
"147 706 LINE"
);
}
);
};
layerId = UUID0;
paths = (
{
closed = 1;
nodes = (
"699 728 LINE",
"789 747 LINE",
"789 770 LINE",
"570 770 LINE",
"570 747 LINE",
"659 728 LINE",
"659 204 LINE",
"247 770 LINE",
"45 770 LINE",
"45 747 LINE",
"135 728 LINE",
"135 42 LINE",
"45 23 LINE",
"45 0 LINE",
"264 0 LINE",
"264 23 LINE",
"175 42 LINE",
"175 667 LINE",
"668 -20 LINE",
"699 -20 LINE"
);
}
);
width = 828;
},
{
background = {
paths = (
{
closed = 1;
nodes = (
"758 714 LINE",
"847 733 LINE",
"847 770 LINE",
"601 770 LINE",
"601 733 LINE",
"689 714 LINE",
"689 295 LINE",
"311 770 LINE",
"40 770 LINE",
"40 733 LINE",
"128 714 LINE",
"128 56 LINE",
"39 37 LINE",
"39 0 LINE",
"285 0 LINE",
"285 37 LINE",
"197 56 LINE",
"197 610 LINE",
"689 -10 LINE",
"758 -10 LINE"
);
}
);
};
layerId = "1CCFBABC-759F-491A-B184-EA51E5B5BC4A";
paths = (
{
closed = 1;
nodes = (
"758 714 LINE",
"847 733 LINE",
"847 770 LINE",
"601 770 LINE",
"601 733 LINE",
"689 714 LINE",
"689 295 LINE",
"311 770 LINE",
"40 770 LINE",
"40 733 LINE",
"128 714 LINE",
"128 56 LINE",
"39 37 LINE",
"39 0 LINE",
"285 0 LINE",
"285 37 LINE",
"197 56 LINE",
"197 610 LINE",
"689 -10 LINE",
"758 -10 LINE"
);
}
);
width = 878;
}
);
leftKerningGroup = N;
rightKerningGroup = N;
unicode = 004E;
},
{
glyphname = Eng;
layers = (
{
background = {
paths = (
{
closed = 1;
nodes = (
"594 155 LINE",
"594 -48 LINE SMOOTH",
"594 -156 OFFCURVE",
"558 -208 OFFCURVE",
"512 -208 CURVE SMOOTH",
"486 -208 OFFCURVE",
"465 -192 OFFCURVE",
"451 -154 CURVE SMOOTH",
"440 -124 OFFCURVE",
"424 -108 OFFCURVE",
"396 -108 CURVE SMOOTH",
"360 -108 OFFCURVE",
"337 -133 OFFCURVE",
"337 -173 CURVE SMOOTH",
"337 -227 OFFCURVE",
"383 -260 OFFCURVE",
"457 -260 CURVE SMOOTH",
"539 -260 OFFCURVE",
"618 -215 OFFCURVE",
"665 -131 CURVE SMOOTH",
"694 -78 OFFCURVE",
"699 -41 OFFCURVE",
"699 155 CURVE"
);
},
{
closed = 1;
nodes = (
"135 42 LINE",
"45 23 LINE",
"45 0 LINE",
"264 0 LINE",
"264 23 LINE",
"175 42 LINE",
"175 770 LINE",
"45 770 LINE",
"45 747 LINE",
"135 728 LINE"
);
},
{
closed = 1;
nodes = (
"699 728 LINE",
"789 747 LINE",
"789 770 LINE",
"570 770 LINE",
"570 747 LINE",
"659 728 LINE",
"659 120 LINE",
"699 120 LINE"
);
},
{
closed = 1;
nodes = (
"668 -20 LINE",
"680 175 LINE",
"247 770 LINE",
"152 770 LINE",
"147 706 LINE"
);
}
);
};
layerId = UUID0;
paths = (
{
closed = 1;
nodes = (
"594 155 LINE",
"594 -48 LINE SMOOTH",
"594 -156 OFFCURVE",
"558 -208 OFFCURVE",
"512 -208 CURVE SMOOTH",
"486 -208 OFFCURVE",
"465 -192 OFFCURVE",
"451 -154 CURVE SMOOTH",
"440 -124 OFFCURVE",
"424 -108 OFFCURVE",
"396 -108 CURVE SMOOTH",
"360 -108 OFFCURVE",
"337 -133 OFFCURVE",
"337 -173 CURVE SMOOTH",
"337 -227 OFFCURVE",
"383 -260 OFFCURVE",
"457 -260 CURVE SMOOTH",
"539 -260 OFFCURVE",
"618 -215 OFFCURVE",
"665 -131 CURVE SMOOTH",
"694 -78 OFFCURVE",
"699 -41 OFFCURVE",
"699 155 CURVE"
);
},
{
closed = 1;
nodes = (
"135 42 LINE",
"45 23 LINE",
"45 0 LINE",
"264 0 LINE",
"264 23 LINE",
"175 42 LINE",
"175 770 LINE",
"45 770 LINE",
"45 747 LINE",
"135 728 LINE"
);
},
{
closed = 1;
nodes = (
"699 728 LINE",
"789 747 LINE",
"789 770 LINE",
"570 770 LINE",
"570 747 LINE",
"659 728 LINE",
"659 120 LINE",
"699 120 LINE"
);
},
{
closed = 1;
nodes = (
"668 -20 LINE",
"680 175 LINE",
"247 770 LINE",
"152 770 LINE",
"147 706 LINE"
);
}
);
width = 827;
},
{
background = {
paths = (
{
closed = 1;
nodes = (
"586 155 LINE",
"586 -43 LINE SMOOTH",
"586 -151 OFFCURVE",
"554 -203 OFFCURVE",
"514 -203 CURVE SMOOTH",
"490 -203 OFFCURVE",
"473 -184 OFFCURVE",
"458 -139 CURVE SMOOTH",
"445 -103 OFFCURVE",
"426 -77 OFFCURVE",
"385 -77 CURVE SMOOTH",
"345 -77 OFFCURVE",
"313 -103 OFFCURVE",
"313 -153 CURVE SMOOTH",
"313 -218 OFFCURVE",
"374 -260 OFFCURVE",
"482 -260 CURVE SMOOTH",
"576 -260 OFFCURVE",
"671 -215 OFFCURVE",
"724 -131 CURVE",
"753 -78 OFFCURVE",
"758 -41 OFFCURVE",
"758 155 CURVE"
);
},
{
closed = 1;
nodes = (
"128 56 LINE",
"39 37 LINE",
"39 0 LINE",
"285 0 LINE",
"285 37 LINE",
"197 56 LINE",
"197 770 LINE",
"40 770 LINE",
"40 733 LINE",
"128 714 LINE"
);
},
{
closed = 1;
nodes = (
"758 714 LINE",
"847 733 LINE",
"847 770 LINE",
"601 770 LINE",
"601 733 LINE",
"689 714 LINE",
"689 140 LINE",
"758 140 LINE"
);
},
{
closed = 1;
nodes = (
"689 -10 LINE",
"717 260 LINE",
"311 770 LINE",
"146 770 LINE",
"141 681 LINE"
);
}
);
};
layerId = "1CCFBABC-759F-491A-B184-EA51E5B5BC4A";
paths = (
{
closed = 1;
nodes = (
"586 155 LINE",
"586 -43 LINE SMOOTH",
"586 -151 OFFCURVE",
"554 -203 OFFCURVE",
"514 -203 CURVE SMOOTH",
"490 -203 OFFCURVE",
"473 -184 OFFCURVE",
"458 -139 CURVE SMOOTH",
"445 -103 OFFCURVE",
"426 -77 OFFCURVE",
"385 -77 CURVE SMOOTH",
"345 -77 OFFCURVE",
"313 -103 OFFCURVE",
"313 -153 CURVE SMOOTH",
"313 -218 OFFCURVE",
"374 -260 OFFCURVE",
"482 -260 CURVE SMOOTH",
"576 -260 OFFCURVE",
"671 -215 OFFCURVE",
"724 -131 CURVE",
"753 -78 OFFCURVE",
"758 -41 OFFCURVE",
"758 155 CURVE"
);
},
{
closed = 1;
nodes = (
"128 56 LINE",
"39 37 LINE",
"39 0 LINE",
"285 0 LINE",
"285 37 LINE",
"197 56 LINE",
"197 770 LINE",
"40 770 LINE",
"40 733 LINE",
"128 714 LINE"
);
},
{
closed = 1;
nodes = (
"758 714 LINE",
"847 733 LINE",
"847 770 LINE",
"601 770 LINE",
"601 733 LINE",
"689 714 LINE",
"689 140 LINE",
"758 140 LINE"
);
},
{
closed = 1;
nodes = (
"689 -10 LINE",
"717 260 LINE",
"311 770 LINE",
"146 770 LINE",
"141 681 LINE"
);
}
);
width = 877;
}
);
leftKerningGroup = N;
rightKerningGroup = N;
unicode = 014A;
},
{
glyphname = O;
layers = (
{
anchors = (
{
name = bottom;
position = "{419, 0}";
},
{
name = topcap;
position = "{419, 830}";
}
);
background = {
paths = (
{
closed = 1;
nodes = (
"211 780 OFFCURVE",
"55 610 OFFCURVE",
"55 385 CURVE SMOOTH",
"55 160 OFFCURVE",
"211 -10 OFFCURVE",
"418 -10 CURVE SMOOTH",
"625 -10 OFFCURVE",
"781 160 OFFCURVE",
"781 385 CURVE SMOOTH",
"781 610 OFFCURVE",
"625 780 OFFCURVE",
"418 780 CURVE SMOOTH"
);
},
{
closed = 1;
nodes = (
"181 605 OFFCURVE",
"270 735 OFFCURVE",
"419 735 CURVE SMOOTH",
"567 735 OFFCURVE",
"655 606 OFFCURVE",
"655 388 CURVE SMOOTH",
"655 167 OFFCURVE",
"566 35 OFFCURVE",
"418 35 CURVE SMOOTH",
"270 35 OFFCURVE",
"181 167 OFFCURVE",
"181 386 CURVE SMOOTH"
);
}
);
};
layerId = UUID0;
paths = (
{
closed = 1;
nodes = (
"211 780 OFFCURVE",
"55 610 OFFCURVE",
"55 385 CURVE SMOOTH",
"55 160 OFFCURVE",
"211 -10 OFFCURVE",
"418 -10 CURVE SMOOTH",
"625 -10 OFFCURVE",
"781 160 OFFCURVE",
"781 385 CURVE SMOOTH",
"781 610 OFFCURVE",
"625 780 OFFCURVE",
"418 780 CURVE SMOOTH"
);
},
{
closed = 1;
nodes = (
"181 605 OFFCURVE",
"270 735 OFFCURVE",
"419 735 CURVE SMOOTH",
"567 735 OFFCURVE",
"655 606 OFFCURVE",
"655 388 CURVE SMOOTH",
"655 167 OFFCURVE",
"566 35 OFFCURVE",
"418 35 CURVE SMOOTH",
"270 35 OFFCURVE",
"181 167 OFFCURVE",
"181 386 CURVE SMOOTH"
);
}
);
width = 836;
},
{
background = {
paths = (
{
closed = 1;
nodes = (
"184 780 OFFCURVE",
"45 602 OFFCURVE",
"45 385 CURVE SMOOTH",
"45 168 OFFCURVE",
"184 -10 OFFCURVE",
"434 -10 CURVE SMOOTH",
"685 -10 OFFCURVE",
"824 168 OFFCURVE",
"824 385 CURVE SMOOTH",
"824 602 OFFCURVE",
"685 780 OFFCURVE",
"434 780 CURVE SMOOTH"
);
},
{
closed = 1;
nodes = (
"242 523 OFFCURVE",
"273 720 OFFCURVE",
"434 720 CURVE SMOOTH",
"598 720 OFFCURVE",
"627 523 OFFCURVE",
"627 385 CURVE SMOOTH",
"627 246 OFFCURVE",
"596 48 OFFCURVE",
"434 48 CURVE SMOOTH",
"273 48 OFFCURVE",
"242 246 OFFCURVE",
"242 385 CURVE SMOOTH"
);
}
);
};
layerId = "1CCFBABC-759F-491A-B184-EA51E5B5BC4A";
paths = (
{
closed = 1;
nodes = (
"184 780 OFFCURVE",
"45 602 OFFCURVE",
"45 385 CURVE SMOOTH",
"45 168 OFFCURVE",
"184 -10 OFFCURVE",
"434 -10 CURVE SMOOTH",
"685 -10 OFFCURVE",
"824 168 OFFCURVE",
"824 385 CURVE SMOOTH",
"824 602 OFFCURVE",
"685 780 OFFCURVE",
"434 780 CURVE SMOOTH"
);
},
{
closed = 1;
nodes = (
"242 523 OFFCURVE",
"273 720 OFFCURVE",
"434 720 CURVE SMOOTH",
"598 720 OFFCURVE",
"627 523 OFFCURVE",
"627 385 CURVE SMOOTH",
"627 246 OFFCURVE",
"596 48 OFFCURVE",
"434 48 CURVE SMOOTH",
"273 48 OFFCURVE",
"242 246 OFFCURVE",
"242 385 CURVE SMOOTH"
);
}
);
width = 869;
}
);
leftKerningGroup = O;
rightKerningGroup = O;
unicode = 004F;
},
{
glyphname = Oslash;
layers = (
{
background = {
paths = (
{
closed = 1;
nodes = (
"212 780 OFFCURVE",
"56 610 OFFCURVE",
"56 385 CURVE SMOOTH",
"56 277 OFFCURVE",
"92 181 OFFCURVE",
"152 111 CURVE",
"57 0 LINE",
"112 0 LINE",
"182 81 LINE",
"244 24 OFFCURVE",
"326 -10 OFFCURVE",
"419 -10 CURVE SMOOTH",
"626 -10 OFFCURVE",
"782 160 OFFCURVE",
"782 385 CURVE SMOOTH",
"782 495 OFFCURVE",
"744 592 OFFCURVE",
"681 662 CURVE",
"774 770 LINE",
"718 770 LINE",
"651 692 LINE",
"589 747 OFFCURVE",
"509 780 OFFCURVE",
"419 780 CURVE SMOOTH"
);
},
{
closed = 1;
nodes = (
"656 167 OFFCURVE",
"567 35 OFFCURVE",
"419 35 CURVE SMOOTH",
"339 35 OFFCURVE",
"276 74 OFFCURVE",
"235 144 CURVE",
"621 592 LINE",
"644 537 OFFCURVE",
"656 469 OFFCURVE",
"656 388 CURVE SMOOTH"
);
},
{
closed = 1;
nodes = (
"182 605 OFFCURVE",
"271 735 OFFCURVE",
"420 735 CURVE SMOOTH",
"498 735 OFFCURVE",
"559 699 OFFCURVE",
"600 633 CURVE",
"215 185 LINE",
"193 239 OFFCURVE",
"182 307 OFFCURVE",
"182 386 CURVE SMOOTH"
);
}
);
};
layerId = UUID0;
paths = (
{
closed = 1;
nodes = (
"626 -10 OFFCURVE",
"782 160 OFFCURVE",
"782 385 CURVE SMOOTH",
"782 495 OFFCURVE",
"744 592 OFFCURVE",
"681 662 CURVE",
"774 770 LINE",
"718 770 LINE",
"651 692 LINE",
"589 747 OFFCURVE",
"509 780 OFFCURVE",
"419 780 CURVE SMOOTH",
"212 780 OFFCURVE",
"56 610 OFFCURVE",
"56 385 CURVE SMOOTH",
"56 277 OFFCURVE",
"92 181 OFFCURVE",
"152 111 CURVE",
"57 0 LINE",
"112 0 LINE",
"182 81 LINE",
"244 24 OFFCURVE",
"326 -10 OFFCURVE",
"419 -10 CURVE SMOOTH"
);
},
{
closed = 1;
nodes = (
"215 185 LINE",
"193 239 OFFCURVE",
"182 307 OFFCURVE",
"182 386 CURVE SMOOTH",
"182 605 OFFCURVE",
"271 735 OFFCURVE",
"420 735 CURVE SMOOTH",
"498 735 OFFCURVE",
"559 699 OFFCURVE",
"600 633 CURVE"
);
},
{
closed = 1;
nodes = (
"339 35 OFFCURVE",
"276 74 OFFCURVE",
"235 144 CURVE",
"621 592 LINE",
"644 537 OFFCURVE",
"656 469 OFFCURVE",
"656 388 CURVE SMOOTH",
"656 167 OFFCURVE",
"567 35 OFFCURVE",
"419 35 CURVE SMOOTH"
);
}
);
width = 837;
},
{
background = {
paths = (
{
closed = 1;
nodes = (
"183 780 OFFCURVE",
"44 602 OFFCURVE",
"44 385 CURVE SMOOTH",
"44 273 OFFCURVE",
"81 171 OFFCURVE",
"151 99 CURVE",
"66 0 LINE",
"143 0 LINE",
"195 61 LINE",
"257 16 OFFCURVE",
"337 -10 OFFCURVE",
"433 -10 CURVE SMOOTH",
"684 -10 OFFCURVE",
"823 168 OFFCURVE",
"823 385 CURVE SMOOTH",
"823 496 OFFCURVE",
"786 596 OFFCURVE",
"717 668 CURVE",
"805 770 LINE",
"727 770 LINE",
"673 707 LINE",
"611 752 OFFCURVE",
"530 780 OFFCURVE",
"433 780 CURVE SMOOTH"
);
},
{
closed = 1;
nodes = (
"626 246 OFFCURVE",
"595 48 OFFCURVE",
"433 48 CURVE SMOOTH",
"355 48 OFFCURVE",
"307 94 OFFCURVE",
"279 158 CURVE",
"610 543 LINE",
"622 491 OFFCURVE",
"626 434 OFFCURVE",
"626 385 CURVE SMOOTH"
);
},
{
closed = 1;
nodes = (
"241 523 OFFCURVE",
"272 720 OFFCURVE",
"433 720 CURVE SMOOTH",
"513 720 OFFCURVE",
"561 673 OFFCURVE",
"589 609 CURVE",
"258 223 LINE",
"245 277 OFFCURVE",
"241 335 OFFCURVE",
"241 385 CURVE SMOOTH"
);
}
);
};
layerId = "1CCFBABC-759F-491A-B184-EA51E5B5BC4A";
paths = (
{
closed = 1;
nodes = (
"684 -10 OFFCURVE",
"823 168 OFFCURVE",
"823 385 CURVE SMOOTH",
"823 496 OFFCURVE",
"786 596 OFFCURVE",
"717 668 CURVE",
"805 770 LINE",
"727 770 LINE",
"673 707 LINE",
"611 752 OFFCURVE",
"530 780 OFFCURVE",
"433 780 CURVE SMOOTH",
"183 780 OFFCURVE",
"44 602 OFFCURVE",
"44 385 CURVE SMOOTH",
"44 273 OFFCURVE",
"81 171 OFFCURVE",
"151 99 CURVE",
"66 0 LINE",
"143 0 LINE",
"195 61 LINE",
"257 16 OFFCURVE",
"337 -10 OFFCURVE",
"433 -10 CURVE SMOOTH"
);
},
{
closed = 1;
nodes = (
"258 223 LINE",
"245 277 OFFCURVE",
"241 335 OFFCURVE",
"241 385 CURVE SMOOTH",
"241 523 OFFCURVE",
"272 720 OFFCURVE",
"433 720 CURVE SMOOTH",
"513 720 OFFCURVE",
"561 673 OFFCURVE",
"589 609 CURVE"
);
},
{
closed = 1;
nodes = (
"355 48 OFFCURVE",
"307 94 OFFCURVE",
"279 158 CURVE",
"610 543 LINE",
"622 491 OFFCURVE",
"626 434 OFFCURVE",
"626 385 CURVE SMOOTH",
"626 246 OFFCURVE",
"595 48 OFFCURVE",
"433 48 CURVE SMOOTH"
);
}
);
width = 867;
}
);
leftKerningGroup = O;
rightKerningGroup = O;
unicode = 00D8;
},
{
glyphname = Oslashacute;
layers = (
{
background = {
paths = (
{
closed = 1;
nodes = (
"172 -92 LINE",
"714 851 LINE",
"658 851 LINE",
"117 -92 LINE"
);
},
{
closed = 1;
nodes = (
"212 780 OFFCURVE",
"56 610 OFFCURVE",
"56 385 CURVE SMOOTH",
"56 160 OFFCURVE",
"212 -10 OFFCURVE",
"419 -10 CURVE SMOOTH",
"626 -10 OFFCURVE",
"782 160 OFFCURVE",
"782 385 CURVE SMOOTH",
"782 610 OFFCURVE",
"626 780 OFFCURVE",
"419 780 CURVE SMOOTH"
);
},
{
closed = 1;
nodes = (
"182 605 OFFCURVE",
"271 735 OFFCURVE",
"420 735 CURVE SMOOTH",
"568 735 OFFCURVE",
"656 606 OFFCURVE",
"656 388 CURVE SMOOTH",
"656 167 OFFCURVE",
"567 35 OFFCURVE",
"419 35 CURVE SMOOTH",
"271 35 OFFCURVE",
"182 167 OFFCURVE",
"182 386 CURVE SMOOTH"
);
}
);
};
components = (
{
name = acute.cap;
transform = "{1, 0, 0, 1, 307, 0}";
}
);
layerId = UUID0;
paths = (
{
closed = 1;
nodes = (
"626 -10 OFFCURVE",
"782 160 OFFCURVE",
"782 385 CURVE SMOOTH",
"782 495 OFFCURVE",
"744 592 OFFCURVE",
"681 662 CURVE",
"774 770 LINE",
"718 770 LINE",
"651 692 LINE",
"589 747 OFFCURVE",
"509 780 OFFCURVE",
"419 780 CURVE SMOOTH",
"212 780 OFFCURVE",
"56 610 OFFCURVE",
"56 385 CURVE SMOOTH",
"56 277 OFFCURVE",
"92 181 OFFCURVE",
"152 111 CURVE",
"57 0 LINE",
"112 0 LINE",
"182 81 LINE",
"244 24 OFFCURVE",
"326 -10 OFFCURVE",
"419 -10 CURVE SMOOTH"
);
},
{
closed = 1;
nodes = (
"215 185 LINE",
"193 239 OFFCURVE",
"182 307 OFFCURVE",
"182 386 CURVE SMOOTH",
"182 605 OFFCURVE",
"271 735 OFFCURVE",
"420 735 CURVE SMOOTH",
"498 735 OFFCURVE",
"559 699 OFFCURVE",
"600 633 CURVE"
);
},
{
closed = 1;
nodes = (
"339 35 OFFCURVE",
"276 74 OFFCURVE",
"235 144 CURVE",
"621 592 LINE",
"644 537 OFFCURVE",
"656 469 OFFCURVE",
"656 388 CURVE SMOOTH",
"656 167 OFFCURVE",
"567 35 OFFCURVE",
"419 35 CURVE SMOOTH"
);
}
);
width = 837;
},
{
background = {
paths = (
{
closed = 1;
nodes = (
"183 780 OFFCURVE",
"44 602 OFFCURVE",
"44 385 CURVE SMOOTH",
"44 273 OFFCURVE",
"81 171 OFFCURVE",
"151 99 CURVE",
"66 0 LINE",
"143 0 LINE",
"195 61 LINE",
"257 16 OFFCURVE",
"337 -10 OFFCURVE",
"433 -10 CURVE SMOOTH",
"684 -10 OFFCURVE",
"823 168 OFFCURVE",
"823 385 CURVE SMOOTH",
"823 496 OFFCURVE",
"786 596 OFFCURVE",
"717 668 CURVE",
"805 770 LINE",
"727 770 LINE",
"673 707 LINE",
"611 752 OFFCURVE",
"530 780 OFFCURVE",
"433 780 CURVE SMOOTH"
);
},
{
closed = 1;
nodes = (
"626 246 OFFCURVE",
"595 48 OFFCURVE",
"433 48 CURVE SMOOTH",
"355 48 OFFCURVE",
"307 94 OFFCURVE",
"279 158 CURVE",
"610 543 LINE",
"622 491 OFFCURVE",
"626 434 OFFCURVE",
"626 385 CURVE SMOOTH"
);
},
{
closed = 1;
nodes = (
"241 523 OFFCURVE",
"272 720 OFFCURVE",
"433 720 CURVE SMOOTH",
"513 720 OFFCURVE",
"561 673 OFFCURVE",
"589 609 CURVE",
"258 223 LINE",
"245 277 OFFCURVE",
"241 335 OFFCURVE",
"241 385 CURVE SMOOTH"
);
}
);
};
components = (
{
name = acute.cap;
transform = "{1, 0, 0, 1, 316, 0}";
}
);
layerId = "1CCFBABC-759F-491A-B184-EA51E5B5BC4A";
paths = (
{
closed = 1;
nodes = (
"684 -10 OFFCURVE",
"823 168 OFFCURVE",
"823 385 CURVE SMOOTH",
"823 496 OFFCURVE",
"786 596 OFFCURVE",
"717 668 CURVE",
"805 770 LINE",
"727 770 LINE",
"673 707 LINE",
"611 752 OFFCURVE",
"530 780 OFFCURVE",
"433 780 CURVE SMOOTH",
"183 780 OFFCURVE",
"44 602 OFFCURVE",
"44 385 CURVE SMOOTH",
"44 273 OFFCURVE",
"81 171 OFFCURVE",
"151 99 CURVE",
"66 0 LINE",
"143 0 LINE",
"195 61 LINE",
"257 16 OFFCURVE",
"337 -10 OFFCURVE",
"433 -10 CURVE SMOOTH"
);
},
{
closed = 1;
nodes = (
"258 223 LINE",
"245 277 OFFCURVE",
"241 335 OFFCURVE",
"241 385 CURVE SMOOTH",
"241 523 OFFCURVE",
"272 720 OFFCURVE",
"433 720 CURVE SMOOTH",
"513 720 OFFCURVE",
"561 673 OFFCURVE",
"589 609 CURVE"
);
},
{
closed = 1;
nodes = (
"355 48 OFFCURVE",
"307 94 OFFCURVE",
"279 158 CURVE",
"610 543 LINE",
"622 491 OFFCURVE",
"626 434 OFFCURVE",
"626 385 CURVE SMOOTH",
"626 246 OFFCURVE",
"595 48 OFFCURVE",
"433 48 CURVE SMOOTH"
);
}
);
width = 867;
}
);
leftKerningGroup = O;
rightKerningGroup = O;
unicode = 01FE;
},
{
glyphname = OE;
layers = (
{
background = {
paths = (
{
closed = 1;
nodes = (
"594 102 LINE",
"555 60 OFFCURVE",
"491 35 OFFCURVE",
"423 35 CURVE SMOOTH",
"270 35 OFFCURVE",
"181 163 OFFCURVE",
"181 386 CURVE SMOOTH",
"181 608 OFFCURVE",
"269 735 OFFCURVE",
"424 735 CURVE SMOOTH",
"505 735 OFFCURVE",
"574 700 OFFCURVE",
"612 640 CURVE",
"640 732 LINE",
"582 761 OFFCURVE",
"500 780 OFFCURVE",
"427 780 CURVE SMOOTH",
"211 780 OFFCURVE",
"55 615 OFFCURVE",
"55 385 CURVE SMOOTH",
"55 155 OFFCURVE",
"211 -10 OFFCURVE",
"427 -10 CURVE SMOOTH",
"498 -10 OFFCURVE",
"578 6 OFFCURVE",
"633 32 CURVE"
);
}
);
};
components = (
{
name = E;
transform = "{1, 0, 0, 1, 454, 0}";
}
);
layerId = UUID0;
paths = (
{
closed = 1;
nodes = (
"594 102 LINE",
"555 60 OFFCURVE",
"491 35 OFFCURVE",
"423 35 CURVE SMOOTH",
"270 35 OFFCURVE",
"181 163 OFFCURVE",
"181 386 CURVE SMOOTH",
"181 608 OFFCURVE",
"269 735 OFFCURVE",
"424 735 CURVE SMOOTH",
"505 735 OFFCURVE",
"574 700 OFFCURVE",
"612 640 CURVE",
"640 732 LINE",
"582 761 OFFCURVE",
"500 780 OFFCURVE",
"427 780 CURVE SMOOTH",
"211 780 OFFCURVE",
"55 615 OFFCURVE",
"55 385 CURVE SMOOTH",
"55 155 OFFCURVE",
"211 -10 OFFCURVE",
"427 -10 CURVE SMOOTH",
"498 -10 OFFCURVE",
"578 6 OFFCURVE",
"633 32 CURVE"
);
}
);
width = 1146;
},
{
background = {
paths = (
{
closed = 1;
nodes = (
"579 118 LINE",
"550 77 OFFCURVE",
"504 48 OFFCURVE",
"434 48 CURVE SMOOTH",
"273 48 OFFCURVE",
"242 246 OFFCURVE",
"242 385 CURVE SMOOTH",
"242 523 OFFCURVE",
"273 720 OFFCURVE",
"434 720 CURVE SMOOTH",
"511 720 OFFCURVE",
"558 685 OFFCURVE",
"586 637 CURVE",
"670 711 LINE",
"608 755 OFFCURVE",
"529 780 OFFCURVE",
"434 780 CURVE SMOOTH",
"184 780 OFFCURVE",
"45 602 OFFCURVE",
"45 385 CURVE SMOOTH",
"45 168 OFFCURVE",
"184 -10 OFFCURVE",
"434 -10 CURVE SMOOTH",
"526 -10 OFFCURVE",
"602 14 OFFCURVE",
"663 55 CURVE"
);
}
);
};
components = (
{
name = E;
transform = "{1, 0, 0, 1, 441, 0}";
}
);
layerId = "1CCFBABC-759F-491A-B184-EA51E5B5BC4A";
paths = (
{
closed = 1;
nodes = (
"579 118 LINE",
"550 77 OFFCURVE",
"504 48 OFFCURVE",
"434 48 CURVE SMOOTH",
"273 48 OFFCURVE",
"242 246 OFFCURVE",
"242 385 CURVE SMOOTH",
"242 523 OFFCURVE",
"273 720 OFFCURVE",
"434 720 CURVE SMOOTH",
"511 720 OFFCURVE",
"558 685 OFFCURVE",
"586 637 CURVE",
"670 711 LINE",
"608 755 OFFCURVE",
"529 780 OFFCURVE",
"434 780 CURVE SMOOTH",
"184 780 OFFCURVE",
"45 602 OFFCURVE",
"45 385 CURVE SMOOTH",
"45 168 OFFCURVE",
"184 -10 OFFCURVE",
"434 -10 CURVE SMOOTH",
"526 -10 OFFCURVE",
"602 14 OFFCURVE",
"663 55 CURVE"
);
}
);
width = 1172;
}
);
leftKerningGroup = O;
rightKerningGroup = E;
unicode = 0152;
},
{
glyphname = P;
layers = (
{
background = {
paths = (
{
closed = 1;
nodes = (
"49 747 LINE",
"134 728 LINE",
"134 42 LINE",
"49 23 LINE",
"49 0 LINE",
"353 0 LINE",
"353 23 LINE",
"239 42 LINE",
"239 330 LINE",
"345 330 LINE SMOOTH",
"519 330 OFFCURVE",
"627 404 OFFCURVE",
"627 541 CURVE SMOOTH",
"627 689 OFFCURVE",
"517 770 OFFCURVE",
"360 770 CURVE SMOOTH",
"49 770 LINE"
);
},
{
closed = 1;
nodes = (
"239 730 LINE",
"331 730 LINE SMOOTH",
"372 730 OFFCURVE",
"398 727 OFFCURVE",
"420 718 CURVE SMOOTH",
"478 695 OFFCURVE",
"512 637 OFFCURVE",
"512 551 CURVE SMOOTH",
"512 504 OFFCURVE",
"502 458 OFFCURVE",
"472 423 CURVE SMOOTH",
"443 389 OFFCURVE",
"398 369 OFFCURVE",
"314 369 CURVE SMOOTH",
"239 369 LINE"
);
}
);
};
layerId = UUID0;
paths = (
{
closed = 1;
nodes = (
"49 747 LINE",
"134 728 LINE",
"134 42 LINE",
"49 23 LINE",
"49 0 LINE",
"353 0 LINE",
"353 23 LINE",
"239 42 LINE",
"239 330 LINE",
"345 330 LINE SMOOTH",
"519 330 OFFCURVE",
"627 404 OFFCURVE",
"627 541 CURVE SMOOTH",
"627 689 OFFCURVE",
"517 770 OFFCURVE",
"360 770 CURVE SMOOTH",
"49 770 LINE"
);
},
{
closed = 1;
nodes = (
"239 730 LINE",
"331 730 LINE SMOOTH",
"372 730 OFFCURVE",
"398 727 OFFCURVE",
"420 718 CURVE SMOOTH",
"478 695 OFFCURVE",
"512 637 OFFCURVE",
"512 551 CURVE SMOOTH",
"512 504 OFFCURVE",
"502 458 OFFCURVE",
"472 423 CURVE SMOOTH",
"443 389 OFFCURVE",
"398 369 OFFCURVE",
"314 369 CURVE SMOOTH",
"239 369 LINE"
);
}
);
width = 663;
},
{
background = {
paths = (
{
closed = 1;
nodes = (
"42 733 LINE",
"127 712 LINE",
"127 59 LINE",
"42 37 LINE",
"42 0 LINE",
"424 0 LINE",
"424 37 LINE",
"299 59 LINE",
"299 320 LINE",
"359 320 LINE SMOOTH",
"556 320 OFFCURVE",
"669 401 OFFCURVE",
"669 542 CURVE SMOOTH",
"669 682 OFFCURVE",
"555 770 OFFCURVE",
"375 770 CURVE SMOOTH",
"42 770 LINE"
);
},
{
closed = 1;
nodes = (
"299 716 LINE",
"324 716 LINE SMOOTH",
"385 716 OFFCURVE",
"423 705 OFFCURVE",
"448 680 CURVE SMOOTH",
"473 655 OFFCURVE",
"486 612 OFFCURVE",
"486 551 CURVE SMOOTH",
"486 486 OFFCURVE",
"472 444 OFFCURVE",
"441 415 CURVE SMOOTH",
"411 387 OFFCURVE",
"368 374 OFFCURVE",
"306 374 CURVE SMOOTH",
"299 374 LINE"
);
}
);
};
layerId = "1CCFBABC-759F-491A-B184-EA51E5B5BC4A";
paths = (
{
closed = 1;
nodes = (
"42 733 LINE",
"127 712 LINE",
"127 59 LINE",
"42 37 LINE",
"42 0 LINE",
"424 0 LINE",
"424 37 LINE",
"299 59 LINE",
"299 320 LINE",
"359 320 LINE SMOOTH",
"556 320 OFFCURVE",
"669 401 OFFCURVE",
"669 542 CURVE SMOOTH",
"669 682 OFFCURVE",
"555 770 OFFCURVE",
"375 770 CURVE SMOOTH",
"42 770 LINE"
);
},
{
closed = 1;
nodes = (
"299 716 LINE",
"324 716 LINE SMOOTH",
"385 716 OFFCURVE",
"423 705 OFFCURVE",
"448 680 CURVE SMOOTH",
"473 655 OFFCURVE",
"486 612 OFFCURVE",
"486 551 CURVE SMOOTH",
"486 486 OFFCURVE",
"472 444 OFFCURVE",
"441 415 CURVE SMOOTH",
"411 387 OFFCURVE",
"368 374 OFFCURVE",
"306 374 CURVE SMOOTH",
"299 374 LINE"
);
}
);
width = 694;
}
);
leftKerningGroup = I;
unicode = 0050;
},
{
glyphname = Thorn;
layers = (
{
background = {
paths = (
{
closed = 1;
nodes = (
"134 607 LINE",
"134 42 LINE",
"49 23 LINE",
"49 0 LINE",
"353 0 LINE",
"353 23 LINE",
"239 42 LINE",
"239 167 LINE",
"345 167 LINE SMOOTH",
"519 167 OFFCURVE",
"627 241 OFFCURVE",
"627 378 CURVE SMOOTH",
"627 526 OFFCURVE",
"517 607 OFFCURVE",
"360 607 CURVE SMOOTH"
);
},
{
closed = 1;
nodes = (
"239 567 LINE",
"331 567 LINE SMOOTH",
"372 567 OFFCURVE",
"398 564 OFFCURVE",
"420 555 CURVE SMOOTH",
"478 532 OFFCURVE",
"512 474 OFFCURVE",
"512 388 CURVE SMOOTH",
"512 341 OFFCURVE",
"502 295 OFFCURVE",
"472 260 CURVE SMOOTH",
"443 226 OFFCURVE",
"398 206 OFFCURVE",
"314 206 CURVE SMOOTH",
"239 206 LINE"
);
},
{
closed = 1;
nodes = (
"353 747 LINE",
"353 770 LINE",
"49 770 LINE",
"49 747 LINE",
"134 728 LINE",
"134 585 LINE",
"239 585 LINE",
"239 728 LINE"
);
}
);
};
layerId = UUID0;
paths = (
{
closed = 1;
nodes = (
"353 747 LINE",
"353 770 LINE",
"49 770 LINE",
"49 747 LINE",
"134 728 LINE",
"134 42 LINE",
"49 23 LINE",
"49 0 LINE",
"353 0 LINE",
"353 23 LINE",
"239 42 LINE",
"239 167 LINE",
"345 167 LINE SMOOTH",
"519 167 OFFCURVE",
"627 241 OFFCURVE",
"627 378 CURVE SMOOTH",
"627 526 OFFCURVE",
"517 607 OFFCURVE",
"360 607 CURVE SMOOTH",
"239 607 LINE",
"239 728 LINE"
);
},
{
closed = 1;
nodes = (
"239 567 LINE",
"331 567 LINE SMOOTH",
"372 567 OFFCURVE",
"398 564 OFFCURVE",
"420 555 CURVE SMOOTH",
"478 532 OFFCURVE",
"512 474 OFFCURVE",
"512 388 CURVE SMOOTH",
"512 341 OFFCURVE",
"502 295 OFFCURVE",
"472 260 CURVE SMOOTH",
"443 226 OFFCURVE",
"398 206 OFFCURVE",
"314 206 CURVE SMOOTH",
"239 206 LINE"
);
}
);
width = 665;
},
{
background = {
paths = (
{
closed = 1;
nodes = (
"127 613 LINE",
"127 59 LINE",
"42 37 LINE",
"42 0 LINE",
"424 0 LINE",
"424 37 LINE",
"299 59 LINE",
"299 163 LINE",
"359 163 LINE SMOOTH",
"556 163 OFFCURVE",
"669 244 OFFCURVE",
"669 385 CURVE SMOOTH",
"669 525 OFFCURVE",
"555 613 OFFCURVE",
"375 613 CURVE SMOOTH"
);
},
{
closed = 1;
nodes = (
"299 559 LINE",
"324 559 LINE SMOOTH",
"385 559 OFFCURVE",
"423 548 OFFCURVE",
"448 523 CURVE SMOOTH",
"473 498 OFFCURVE",
"486 455 OFFCURVE",
"486 394 CURVE SMOOTH",
"486 329 OFFCURVE",
"472 287 OFFCURVE",
"441 258 CURVE SMOOTH",
"411 230 OFFCURVE",
"368 217 OFFCURVE",
"306 217 CURVE SMOOTH",
"299 217 LINE"
);
},
{
closed = 1;
nodes = (
"424 733 LINE",
"424 770 LINE",
"42 770 LINE",
"42 733 LINE",
"127 711 LINE",
"127 578 LINE",
"299 588 LINE",
"299 711 LINE"
);
}
);
};
layerId = "1CCFBABC-759F-491A-B184-EA51E5B5BC4A";
paths = (
{
closed = 1;
nodes = (
"424 733 LINE",
"424 770 LINE",
"42 770 LINE",
"42 733 LINE",
"127 711 LINE",
"127 59 LINE",
"42 37 LINE",
"42 0 LINE",
"424 0 LINE",
"424 37 LINE",
"299 59 LINE",
"299 163 LINE",
"359 163 LINE SMOOTH",
"556 163 OFFCURVE",
"669 244 OFFCURVE",
"669 385 CURVE SMOOTH",
"669 525 OFFCURVE",
"555 613 OFFCURVE",
"375 613 CURVE SMOOTH",
"299 613 LINE",
"299 711 LINE"
);
},
{
closed = 1;
nodes = (
"299 559 LINE",
"324 559 LINE SMOOTH",
"385 559 OFFCURVE",
"423 548 OFFCURVE",
"448 523 CURVE SMOOTH",
"473 498 OFFCURVE",
"486 455 OFFCURVE",
"486 394 CURVE SMOOTH",
"486 329 OFFCURVE",
"472 287 OFFCURVE",
"441 258 CURVE SMOOTH",
"411 230 OFFCURVE",
"368 217 OFFCURVE",
"306 217 CURVE SMOOTH",
"299 217 LINE"
);
}
);
width = 696;
}
);
leftKerningGroup = I;
unicode = 00DE;
},
{
glyphname = Q;
layers = (
{
background = {
paths = (
{
closed = 1;
nodes = (
"211 780 OFFCURVE",
"55 610 OFFCURVE",
"55 385 CURVE SMOOTH",
"55 166 OFFCURVE",
"201 0 OFFCURVE",
"418 0 CURVE SMOOTH",
"635 0 OFFCURVE",
"781 166 OFFCURVE",
"781 385 CURVE SMOOTH",
"781 610 OFFCURVE",
"625 780 OFFCURVE",
"418 780 CURVE SMOOTH"
);
},
{
closed = 1;
nodes = (
"181 605 OFFCURVE",
"270 735 OFFCURVE",
"419 735 CURVE SMOOTH",
"567 735 OFFCURVE",
"655 606 OFFCURVE",
"655 387 CURVE SMOOTH",
"655 167 OFFCURVE",
"566 35 OFFCURVE",
"418 35 CURVE SMOOTH",
"270 35 OFFCURVE",
"181 167 OFFCURVE",
"181 386 CURVE SMOOTH"
);
},
{
closed = 1;
nodes = (
"329 18 LINE",
"254 -8 OFFCURVE",
"206 -54 OFFCURVE",
"206 -105 CURVE SMOOTH",
"206 -138 OFFCURVE",
"226 -160 OFFCURVE",
"256 -160 CURVE SMOOTH",
"285 -160 OFFCURVE",
"307 -139 OFFCURVE",
"307 -110 CURVE SMOOTH",
"307 -85 OFFCURVE",
"290 -80 OFFCURVE",
"290 -57 CURVE SMOOTH",
"290 -32 OFFCURVE",
"309 -12 OFFCURVE",
"352 -12 CURVE SMOOTH",
"470 -12 OFFCURVE",
"505 -164 OFFCURVE",
"630 -164 CURVE SMOOTH",
"699 -164 OFFCURVE",
"767 -118 OFFCURVE",
"808 -24 CURVE",
"781 -14 LINE",
"754 -50 OFFCURVE",
"728 -67 OFFCURVE",
"683 -67 CURVE SMOOTH",
"590 -67 OFFCURVE",
"522 1 OFFCURVE",
"443 8 CURVE SMOOTH"
);
}
);
};
layerId = UUID0;
paths = (
{
closed = 1;
nodes = (
"211 780 OFFCURVE",
"55 610 OFFCURVE",
"55 385 CURVE SMOOTH",
"55 203 OFFCURVE",
"160 51 OFFCURVE",
"316 17 CURVE",
"316 13 LINE",
"248 -13 OFFCURVE",
"206 -57 OFFCURVE",
"206 -105 CURVE SMOOTH",
"206 -138 OFFCURVE",
"226 -160 OFFCURVE",
"256 -160 CURVE SMOOTH",
"285 -160 OFFCURVE",
"307 -139 OFFCURVE",
"307 -110 CURVE SMOOTH",
"307 -85 OFFCURVE",
"290 -80 OFFCURVE",
"290 -57 CURVE SMOOTH",
"290 -32 OFFCURVE",
"309 -12 OFFCURVE",
"352 -12 CURVE SMOOTH",
"470 -12 OFFCURVE",
"505 -164 OFFCURVE",
"630 -164 CURVE SMOOTH",
"699 -164 OFFCURVE",
"767 -118 OFFCURVE",
"808 -24 CURVE",
"781 -14 LINE",
"754 -50 OFFCURVE",
"728 -67 OFFCURVE",
"683 -67 CURVE SMOOTH",
"600 -67 OFFCURVE",
"537 -13 OFFCURVE",
"469 3 CURVE",
"469 7 LINE",
"655 22 OFFCURVE",
"781 186 OFFCURVE",
"781 385 CURVE SMOOTH",
"781 610 OFFCURVE",
"625 780 OFFCURVE",
"418 780 CURVE SMOOTH"
);
},
{
closed = 1;
nodes = (
"181 605 OFFCURVE",
"270 735 OFFCURVE",
"419 735 CURVE SMOOTH",
"567 735 OFFCURVE",
"655 606 OFFCURVE",
"655 387 CURVE SMOOTH",
"655 167 OFFCURVE",
"566 35 OFFCURVE",
"418 35 CURVE SMOOTH",
"270 35 OFFCURVE",
"181 167 OFFCURVE",
"181 386 CURVE SMOOTH"
);
}
);
width = 836;
},
{
background = {
paths = (
{
closed = 1;
nodes = (
"184 780 OFFCURVE",
"45 602 OFFCURVE",
"45 385 CURVE SMOOTH",
"45 212 OFFCURVE",
"138 64 OFFCURVE",
"300 11 CURVE",
"300 7 LINE",
"230 -21 OFFCURVE",
"187 -64 OFFCURVE",
"187 -118 CURVE SMOOTH",
"187 -162 OFFCURVE",
"215 -195 OFFCURVE",
"257 -195 CURVE SMOOTH",
"298 -195 OFFCURVE",
"329 -165 OFFCURVE",
"329 -126 CURVE SMOOTH",
"329 -96 OFFCURVE",
"310 -87 OFFCURVE",
"310 -64 CURVE SMOOTH",
"310 -37 OFFCURVE",
"335 -22 OFFCURVE",
"369 -22 CURVE SMOOTH",
"496 -22 OFFCURVE",
"521 -194 OFFCURVE",
"652 -194 CURVE SMOOTH",
"725 -194 OFFCURVE",
"801 -140 OFFCURVE",
"845 -34 CURVE",
"815 -14 LINE",
"783 -46 OFFCURVE",
"751 -57 OFFCURVE",
"710 -57 CURVE SMOOTH",
"636 -57 OFFCURVE",
"578 -24 OFFCURVE",
"517 -5 CURVE",
"517 -1 LINE",
"713 35 OFFCURVE",
"824 194 OFFCURVE",
"824 385 CURVE SMOOTH",
"824 602 OFFCURVE",
"685 780 OFFCURVE",
"434 780 CURVE SMOOTH"
);
},
{
closed = 1;
nodes = (
"242 522 OFFCURVE",
"272 720 OFFCURVE",
"435 720 CURVE SMOOTH",
"598 720 OFFCURVE",
"627 522 OFFCURVE",
"627 385 CURVE SMOOTH",
"627 242 OFFCURVE",
"596 38 OFFCURVE",
"434 38 CURVE SMOOTH",
"273 38 OFFCURVE",
"242 242 OFFCURVE",
"242 383 CURVE SMOOTH"
);
}
);
};
layerId = "1CCFBABC-759F-491A-B184-EA51E5B5BC4A";
paths = (
{
closed = 1;
nodes = (
"184 780 OFFCURVE",
"45 602 OFFCURVE",
"45 385 CURVE SMOOTH",
"45 212 OFFCURVE",
"138 64 OFFCURVE",
"300 11 CURVE",
"300 7 LINE",
"230 -21 OFFCURVE",
"187 -64 OFFCURVE",
"187 -118 CURVE SMOOTH",
"187 -162 OFFCURVE",
"215 -195 OFFCURVE",
"257 -195 CURVE SMOOTH",
"298 -195 OFFCURVE",
"329 -165 OFFCURVE",
"329 -126 CURVE SMOOTH",
"329 -96 OFFCURVE",
"310 -87 OFFCURVE",
"310 -64 CURVE SMOOTH",
"310 -37 OFFCURVE",
"335 -22 OFFCURVE",
"369 -22 CURVE SMOOTH",
"496 -22 OFFCURVE",
"521 -194 OFFCURVE",
"652 -194 CURVE SMOOTH",
"725 -194 OFFCURVE",
"801 -140 OFFCURVE",
"845 -34 CURVE",
"815 -14 LINE",
"783 -46 OFFCURVE",
"751 -57 OFFCURVE",
"710 -57 CURVE SMOOTH",
"636 -57 OFFCURVE",
"578 -24 OFFCURVE",
"517 -5 CURVE",
"517 -1 LINE",
"713 35 OFFCURVE",
"824 194 OFFCURVE",
"824 385 CURVE SMOOTH",
"824 602 OFFCURVE",
"685 780 OFFCURVE",
"434 780 CURVE SMOOTH"
);
},
{
closed = 1;
nodes = (
"242 522 OFFCURVE",
"272 720 OFFCURVE",
"435 720 CURVE SMOOTH",
"598 720 OFFCURVE",
"627 522 OFFCURVE",
"627 385 CURVE SMOOTH",
"627 242 OFFCURVE",
"596 38 OFFCURVE",
"434 38 CURVE SMOOTH",
"273 38 OFFCURVE",
"242 242 OFFCURVE",
"242 383 CURVE SMOOTH"
);
}
);
width = 869;
}
);
leftKerningGroup = O;
rightKerningGroup = O;
unicode = 0051;
},
{
glyphname = R;
layers = (
{
anchors = (
{
name = bottom;
position = "{396, 0}";
},
{
name = topcap;
position = "{368, 830}";
}
);
background = {
paths = (
{
closed = 1;
nodes = (
"49 747 LINE",
"134 728 LINE",
"134 42 LINE",
"49 23 LINE",
"49 0 LINE",
"353 0 LINE",
"353 23 LINE",
"239 42 LINE",
"239 350 LINE",
"335 350 LINE SMOOTH",
"509 350 OFFCURVE",
"617 420 OFFCURVE",
"617 551 CURVE SMOOTH",
"617 693 OFFCURVE",
"507 770 OFFCURVE",
"350 770 CURVE SMOOTH",
"49 770 LINE"
);
},
{
closed = 1;
nodes = (
"239 730 LINE",
"321 730 LINE SMOOTH",
"362 730 OFFCURVE",
"387 727 OFFCURVE",
"410 718 CURVE SMOOTH",
"468 695 OFFCURVE",
"502 642 OFFCURVE",
"502 561 CURVE SMOOTH",
"502 518 OFFCURVE",
"491 476 OFFCURVE",
"462 443 CURVE SMOOTH",
"432 410 OFFCURVE",
"388 389 OFFCURVE",
"304 389 CURVE SMOOTH",
"239 389 LINE"
);
},
{
closed = 1;
nodes = (
"333 354 LINE",
"559 0 LINE",
"776 0 LINE",
"776 23 LINE",
"662 42 LINE",
"427 395 LINE"
);
}
);
};
layerId = UUID0;
paths = (
{
closed = 1;
nodes = (
"49 0 LINE",
"353 0 LINE",
"353 23 LINE",
"239 42 LINE",
"239 350 LINE",
"335 350 LINE",
"559 0 LINE",
"776 0 LINE",
"776 23 LINE",
"662 42 LINE",
"449 362 LINE",
"555 387 OFFCURVE",
"617 451 OFFCURVE",
"617 551 CURVE SMOOTH",
"617 693 OFFCURVE",
"507 770 OFFCURVE",
"350 770 CURVE SMOOTH",
"49 770 LINE",
"49 747 LINE",
"134 728 LINE",
"134 42 LINE",
"49 23 LINE"
);
},
{
closed = 1;
nodes = (
"239 389 LINE",
"239 730 LINE",
"321 730 LINE SMOOTH",
"362 730 OFFCURVE",
"387 727 OFFCURVE",
"410 718 CURVE SMOOTH",
"468 695 OFFCURVE",
"502 642 OFFCURVE",
"502 561 CURVE SMOOTH",
"502 518 OFFCURVE",
"491 476 OFFCURVE",
"462 443 CURVE SMOOTH",
"432 410 OFFCURVE",
"388 389 OFFCURVE",
"304 389 CURVE SMOOTH"
);
}
);
width = 733;
},
{
background = {
paths = (
{
closed = 1;
nodes = (
"42 733 LINE",
"127 712 LINE",
"127 59 LINE",
"42 37 LINE",
"42 0 LINE",
"413 0 LINE",
"413 37 LINE",
"299 59 LINE",
"299 335 LINE",
"388 335 LINE SMOOTH",
"562 335 OFFCURVE",
"670 410 OFFCURVE",
"670 551 CURVE SMOOTH",
"670 693 OFFCURVE",
"560 770 OFFCURVE",
"403 770 CURVE SMOOTH",
"42 770 LINE"
);
},
{
closed = 1;
nodes = (
"299 716 LINE",
"320 716 LINE SMOOTH",
"361 716 OFFCURVE",
"385 712 OFFCURVE",
"408 703 CURVE SMOOTH",
"459 682 OFFCURVE",
"495 633 OFFCURVE",
"495 561 CURVE SMOOTH",
"495 518 OFFCURVE",
"484 476 OFFCURVE",
"455 443 CURVE SMOOTH",
"427 410 OFFCURVE",
"386 389 OFFCURVE",
"313 389 CURVE SMOOTH",
"299 389 LINE"
);
},
{
closed = 1;
nodes = (
"337 341 LINE",
"541 0 LINE",
"814 0 LINE",
"814 37 LINE",
"723 56 LINE",
"501 402 LINE"
);
}
);
};
layerId = "1CCFBABC-759F-491A-B184-EA51E5B5BC4A";
paths = (
{
closed = 1;
nodes = (
"42 0 LINE",
"413 0 LINE",
"413 37 LINE",
"299 59 LINE",
"299 335 LINE",
"340 335 LINE",
"541 0 LINE",
"814 0 LINE",
"814 37 LINE",
"723 56 LINE",
"530 356 LINE",
"619 388 OFFCURVE",
"670 454 OFFCURVE",
"670 551 CURVE SMOOTH",
"670 693 OFFCURVE",
"560 770 OFFCURVE",
"403 770 CURVE SMOOTH",
"42 770 LINE",
"42 733 LINE",
"127 712 LINE",
"127 59 LINE",
"42 37 LINE"
);
},
{
closed = 1;
nodes = (
"299 389 LINE",
"299 716 LINE",
"320 716 LINE SMOOTH",
"361 716 OFFCURVE",
"385 712 OFFCURVE",
"408 703 CURVE SMOOTH",
"459 682 OFFCURVE",
"495 633 OFFCURVE",
"495 561 CURVE SMOOTH",
"495 518 OFFCURVE",
"484 476 OFFCURVE",
"455 443 CURVE SMOOTH",
"427 410 OFFCURVE",
"386 389 OFFCURVE",
"313 389 CURVE SMOOTH"
);
}
);
width = 778;
}
);
leftKerningGroup = I;
rightKerningGroup = R;
unicode = 0052;
},
{
glyphname = S;
layers = (
{
anchors = (
{
name = bottom;
position = "{303, 0}";
},
{
name = topcap;
position = "{308, 830}";
}
);
background = {
paths = (
{
closed = 1;
nodes = (
"175 780 OFFCURVE",
"79 690 OFFCURVE",
"79 569 CURVE SMOOTH",
"79 333 OFFCURVE",
"447 355 OFFCURVE",
"447 158 CURVE SMOOTH",
"447 81 OFFCURVE",
"390 34 OFFCURVE",
"298 34 CURVE SMOOTH",
"189 34 OFFCURVE",
"128 101 OFFCURVE",
"88 262 CURVE",
"63 256 LINE",
"81 0 LINE",
"101 0 LINE",
"141 41 LINE",
"198 6 OFFCURVE",
"247 -9 OFFCURVE",
"301 -9 CURVE SMOOTH",
"435 -9 OFFCURVE",
"539 89 OFFCURVE",
"539 217 CURVE SMOOTH",
"539 455 OFFCURVE",
"184 428 OFFCURVE",
"184 623 CURVE SMOOTH",
"184 694 OFFCURVE",
"231 737 OFFCURVE",
"307 737 CURVE SMOOTH",
"398 737 OFFCURVE",
"456 677 OFFCURVE",
"488 550 CURVE",
"514 550 LINE",
"505 770 LINE",
"485 770 LINE",
"453 718 LINE",
"409 760 OFFCURVE",
"362 780 OFFCURVE",
"302 780 CURVE SMOOTH"
);
}
);
};
layerId = UUID0;
paths = (
{
closed = 1;
nodes = (
"175 780 OFFCURVE",
"79 690 OFFCURVE",
"79 569 CURVE SMOOTH",
"79 333 OFFCURVE",
"447 355 OFFCURVE",
"447 158 CURVE SMOOTH",
"447 81 OFFCURVE",
"390 34 OFFCURVE",
"298 34 CURVE SMOOTH",
"189 34 OFFCURVE",
"128 101 OFFCURVE",
"88 262 CURVE",
"63 256 LINE",
"81 0 LINE",
"101 0 LINE",
"141 41 LINE",
"198 6 OFFCURVE",
"247 -9 OFFCURVE",
"301 -9 CURVE SMOOTH",
"435 -9 OFFCURVE",
"539 89 OFFCURVE",
"539 217 CURVE SMOOTH",
"539 455 OFFCURVE",
"184 428 OFFCURVE",
"184 623 CURVE SMOOTH",
"184 694 OFFCURVE",
"231 737 OFFCURVE",
"307 737 CURVE SMOOTH",
"398 737 OFFCURVE",
"456 677 OFFCURVE",
"488 550 CURVE",
"514 550 LINE",
"505 770 LINE",
"485 770 LINE",
"453 718 LINE",
"409 760 OFFCURVE",
"362 780 OFFCURVE",
"302 780 CURVE SMOOTH"
);
}
);
width = 599;
},
{
background = {
paths = (
{
closed = 1;
nodes = (
"180 780 OFFCURVE",
"70 691 OFFCURVE",
"70 569 CURVE SMOOTH",
"70 298 OFFCURVE",
"461 311 OFFCURVE",
"461 163 CURVE SMOOTH",
"461 92 OFFCURVE",
"407 49 OFFCURVE",
"322 49 CURVE SMOOTH",
"204 49 OFFCURVE",
"138 113 OFFCURVE",
"95 263 CURVE",
"53 256 LINE",
"73 0 LINE",
"104 0 LINE",
"139 41 LINE",
"206 6 OFFCURVE",
"262 -9 OFFCURVE",
"324 -9 CURVE SMOOTH",
"478 -9 OFFCURVE",
"596 89 OFFCURVE",
"596 218 CURVE SMOOTH",
"596 494 OFFCURVE",
"222 475 OFFCURVE",
"222 626 CURVE SMOOTH",
"222 685 OFFCURVE",
"263 721 OFFCURVE",
"332 721 CURVE SMOOTH",
"429 721 OFFCURVE",
"492 663 OFFCURVE",
"525 550 CURVE",
"569 550 LINE",
"559 771 LINE",
"526 771 LINE",
"502 718 LINE",
"452 760 OFFCURVE",
"395 780 OFFCURVE",
"326 780 CURVE SMOOTH"
);
}
);
};
layerId = "1CCFBABC-759F-491A-B184-EA51E5B5BC4A";
paths = (
{
closed = 1;
nodes = (
"180 780 OFFCURVE",
"70 691 OFFCURVE",
"70 569 CURVE SMOOTH",
"70 298 OFFCURVE",
"461 311 OFFCURVE",
"461 163 CURVE SMOOTH",
"461 92 OFFCURVE",
"407 49 OFFCURVE",
"322 49 CURVE SMOOTH",
"204 49 OFFCURVE",
"138 113 OFFCURVE",
"95 263 CURVE",
"53 256 LINE",
"73 0 LINE",
"104 0 LINE",
"139 41 LINE",
"206 6 OFFCURVE",
"262 -9 OFFCURVE",
"324 -9 CURVE SMOOTH",
"478 -9 OFFCURVE",
"596 89 OFFCURVE",
"596 218 CURVE SMOOTH",
"596 494 OFFCURVE",
"222 475 OFFCURVE",
"222 626 CURVE SMOOTH",
"222 685 OFFCURVE",
"263 721 OFFCURVE",
"332 721 CURVE SMOOTH",
"429 721 OFFCURVE",
"492 663 OFFCURVE",
"525 550 CURVE",
"569 550 LINE",
"559 771 LINE",
"526 771 LINE",
"502 718 LINE",
"452 760 OFFCURVE",
"395 780 OFFCURVE",
"326 780 CURVE SMOOTH"
);
}
);
width = 647;
}
);
leftKerningGroup = S;
rightKerningGroup = S;
unicode = 0053;
},
{
glyphname = Schwa;
layers = (
{
background = {
paths = (
{
closed = 1;
nodes = (
"47 315 LINE",
"51 102 OFFCURVE",
"153 -10 OFFCURVE",
"342 -10 CURVE SMOOTH",
"565 -10 OFFCURVE",
"716 155 OFFCURVE",
"716 397 CURVE SMOOTH",
"716 626 OFFCURVE",
"581 781 OFFCURVE",
"382 781 CURVE SMOOTH",
"241 781 OFFCURVE",
"117 706 OFFCURVE",
"71 593 CURVE SMOOTH",
"63 573 LINE",
"87 558 LINE",
"104 580 LINE SMOOTH",
"162 657 OFFCURVE",
"240 696 OFFCURVE",
"337 696 CURVE SMOOTH",
"501 696 OFFCURVE",
"590 577 OFFCURVE",
"590 361 CURVE SMOOTH",
"590 151 OFFCURVE",
"506 35 OFFCURVE",
"353 35 CURVE SMOOTH",
"238 35 OFFCURVE",
"178 95 OFFCURVE",
"178 209 CURVE SMOOTH",
"178 238 OFFCURVE",
"182 258 OFFCURVE",
"182 271 CURVE",
"601 285 LINE",
"601 324 LINE",
"57 324 LINE"
);
}
);
};
layerId = UUID0;
paths = (
{
closed = 1;
nodes = (
"47 315 LINE",
"51 102 OFFCURVE",
"153 -10 OFFCURVE",
"342 -10 CURVE SMOOTH",
"565 -10 OFFCURVE",
"716 155 OFFCURVE",
"716 397 CURVE SMOOTH",
"716 626 OFFCURVE",
"581 781 OFFCURVE",
"382 781 CURVE SMOOTH",
"241 781 OFFCURVE",
"117 706 OFFCURVE",
"71 593 CURVE SMOOTH",
"63 573 LINE",
"87 558 LINE",
"104 580 LINE SMOOTH",
"162 657 OFFCURVE",
"240 696 OFFCURVE",
"337 696 CURVE SMOOTH",
"501 696 OFFCURVE",
"590 577 OFFCURVE",
"590 361 CURVE SMOOTH",
"590 151 OFFCURVE",
"506 35 OFFCURVE",
"353 35 CURVE SMOOTH",
"238 35 OFFCURVE",
"178 95 OFFCURVE",
"178 209 CURVE SMOOTH",
"178 238 OFFCURVE",
"182 258 OFFCURVE",
"182 271 CURVE",
"601 285 LINE",
"601 324 LINE",
"57 324 LINE"
);
}
);
width = 772;
},
{
background = {
paths = (
{
closed = 1;
nodes = (
"33 315 LINE",
"36 106 OFFCURVE",
"148 -10 OFFCURVE",
"349 -10 CURVE SMOOTH",
"587 -10 OFFCURVE",
"746 153 OFFCURVE",
"746 396 CURVE SMOOTH",
"746 626 OFFCURVE",
"604 781 OFFCURVE",
"395 781 CURVE SMOOTH",
"247 781 OFFCURVE",
"112 704 OFFCURVE",
"68 593 CURVE SMOOTH",
"60 573 LINE",
"90 553 LINE",
"108 575 LINE SMOOTH",
"158 636 OFFCURVE",
"248 676 OFFCURVE",
"337 676 CURVE SMOOTH",
"480 676 OFFCURVE",
"551 571 OFFCURVE",
"551 360 CURVE SMOOTH",
"551 157 OFFCURVE",
"485 50 OFFCURVE",
"359 50 CURVE SMOOTH",
"270 50 OFFCURVE",
"221 105 OFFCURVE",
"221 205 CURVE SMOOTH",
"221 222 OFFCURVE",
"223 243 OFFCURVE",
"225 259 CURVE",
"625 273 LINE",
"625 324 LINE",
"44 324 LINE"
);
}
);
};
layerId = "1CCFBABC-759F-491A-B184-EA51E5B5BC4A";
paths = (
{
closed = 1;
nodes = (
"33 315 LINE",
"36 106 OFFCURVE",
"148 -10 OFFCURVE",
"349 -10 CURVE SMOOTH",
"587 -10 OFFCURVE",
"746 153 OFFCURVE",
"746 396 CURVE SMOOTH",
"746 626 OFFCURVE",
"604 781 OFFCURVE",
"395 781 CURVE SMOOTH",
"247 781 OFFCURVE",
"112 704 OFFCURVE",
"68 593 CURVE SMOOTH",
"60 573 LINE",
"90 553 LINE",
"108 575 LINE SMOOTH",
"158 636 OFFCURVE",
"248 676 OFFCURVE",
"337 676 CURVE SMOOTH",
"480 676 OFFCURVE",
"551 571 OFFCURVE",
"551 360 CURVE SMOOTH",
"551 157 OFFCURVE",
"485 50 OFFCURVE",
"359 50 CURVE SMOOTH",
"270 50 OFFCURVE",
"221 105 OFFCURVE",
"221 205 CURVE SMOOTH",
"221 222 OFFCURVE",
"223 243 OFFCURVE",
"225 259 CURVE",
"625 273 LINE",
"625 324 LINE",
"44 324 LINE"
);
}
);
width = 792;
}
);
rightKerningGroup = O;
unicode = 018F;
},
{
glyphname = T;
layers = (
{
anchors = (
{
name = bottom;
position = "{379, -2}";
},
{
name = topcap;
position = "{379, 830}";
}
);
background = {
paths = (
{
closed = 1;
nodes = (
"326 42 LINE",
"216 23 LINE",
"216 0 LINE",
"540 0 LINE",
"540 23 LINE",
"431 42 LINE",
"431 765 LINE",
"326 765 LINE"
);
},
{
closed = 1;
nodes = (
"342 730 LINE",
"629 730 LINE",
"672 673 OFFCURVE",
"701 607 OFFCURVE",
"721 550 CURVE",
"745 550 LINE",
"708 770 LINE",
"354 770 LINE"
);
},
{
closed = 1;
nodes = (
"400 770 LINE",
"46 770 LINE",
"9 550 LINE",
"33 550 LINE",
"53 607 OFFCURVE",
"82 673 OFFCURVE",
"125 730 CURVE",
"412 730 LINE"
);
}
);
};
layerId = UUID0;
paths = (
{
closed = 1;
nodes = (
"216 0 LINE",
"540 0 LINE",
"540 23 LINE",
"431 42 LINE",
"431 730 LINE",
"629 730 LINE",
"672 673 OFFCURVE",
"701 607 OFFCURVE",
"721 550 CURVE",
"745 550 LINE",
"708 770 LINE",
"46 770 LINE",
"9 550 LINE",
"33 550 LINE",
"53 607 OFFCURVE",
"82 673 OFFCURVE",
"125 730 CURVE",
"326 730 LINE",
"326 42 LINE",
"216 23 LINE"
);
}
);
width = 754;
},
{
background = {
paths = (
{
closed = 1;
nodes = (
"305 59 LINE",
"185 37 LINE",
"185 0 LINE",
"595 0 LINE",
"595 37 LINE",
"476 59 LINE",
"476 765 LINE",
"305 765 LINE"
);
},
{
closed = 1;
nodes = (
"354 715 LINE",
"639 715 LINE",
"682 660 OFFCURVE",
"708 595 OFFCURVE",
"728 540 CURVE",
"767 540 LINE",
"730 770 LINE",
"366 770 LINE"
);
},
{
closed = 1;
nodes = (
"412 770 LINE",
"48 770 LINE",
"11 540 LINE",
"50 540 LINE",
"70 595 OFFCURVE",
"99 660 OFFCURVE",
"142 715 CURVE",
"424 715 LINE"
);
}
);
};
layerId = "1CCFBABC-759F-491A-B184-EA51E5B5BC4A";
paths = (
{
closed = 1;
nodes = (
"185 0 LINE",
"595 0 LINE",
"595 37 LINE",
"476 59 LINE",
"476 715 LINE",
"639 715 LINE",
"682 660 OFFCURVE",
"708 595 OFFCURVE",
"728 540 CURVE",
"767 540 LINE",
"730 770 LINE",
"48 770 LINE",
"11 540 LINE",
"50 540 LINE",
"70 595 OFFCURVE",
"99 660 OFFCURVE",
"142 715 CURVE",
"305 715 LINE",
"305 59 LINE",
"185 37 LINE"
);
}
);
width = 778;
}
);
leftKerningGroup = T;
rightKerningGroup = T;
unicode = 0054;
},
{
glyphname = Tbar;
layers = (
{
background = {
paths = (
{
closed = 1;
nodes = (
"591 377 LINE",
"591 442 LINE",
"166 442 LINE",
"166 377 LINE"
);
}
);
};
components = (
{
name = T;
}
);
layerId = UUID0;
paths = (
{
closed = 1;
nodes = (
"591 377 LINE",
"591 442 LINE",
"166 442 LINE",
"166 377 LINE"
);
}
);
width = 754;
},
{
background = {
paths = (
{
closed = 1;
nodes = (
"637 367 LINE",
"637 452 LINE",
"147 452 LINE",
"147 367 LINE"
);
}
);
};
components = (
{
name = T;
transform = "{1, 0, 0, 1, 1, 0}";
}
);
layerId = "1CCFBABC-759F-491A-B184-EA51E5B5BC4A";
paths = (
{
closed = 1;
nodes = (
"637 367 LINE",
"637 452 LINE",
"147 452 LINE",
"147 367 LINE"
);
}
);
width = 780;
}
);
leftKerningGroup = T;
rightKerningGroup = T;
unicode = 0166;
},
{
glyphname = U;
layers = (
{
anchors = (
{
name = bottom;
position = "{401, 0}";
},
{
name = topcap;
position = "{426, 830}";
}
);
background = {
paths = (
{
closed = 1;
nodes = (
"228 728 LINE",
"317 747 LINE",
"317 770 LINE",
"33 770 LINE",
"33 747 LINE",
"123 728 LINE",
"123 242 LINE SMOOTH",
"123 159 OFFCURVE",
"136 117 OFFCURVE",
"162 82 CURVE SMOOTH",
"206 24 OFFCURVE",
"290 -10 OFFCURVE",
"393 -10 CURVE SMOOTH",
"494 -10 OFFCURVE",
"573 23 OFFCURVE",
"612 80 CURVE SMOOTH",
"638 119 OFFCURVE",
"650 174 OFFCURVE",
"650 258 CURVE SMOOTH",
"650 728 LINE",
"740 747 LINE",
"740 770 LINE",
"521 770 LINE",
"521 747 LINE",
"610 728 LINE",
"610 300 LINE SMOOTH",
"610 194 OFFCURVE",
"599 133 OFFCURVE",
"572 97 CURVE SMOOTH",
"542 56 OFFCURVE",
"486 35 OFFCURVE",
"414 35 CURVE SMOOTH",
"301 35 OFFCURVE",
"228 100 OFFCURVE",
"228 227 CURVE SMOOTH"
);
}
);
};
layerId = UUID0;
paths = (
{
closed = 1;
nodes = (
"228 728 LINE",
"317 747 LINE",
"317 770 LINE",
"33 770 LINE",
"33 747 LINE",
"123 728 LINE",
"123 242 LINE SMOOTH",
"123 159 OFFCURVE",
"136 117 OFFCURVE",
"162 82 CURVE SMOOTH",
"206 24 OFFCURVE",
"290 -10 OFFCURVE",
"393 -10 CURVE SMOOTH",
"494 -10 OFFCURVE",
"573 23 OFFCURVE",
"612 80 CURVE SMOOTH",
"638 119 OFFCURVE",
"650 174 OFFCURVE",
"650 258 CURVE SMOOTH",
"650 728 LINE",
"740 747 LINE",
"740 770 LINE",
"521 770 LINE",
"521 747 LINE",
"610 728 LINE",
"610 300 LINE SMOOTH",
"610 194 OFFCURVE",
"599 133 OFFCURVE",
"572 97 CURVE SMOOTH",
"542 56 OFFCURVE",
"486 35 OFFCURVE",
"414 35 CURVE SMOOTH",
"301 35 OFFCURVE",
"228 100 OFFCURVE",
"228 227 CURVE SMOOTH"
);
}
);
width = 774;
},
{
background = {
paths = (
{
closed = 1;
nodes = (
"285 714 LINE",
"373 733 LINE",
"373 770 LINE",
"26 770 LINE",
"26 733 LINE",
"111 714 LINE",
"111 267 LINE SMOOTH",
"111 184 OFFCURVE",
"123 136 OFFCURVE",
"154 97 CURVE SMOOTH",
"207 28 OFFCURVE",
"302 -10 OFFCURVE",
"423 -10 CURVE SMOOTH",
"539 -10 OFFCURVE",
"618 25 OFFCURVE",
"664 96 CURVE SMOOTH",
"694 143 OFFCURVE",
"710 207 OFFCURVE",
"710 283 CURVE SMOOTH",
"710 714 LINE",
"799 733 LINE",
"799 770 LINE",
"553 770 LINE",
"553 733 LINE",
"641 714 LINE",
"641 340 LINE SMOOTH",
"641 224 OFFCURVE",
"628 158 OFFCURVE",
"597 115 CURVE SMOOTH",
"567 74 OFFCURVE",
"520 52 OFFCURVE",
"459 52 CURVE SMOOTH",
"348 52 OFFCURVE",
"285 131 OFFCURVE",
"285 267 CURVE SMOOTH"
);
}
);
};
layerId = "1CCFBABC-759F-491A-B184-EA51E5B5BC4A";
paths = (
{
closed = 1;
nodes = (
"285 714 LINE",
"373 733 LINE",
"373 770 LINE",
"26 770 LINE",
"26 733 LINE",
"111 714 LINE",
"111 267 LINE SMOOTH",
"111 184 OFFCURVE",
"123 136 OFFCURVE",
"154 97 CURVE SMOOTH",
"207 28 OFFCURVE",
"302 -10 OFFCURVE",
"423 -10 CURVE SMOOTH",
"539 -10 OFFCURVE",
"618 25 OFFCURVE",
"664 96 CURVE SMOOTH",
"694 143 OFFCURVE",
"710 207 OFFCURVE",
"710 283 CURVE SMOOTH",
"710 714 LINE",
"799 733 LINE",
"799 770 LINE",
"553 770 LINE",
"553 733 LINE",
"641 714 LINE",
"641 340 LINE SMOOTH",
"641 224 OFFCURVE",
"628 158 OFFCURVE",
"597 115 CURVE SMOOTH",
"567 74 OFFCURVE",
"520 52 OFFCURVE",
"459 52 CURVE SMOOTH",
"348 52 OFFCURVE",
"285 131 OFFCURVE",
"285 267 CURVE SMOOTH"
);
}
);
width = 821;
}
);
leftKerningGroup = U;
rightKerningGroup = U;
unicode = 0055;
},
{
glyphname = V;
layers = (
{
background = {
paths = (
{
closed = 1;
nodes = (
"372 -10 LINE",
"601 636 LINE SMOOTH",
"626 707 OFFCURVE",
"640 731 OFFCURVE",
"746 747 CURVE",
"746 770 LINE",
"465 770 LINE",
"465 747 LINE",
"541 737 OFFCURVE",
"567 719 OFFCURVE",
"567 685 CURVE SMOOTH",
"567 672 OFFCURVE",
"563 656 OFFCURVE",
"557 638 CURVE SMOOTH",
"399 183 LINE",
"394 183 LINE",
"225 670 LINE SMOOTH",
"219 688 OFFCURVE",
"212 706 OFFCURVE",
"212 716 CURVE SMOOTH",
"212 738 OFFCURVE",
"227 742 OFFCURVE",
"317 747 CURVE",
"317 770 LINE",
"-8 770 LINE",
"-8 747 LINE",
"62 742 OFFCURVE",
"77 732 OFFCURVE",
"94 686 CURVE SMOOTH",
"355 -10 LINE"
);
}
);
};
layerId = UUID0;
paths = (
{
closed = 1;
nodes = (
"372 -10 LINE",
"601 636 LINE SMOOTH",
"626 707 OFFCURVE",
"640 731 OFFCURVE",
"746 747 CURVE",
"746 770 LINE",
"465 770 LINE",
"465 747 LINE",
"541 737 OFFCURVE",
"567 719 OFFCURVE",
"567 685 CURVE SMOOTH",
"567 672 OFFCURVE",
"563 656 OFFCURVE",
"557 638 CURVE SMOOTH",
"399 183 LINE",
"394 183 LINE",
"225 670 LINE SMOOTH",
"219 688 OFFCURVE",
"212 706 OFFCURVE",
"212 716 CURVE SMOOTH",
"212 738 OFFCURVE",
"227 742 OFFCURVE",
"317 747 CURVE",
"317 770 LINE",
"-8 770 LINE",
"-8 747 LINE",
"62 742 OFFCURVE",
"77 732 OFFCURVE",
"94 686 CURVE SMOOTH",
"355 -10 LINE"
);
}
);
width = 721;
},
{
background = {
paths = (
{
closed = 1;
nodes = (
"418 -10 LINE",
"665 622 LINE SMOOTH",
"697 704 OFFCURVE",
"715 719 OFFCURVE",
"805 733 CURVE",
"805 770 LINE",
"496 770 LINE",
"496 733 LINE",
"578 722 OFFCURVE",
"607 705 OFFCURVE",
"607 669 CURVE SMOOTH",
"607 657 OFFCURVE",
"604 642 OFFCURVE",
"597 624 CURVE SMOOTH",
"455 254 LINE",
"449 254 LINE",
"300 666 LINE SMOOTH",
"296 677 OFFCURVE",
"294 686 OFFCURVE",
"294 694 CURVE SMOOTH",
"294 719 OFFCURVE",
"318 728 OFFCURVE",
"392 733 CURVE",
"392 770 LINE",
"-20 770 LINE",
"-20 733 LINE",
"51 728 OFFCURVE",
"69 717 OFFCURVE",
"88 672 CURVE SMOOTH",
"370 -10 LINE"
);
}
);
};
layerId = "1CCFBABC-759F-491A-B184-EA51E5B5BC4A";
paths = (
{
closed = 1;
nodes = (
"418 -10 LINE",
"665 622 LINE SMOOTH",
"697 704 OFFCURVE",
"715 719 OFFCURVE",
"805 733 CURVE",
"805 770 LINE",
"496 770 LINE",
"496 733 LINE",
"578 722 OFFCURVE",
"607 705 OFFCURVE",
"607 669 CURVE SMOOTH",
"607 657 OFFCURVE",
"604 642 OFFCURVE",
"597 624 CURVE SMOOTH",
"455 254 LINE",
"449 254 LINE",
"300 666 LINE SMOOTH",
"296 677 OFFCURVE",
"294 686 OFFCURVE",
"294 694 CURVE SMOOTH",
"294 719 OFFCURVE",
"318 728 OFFCURVE",
"392 733 CURVE",
"392 770 LINE",
"-20 770 LINE",
"-20 733 LINE",
"51 728 OFFCURVE",
"69 717 OFFCURVE",
"88 672 CURVE SMOOTH",
"370 -10 LINE"
);
}
);
width = 781;
}
);
unicode = 0056;
},
{
glyphname = W;
layers = (
{
anchors = (
{
name = topcap;
position = "{543, 830}";
}
);
background = {
paths = (
{
closed = 1;
nodes = (
"373 -10 LINE",
"540 513 LINE",
"736 -10 LINE",
"759 -10 LINE",
"965 636 LINE SMOOTH",
"988 708 OFFCURVE",
"1004 731 OFFCURVE",
"1110 747 CURVE",
"1110 770 LINE",
"829 770 LINE",
"829 747 LINE",
"906 736 OFFCURVE",
"930 720 OFFCURVE",
"930 686 CURVE SMOOTH",
"930 671 OFFCURVE",
"927 657 OFFCURVE",
"921 638 CURVE SMOOTH",
"780 183 LINE",
"775 183 LINE",
"606 670 LINE SMOOTH",
"599 689 OFFCURVE",
"595 703 OFFCURVE",
"595 714 CURVE SMOOTH",
"595 734 OFFCURVE",
"602 741 OFFCURVE",
"698 747 CURVE",
"698 770 LINE",
"373 770 LINE",
"373 747 LINE",
"443 742 OFFCURVE",
"458 732 OFFCURVE",
"475 686 CURVE SMOOTH",
"516 576 LINE",
"394 183 LINE",
"389 183 LINE",
"220 670 LINE SMOOTH",
"210 699 OFFCURVE",
"207 707 OFFCURVE",
"207 717 CURVE SMOOTH",
"207 735 OFFCURVE",
"218 740 OFFCURVE",
"312 747 CURVE",
"312 770 LINE",
"-13 770 LINE",
"-13 747 LINE",
"57 742 OFFCURVE",
"72 732 OFFCURVE",
"89 686 CURVE SMOOTH",
"350 -10 LINE"
);
}
);
};
layerId = UUID0;
paths = (
{
closed = 1;
nodes = (
"373 -10 LINE",
"540 513 LINE",
"736 -10 LINE",
"759 -10 LINE",
"965 636 LINE SMOOTH",
"988 708 OFFCURVE",
"1004 731 OFFCURVE",
"1110 747 CURVE",
"1110 770 LINE",
"829 770 LINE",
"829 747 LINE",
"906 736 OFFCURVE",
"930 720 OFFCURVE",
"930 686 CURVE SMOOTH",
"930 671 OFFCURVE",
"927 657 OFFCURVE",
"921 638 CURVE SMOOTH",
"780 183 LINE",
"775 183 LINE",
"606 670 LINE SMOOTH",
"599 689 OFFCURVE",
"595 703 OFFCURVE",
"595 714 CURVE SMOOTH",
"595 734 OFFCURVE",
"602 741 OFFCURVE",
"698 747 CURVE",
"698 770 LINE",
"373 770 LINE",
"373 747 LINE",
"443 742 OFFCURVE",
"458 732 OFFCURVE",
"475 686 CURVE SMOOTH",
"516 576 LINE",
"394 183 LINE",
"389 183 LINE",
"220 670 LINE SMOOTH",
"210 698 OFFCURVE",
"207 707 OFFCURVE",
"207 717 CURVE SMOOTH",
"207 735 OFFCURVE",
"218 740 OFFCURVE",
"312 747 CURVE",
"312 770 LINE",
"-13 770 LINE",
"-13 747 LINE",
"57 742 OFFCURVE",
"72 732 OFFCURVE",
"89 686 CURVE SMOOTH",
"350 -10 LINE"
);
}
);
width = 1090;
},
{
background = {
paths = (
{
closed = 1;
nodes = (
"407 -10 LINE",
"655 624 LINE",
"586 624 LINE",
"444 254 LINE",
"438 254 LINE",
"304 666 LINE SMOOTH",
"300 677 OFFCURVE",
"298 687 OFFCURVE",
"298 695 CURVE SMOOTH",
"298 719 OFFCURVE",
"311 728 OFFCURVE",
"396 733 CURVE",
"396 770 LINE",
"-16 770 LINE",
"-16 733 LINE",
"55 728 OFFCURVE",
"74 717 OFFCURVE",
"92 672 CURVE SMOOTH",
"359 -10 LINE"
);
},
{
closed = 1;
nodes = (
"852 -10 LINE",
"1099 622 LINE SMOOTH",
"1130 703 OFFCURVE",
"1152 720 OFFCURVE",
"1239 733 CURVE",
"1239 770 LINE",
"930 770 LINE",
"930 733 LINE",
"1013 723 OFFCURVE",
"1042 705 OFFCURVE",
"1042 671 CURVE SMOOTH",
"1042 658 OFFCURVE",
"1037 640 OFFCURVE",
"1031 624 CURVE SMOOTH",
"889 254 LINE",
"883 254 LINE",
"749 666 LINE SMOOTH",
"745 677 OFFCURVE",
"743 687 OFFCURVE",
"743 695 CURVE SMOOTH",
"743 721 OFFCURVE",
"768 729 OFFCURVE",
"841 733 CURVE",
"841 770 LINE",
"429 770 LINE",
"429 733 LINE",
"500 728 OFFCURVE",
"519 717 OFFCURVE",
"537 672 CURVE SMOOTH",
"804 -10 LINE"
);
}
);
};
layerId = "1CCFBABC-759F-491A-B184-EA51E5B5BC4A";
paths = (
{
closed = 1;
nodes = (
"407 -10 LINE",
"605 497 LINE",
"804 -10 LINE",
"852 -10 LINE",
"1099 622 LINE SMOOTH",
"1130 703 OFFCURVE",
"1152 720 OFFCURVE",
"1239 733 CURVE",
"1239 770 LINE",
"930 770 LINE",
"930 733 LINE",
"1013 723 OFFCURVE",
"1042 705 OFFCURVE",
"1042 671 CURVE SMOOTH",
"1042 658 OFFCURVE",
"1037 640 OFFCURVE",
"1031 624 CURVE SMOOTH",
"889 254 LINE",
"883 254 LINE",
"749 666 LINE SMOOTH",
"745 677 OFFCURVE",
"743 687 OFFCURVE",
"743 695 CURVE SMOOTH",
"743 721 OFFCURVE",
"768 729 OFFCURVE",
"841 733 CURVE",
"841 770 LINE",
"429 770 LINE",
"429 733 LINE",
"500 728 OFFCURVE",
"519 717 OFFCURVE",
"537 672 CURVE SMOOTH",
"571 585 LINE",
"444 254 LINE",
"438 254 LINE",
"304 666 LINE SMOOTH",
"300 677 OFFCURVE",
"298 687 OFFCURVE",
"298 695 CURVE SMOOTH",
"298 719 OFFCURVE",
"311 728 OFFCURVE",
"396 733 CURVE",
"396 770 LINE",
"-16 770 LINE",
"-16 733 LINE",
"55 728 OFFCURVE",
"74 717 OFFCURVE",
"92 672 CURVE SMOOTH",
"359 -10 LINE"
);
}
);
width = 1212;
}
);
leftKerningGroup = W;
rightKerningGroup = W;
unicode = 0057;
},
{
glyphname = X;
layers = (
{
background = {
paths = (
{
closed = 1;
nodes = (
"270 693 LINE SMOOTH",
"260 709 OFFCURVE",
"257 718 OFFCURVE",
"257 727 CURVE SMOOTH",
"257 738 OFFCURVE",
"267 744 OFFCURVE",
"326 747 CURVE",
"326 770 LINE",
"24 770 LINE",
"24 747 LINE",
"103 738 OFFCURVE",
"122 730 OFFCURVE",
"139 704 CURVE SMOOTH",
"551 76 LINE SMOOTH",
"563 58 OFFCURVE",
"567 49 OFFCURVE",
"567 42 CURVE SMOOTH",
"567 31 OFFCURVE",
"552 27 OFFCURVE",
"489 22 CURVE",
"489 0 LINE",
"789 0 LINE",
"789 22 LINE",
"727 27 OFFCURVE",
"701 35 OFFCURVE",
"681 65 CURVE SMOOTH"
);
},
{
closed = 1;
nodes = (
"375 406 LINE",
"141 91 LINE SMOOTH",
"107 45 OFFCURVE",
"67 30 OFFCURVE",
"-10 20 CURVE",
"-10 0 LINE",
"261 0 LINE",
"261 20 LINE",
"203 26 OFFCURVE",
"177 36 OFFCURVE",
"177 53 CURVE SMOOTH",
"177 62 OFFCURVE",
"182 76 OFFCURVE",
"194 92 CURVE SMOOTH",
"414 388 LINE"
);
},
{
closed = 1;
nodes = (
"432 400 LINE",
"639 678 LINE SMOOTH",
"677 723 OFFCURVE",
"704 734 OFFCURVE",
"776 747 CURVE",
"776 770 LINE",
"528 770 LINE",
"528 747 LINE",
"580 741 OFFCURVE",
"602 729 OFFCURVE",
"602 711 CURVE SMOOTH",
"602 700 OFFCURVE",
"596 689 OFFCURVE",
"586 675 CURVE SMOOTH",
"393 413 LINE"
);
}
);
};
layerId = UUID0;
paths = (
{
closed = 1;
nodes = (
"-10 0 LINE",
"261 0 LINE",
"261 20 LINE",
"203 26 OFFCURVE",
"177 36 OFFCURVE",
"177 53 CURVE SMOOTH",
"177 62 OFFCURVE",
"182 76 OFFCURVE",
"194 92 CURVE SMOOTH",
"378 339 LINE",
"551 76 LINE SMOOTH",
"563 58 OFFCURVE",
"567 49 OFFCURVE",
"567 42 CURVE SMOOTH",
"567 31 OFFCURVE",
"552 27 OFFCURVE",
"489 22 CURVE",
"489 0 LINE",
"789 0 LINE",
"789 22 LINE",
"727 27 OFFCURVE",
"701 35 OFFCURVE",
"681 65 CURVE SMOOTH",
"448 421 LINE",
"639 678 LINE",
"677 723 OFFCURVE",
"704 734 OFFCURVE",
"776 747 CURVE",
"776 770 LINE",
"528 770 LINE",
"528 747 LINE",
"580 741 OFFCURVE",
"602 729 OFFCURVE",
"602 711 CURVE SMOOTH",
"602 700 OFFCURVE",
"596 689 OFFCURVE",
"586 675 CURVE SMOOTH",
"425 456 LINE",
"270 693 LINE SMOOTH",
"260 709 OFFCURVE",
"257 718 OFFCURVE",
"257 727 CURVE SMOOTH",
"257 738 OFFCURVE",
"267 744 OFFCURVE",
"326 747 CURVE",
"326 770 LINE",
"24 770 LINE",
"24 747 LINE",
"103 738 OFFCURVE",
"122 730 OFFCURVE",
"139 704 CURVE SMOOTH",
"353 377 LINE",
"141 91 LINE SMOOTH",
"107 45 OFFCURVE",
"67 30 OFFCURVE",
"-10 20 CURVE"
);
}
);
width = 787;
},
{
background = {
paths = (
{
closed = 1;
nodes = (
"351 679 LINE SMOOTH",
"341 695 OFFCURVE",
"338 703 OFFCURVE",
"338 712 CURVE SMOOTH",
"338 725 OFFCURVE",
"355 730 OFFCURVE",
"427 733 CURVE",
"427 770 LINE",
"10 770 LINE",
"10 733 LINE",
"92 723 OFFCURVE",
"107 716 OFFCURVE",
"125 690 CURVE SMOOTH",
"526 91 LINE SMOOTH",
"538 73 OFFCURVE",
"542 63 OFFCURVE",
"542 57 CURVE SMOOTH",
"542 46 OFFCURVE",
"523 42 OFFCURVE",
"444 37 CURVE",
"444 0 LINE",
"859 0 LINE",
"859 37 LINE",
"797 42 OFFCURVE",
"771 50 OFFCURVE",
"751 80 CURVE SMOOTH"
);
},
{
closed = 1;
nodes = (
"365 406 LINE",
"144 108 LINE SMOOTH",
"113 66 OFFCURVE",
"79 48 OFFCURVE",
"-7 37 CURVE",
"-7 0 LINE",
"287 0 LINE",
"287 37 LINE",
"229 43 OFFCURVE",
"203 53 OFFCURVE",
"203 70 CURVE SMOOTH",
"203 79 OFFCURVE",
"208 93 OFFCURVE",
"220 109 CURVE SMOOTH",
"440 406 LINE"
);
},
{
closed = 1;
nodes = (
"486 413 LINE",
"674 664 LINE SMOOTH",
"705 705 OFFCURVE",
"725 718 OFFCURVE",
"811 733 CURVE",
"811 770 LINE",
"530 770 LINE",
"530 733 LINE",
"589 727 OFFCURVE",
"614 715 OFFCURVE",
"614 697 CURVE SMOOTH",
"614 686 OFFCURVE",
"608 675 OFFCURVE",
"598 661 CURVE SMOOTH",
"415 413 LINE"
);
}
);
};
layerId = "1CCFBABC-759F-491A-B184-EA51E5B5BC4A";
paths = (
{
closed = 1;
nodes = (
"-7 0 LINE",
"287 0 LINE",
"287 37 LINE",
"229 43 OFFCURVE",
"203 53 OFFCURVE",
"203 70 CURVE SMOOTH",
"203 79 OFFCURVE",
"208 93 OFFCURVE",
"220 109 CURVE SMOOTH",
"374 317 LINE",
"526 91 LINE SMOOTH",
"538 73 OFFCURVE",
"542 63 OFFCURVE",
"542 57 CURVE SMOOTH",
"542 46 OFFCURVE",
"523 42 OFFCURVE",
"444 37 CURVE",
"444 0 LINE",
"859 0 LINE",
"859 37 LINE",
"797 42 OFFCURVE",
"771 50 OFFCURVE",
"751 80 CURVE SMOOTH",
"508 443 LINE",
"674 664 LINE SMOOTH",
"705 705 OFFCURVE",
"725 718 OFFCURVE",
"811 733 CURVE",
"811 770 LINE",
"530 770 LINE",
"530 733 LINE",
"589 727 OFFCURVE",
"614 715 OFFCURVE",
"614 697 CURVE SMOOTH",
"614 686 OFFCURVE",
"608 675 OFFCURVE",
"598 661 CURVE SMOOTH",
"474 494 LINE",
"351 679 LINE SMOOTH",
"341 695 OFFCURVE",
"338 703 OFFCURVE",
"338 712 CURVE SMOOTH",
"338 725 OFFCURVE",
"355 730 OFFCURVE",
"427 733 CURVE",
"427 770 LINE",
"10 770 LINE",
"10 733 LINE",
"92 723 OFFCURVE",
"107 716 OFFCURVE",
"125 690 CURVE SMOOTH",
"339 370 LINE",
"144 108 LINE SMOOTH",
"113 66 OFFCURVE",
"79 48 OFFCURVE",
"-7 37 CURVE"
);
}
);
width = 840;
}
);
unicode = 0058;
},
{
glyphname = Y;
layers = (
{
anchors = (
{
name = topcap;
position = "{399, 830}";
}
);
background = {
paths = (
{
closed = 1;
nodes = (
"300 42 LINE",
"210 23 LINE",
"210 0 LINE",
"494 0 LINE",
"494 23 LINE",
"405 42 LINE",
"405 344 LINE",
"300 344 LINE"
);
},
{
closed = 1;
nodes = (
"369 243 LINE",
"581 636 LINE SMOOTH",
"617 702 OFFCURVE",
"620 731 OFFCURVE",
"726 747 CURVE",
"726 770 LINE",
"444 770 LINE",
"444 747 LINE",
"513 742 OFFCURVE",
"548 718 OFFCURVE",
"548 681 CURVE SMOOTH",
"548 668 OFFCURVE",
"544 654 OFFCURVE",
"536 638 CURVE SMOOTH",
"397 375 LINE",
"393 375 LINE",
"228 670 LINE SMOOTH",
"220 685 OFFCURVE",
"215 699 OFFCURVE",
"215 710 CURVE SMOOTH",
"215 730 OFFCURVE",
"233 742 OFFCURVE",
"320 747 CURVE",
"320 770 LINE",
"-8 770 LINE",
"-8 747 LINE",
"62 742 OFFCURVE",
"73 728 OFFCURVE",
"97 686 CURVE SMOOTH",
"348 242 LINE"
);
}
);
};
layerId = UUID0;
paths = (
{
closed = 1;
nodes = (
"210 0 LINE",
"494 0 LINE",
"494 23 LINE",
"405 42 LINE",
"405 309 LINE",
"581 636 LINE SMOOTH",
"617 702 OFFCURVE",
"620 731 OFFCURVE",
"726 747 CURVE",
"726 770 LINE",
"444 770 LINE",
"444 747 LINE",
"513 742 OFFCURVE",
"548 718 OFFCURVE",
"548 681 CURVE SMOOTH",
"548 668 OFFCURVE",
"544 654 OFFCURVE",
"536 638 CURVE SMOOTH",
"397 375 LINE",
"393 375 LINE",
"228 670 LINE SMOOTH",
"220 685 OFFCURVE",
"215 699 OFFCURVE",
"215 710 CURVE SMOOTH",
"215 730 OFFCURVE",
"233 742 OFFCURVE",
"320 747 CURVE",
"320 770 LINE",
"-8 770 LINE",
"-8 747 LINE",
"62 742 OFFCURVE",
"73 728 OFFCURVE",
"97 686 CURVE SMOOTH",
"300 327 LINE",
"300 42 LINE",
"210 23 LINE"
);
}
);
width = 709;
},
{
background = {
paths = (
{
closed = 1;
nodes = (
"288 58 LINE",
"203 37 LINE",
"203 0 LINE",
"544 0 LINE",
"544 37 LINE",
"460 58 LINE",
"460 344 LINE",
"288 344 LINE"
);
},
{
closed = 1;
nodes = (
"411 243 LINE",
"615 622 LINE SMOOTH",
"667 718 OFFCURVE",
"677 726 OFFCURVE",
"760 733 CURVE",
"760 770 LINE",
"458 770 LINE",
"458 733 LINE",
"540 731 OFFCURVE",
"569 716 OFFCURVE",
"569 684 CURVE SMOOTH",
"569 670 OFFCURVE",
"563 649 OFFCURVE",
"550 624 CURVE SMOOTH",
"435 405 LINE",
"431 405 LINE",
"303 656 LINE SMOOTH",
"297 667 OFFCURVE",
"294 676 OFFCURVE",
"294 685 CURVE SMOOTH",
"294 709 OFFCURVE",
"314 727 OFFCURVE",
"395 733 CURVE",
"395 770 LINE",
"-18 770 LINE",
"-18 733 LINE",
"52 728 OFFCURVE",
"69 722 OFFCURVE",
"97 672 CURVE SMOOTH",
"340 243 LINE"
);
}
);
};
layerId = "1CCFBABC-759F-491A-B184-EA51E5B5BC4A";
paths = (
{
closed = 1;
nodes = (
"203 0 LINE",
"544 0 LINE",
"544 37 LINE",
"460 58 LINE",
"460 334 LINE",
"615 622 LINE SMOOTH",
"667 718 OFFCURVE",
"677 726 OFFCURVE",
"760 733 CURVE",
"760 770 LINE",
"458 770 LINE",
"458 733 LINE",
"540 731 OFFCURVE",
"569 716 OFFCURVE",
"569 684 CURVE SMOOTH",
"569 670 OFFCURVE",
"563 649 OFFCURVE",
"550 624 CURVE SMOOTH",
"435 405 LINE",
"431 405 LINE",
"303 656 LINE SMOOTH",
"297 667 OFFCURVE",
"294 676 OFFCURVE",
"294 685 CURVE SMOOTH",
"294 709 OFFCURVE",
"314 727 OFFCURVE",
"395 733 CURVE",
"395 770 LINE",
"-18 770 LINE",
"-18 733 LINE",
"52 728 OFFCURVE",
"69 722 OFFCURVE",
"97 672 CURVE SMOOTH",
"288 335 LINE",
"288 58 LINE",
"203 37 LINE"
);
}
);
width = 745;
}
);
leftKerningGroup = Y;
rightKerningGroup = Y;
unicode = 0059;
},
{
glyphname = Z;
layers = (
{
anchors = (
{
name = bottom;
position = "{318, 0}";
},
{
name = topcap;
position = "{368, 830}";
}
);
background = {
paths = (
{
closed = 1;
nodes = (
"103 770 LINE",
"61 552 LINE",
"87 551 LINE",
"97 581 OFFCURVE",
"120 637 OFFCURVE",
"159 708 CURVE SMOOTH",
"171 730 LINE",
"489 730 LINE",
"31 28 LINE",
"31 0 LINE",
"580 0 LINE",
"632 244 LINE",
"606 247 LINE",
"588 202 OFFCURVE",
"556 129 OFFCURVE",
"509 58 CURVE SMOOTH",
"497 40 LINE",
"163 40 LINE",
"623 743 LINE",
"623 770 LINE"
);
}
);
};
layerId = UUID0;
paths = (
{
closed = 1;
nodes = (
"103 770 LINE",
"61 552 LINE",
"87 551 LINE",
"97 581 OFFCURVE",
"120 637 OFFCURVE",
"159 708 CURVE SMOOTH",
"171 730 LINE",
"489 730 LINE",
"31 28 LINE",
"31 0 LINE",
"580 0 LINE",
"632 244 LINE",
"606 247 LINE",
"588 202 OFFCURVE",
"556 129 OFFCURVE",
"509 58 CURVE SMOOTH",
"497 40 LINE",
"163 40 LINE",
"623 743 LINE",
"623 770 LINE"
);
}
);
width = 676;
},
{
background = {
paths = (
{
closed = 1;
nodes = (
"99 770 LINE",
"48 541 LINE",
"89 541 LINE",
"99 571 OFFCURVE",
"121 622 OFFCURVE",
"160 693 CURVE SMOOTH",
"172 715 LINE",
"445 715 LINE",
"27 38 LINE",
"27 0 LINE",
"636 0 LINE",
"699 262 LINE",
"657 262 LINE",
"639 217 OFFCURVE",
"607 144 OFFCURVE",
"560 73 CURVE SMOOTH",
"548 55 LINE",
"259 55 LINE",
"679 733 LINE",
"679 770 LINE"
);
}
);
};
layerId = "1CCFBABC-759F-491A-B184-EA51E5B5BC4A";
paths = (
{
closed = 1;
nodes = (
"99 770 LINE",
"48 541 LINE",
"89 541 LINE",
"99 571 OFFCURVE",
"121 622 OFFCURVE",
"160 693 CURVE SMOOTH",
"172 715 LINE",
"445 715 LINE",
"27 38 LINE",
"27 0 LINE",
"636 0 LINE",
"699 262 LINE",
"657 262 LINE",
"639 217 OFFCURVE",
"607 144 OFFCURVE",
"560 73 CURVE SMOOTH",
"548 55 LINE",
"259 55 LINE",
"679 733 LINE",
"679 770 LINE"
);
}
);
width = 730;
}
);
leftKerningGroup = Z;
rightKerningGroup = Z;
unicode = 005A;
},
{
glyphname = a;
layers = (
{
anchors = (
{
name = bottom;
position = "{410, 0}";
},
{
name = top;
position = "{264, 651}";
}
);
background = {
paths = (
{
closed = 1;
nodes = (
"227 -10 OFFCURVE",
"286 25 OFFCURVE",
"325 82 CURVE",
"328 80 LINE",
"335 19 OFFCURVE",
"364 -10 OFFCURVE",
"417 -10 CURVE SMOOTH",
"460 -10 OFFCURVE",
"490 9 OFFCURVE",
"521 57 CURVE",
"504 72 LINE",
"487 51 OFFCURVE",
"474 43 OFFCURVE",
"455 43 CURVE SMOOTH",
"426 43 OFFCURVE",
"418 61 OFFCURVE",
"418 127 CURVE SMOOTH",
"418 356 LINE SMOOTH",
"418 440 OFFCURVE",
"416 464 OFFCURVE",
"405 487 CURVE SMOOTH",
"388 521 OFFCURVE",
"346 540 OFFCURVE",
"289 540 CURVE SMOOTH",
"246 540 OFFCURVE",
"201 529 OFFCURVE",
"162 509 CURVE SMOOTH",
"97 476 OFFCURVE",
"54 425 OFFCURVE",
"54 381 CURVE SMOOTH",
"54 352 OFFCURVE",
"73 333 OFFCURVE",
"100 333 CURVE SMOOTH",
"130 333 OFFCURVE",
"152 357 OFFCURVE",
"152 391 CURVE SMOOTH",
"152 402 OFFCURVE",
"150 415 OFFCURVE",
"150 426 CURVE SMOOTH",
"150 473 OFFCURVE",
"186 502 OFFCURVE",
"243 502 CURVE SMOOTH",
"301 502 OFFCURVE",
"323 471 OFFCURVE",
"323 387 CURVE SMOOTH",
"323 289 LINE",
"122 246 OFFCURVE",
"49 199 OFFCURVE",
"49 112 CURVE SMOOTH",
"49 40 OFFCURVE",
"98 -10 OFFCURVE",
"169 -10 CURVE SMOOTH"
);
},
{
closed = 1;
nodes = (
"165 49 OFFCURVE",
"138 79 OFFCURVE",
"138 133 CURVE SMOOTH",
"138 202 OFFCURVE",
"182 232 OFFCURVE",
"323 260 CURVE",
"323 116 LINE",
"297 74 OFFCURVE",
"256 49 OFFCURVE",
"213 49 CURVE SMOOTH"
);
}
);
};
layerId = UUID0;
paths = (
{
closed = 1;
nodes = (
"227 -10 OFFCURVE",
"286 25 OFFCURVE",
"325 82 CURVE",
"328 80 LINE",
"335 19 OFFCURVE",
"364 -10 OFFCURVE",
"417 -10 CURVE SMOOTH",
"460 -10 OFFCURVE",
"490 9 OFFCURVE",
"521 57 CURVE",
"504 72 LINE",
"487 51 OFFCURVE",
"474 43 OFFCURVE",
"455 43 CURVE SMOOTH",
"426 43 OFFCURVE",
"418 61 OFFCURVE",
"418 127 CURVE SMOOTH",
"418 356 LINE SMOOTH",
"418 440 OFFCURVE",
"416 464 OFFCURVE",
"405 487 CURVE SMOOTH",
"388 521 OFFCURVE",
"346 540 OFFCURVE",
"289 540 CURVE SMOOTH",
"246 540 OFFCURVE",
"201 529 OFFCURVE",
"162 509 CURVE SMOOTH",
"97 476 OFFCURVE",
"54 425 OFFCURVE",
"54 381 CURVE SMOOTH",
"54 352 OFFCURVE",
"73 333 OFFCURVE",
"100 333 CURVE SMOOTH",
"130 333 OFFCURVE",
"152 357 OFFCURVE",
"152 391 CURVE SMOOTH",
"152 402 OFFCURVE",
"150 415 OFFCURVE",
"150 426 CURVE SMOOTH",
"150 473 OFFCURVE",
"186 502 OFFCURVE",
"243 502 CURVE SMOOTH",
"301 502 OFFCURVE",
"323 471 OFFCURVE",
"323 387 CURVE SMOOTH",
"323 289 LINE",
"122 246 OFFCURVE",
"49 199 OFFCURVE",
"49 112 CURVE SMOOTH",
"49 40 OFFCURVE",
"98 -10 OFFCURVE",
"169 -10 CURVE SMOOTH"
);
},
{
closed = 1;
nodes = (
"165 49 OFFCURVE",
"138 79 OFFCURVE",
"138 133 CURVE SMOOTH",
"138 202 OFFCURVE",
"182 232 OFFCURVE",
"323 260 CURVE",
"323 116 LINE",
"297 74 OFFCURVE",
"256 49 OFFCURVE",
"213 49 CURVE SMOOTH"
);
}
);
width = 525;
},
{
anchors = (
{
name = bottom;
position = "{404, 0}";
},
{
name = top;
position = "{258, 651}";
}
);
background = {
paths = (
{
closed = 1;
nodes = (
"231 -10 OFFCURVE",
"284 15 OFFCURVE",
"334 69 CURVE",
"338 69 LINE",
"348 16 OFFCURVE",
"380 -10 OFFCURVE",
"445 -10 CURVE SMOOTH",
"502 -10 OFFCURVE",
"548 11 OFFCURVE",
"591 57 CURVE",
"568 90 LINE",
"554 74 OFFCURVE",
"539 66 OFFCURVE",
"524 66 CURVE SMOOTH",
"497 66 OFFCURVE",
"486 91 OFFCURVE",
"486 150 CURVE SMOOTH",
"486 356 LINE SMOOTH",
"486 430 OFFCURVE",
"479 465 OFFCURVE",
"463 490 CURVE SMOOTH",
"441 523 OFFCURVE",
"398 540 OFFCURVE",
"326 540 CURVE SMOOTH",
"254 540 OFFCURVE",
"188 523 OFFCURVE",
"137 490 CURVE SMOOTH",
"87 457 OFFCURVE",
"58 413 OFFCURVE",
"58 371 CURVE SMOOTH",
"58 331 OFFCURVE",
"85 303 OFFCURVE",
"124 303 CURVE SMOOTH",
"163 303 OFFCURVE",
"193 332 OFFCURVE",
"193 370 CURVE SMOOTH",
"193 384 OFFCURVE",
"189 399 OFFCURVE",
"189 414 CURVE SMOOTH",
"189 456 OFFCURVE",
"220 482 OFFCURVE",
"270 482 CURVE SMOOTH",
"318 482 OFFCURVE",
"331 458 OFFCURVE",
"331 367 CURVE SMOOTH",
"331 294 LINE",
"129 266 OFFCURVE",
"38 208 OFFCURVE",
"38 108 CURVE SMOOTH",
"38 34 OFFCURVE",
"88 -10 OFFCURVE",
"170 -10 CURVE SMOOTH"
);
},
{
closed = 1;
nodes = (
"223 84 OFFCURVE",
"205 105 OFFCURVE",
"205 149 CURVE SMOOTH",
"205 205 OFFCURVE",
"234 228 OFFCURVE",
"331 247 CURVE",
"331 113 LINE",
"313 94 OFFCURVE",
"289 84 OFFCURVE",
"262 84 CURVE SMOOTH"
);
}
);
};
layerId = "1CCFBABC-759F-491A-B184-EA51E5B5BC4A";
paths = (
{
closed = 1;
nodes = (
"231 -10 OFFCURVE",
"284 15 OFFCURVE",
"334 69 CURVE",
"338 69 LINE",
"348 16 OFFCURVE",
"380 -10 OFFCURVE",
"445 -10 CURVE SMOOTH",
"502 -10 OFFCURVE",
"548 11 OFFCURVE",
"591 57 CURVE",
"568 90 LINE",
"554 74 OFFCURVE",
"539 66 OFFCURVE",
"524 66 CURVE SMOOTH",
"497 66 OFFCURVE",
"486 91 OFFCURVE",
"486 150 CURVE SMOOTH",
"486 356 LINE SMOOTH",
"486 430 OFFCURVE",
"479 465 OFFCURVE",
"463 490 CURVE SMOOTH",
"441 523 OFFCURVE",
"398 540 OFFCURVE",
"326 540 CURVE SMOOTH",
"254 540 OFFCURVE",
"188 523 OFFCURVE",
"137 490 CURVE SMOOTH",
"87 457 OFFCURVE",
"58 413 OFFCURVE",
"58 371 CURVE SMOOTH",
"58 331 OFFCURVE",
"85 303 OFFCURVE",
"124 303 CURVE SMOOTH",
"163 303 OFFCURVE",
"193 332 OFFCURVE",
"193 370 CURVE SMOOTH",
"193 384 OFFCURVE",
"189 399 OFFCURVE",
"189 414 CURVE SMOOTH",
"189 456 OFFCURVE",
"220 482 OFFCURVE",
"270 482 CURVE SMOOTH",
"318 482 OFFCURVE",
"331 458 OFFCURVE",
"331 367 CURVE SMOOTH",
"331 294 LINE",
"129 266 OFFCURVE",
"38 208 OFFCURVE",
"38 108 CURVE SMOOTH",
"38 34 OFFCURVE",
"88 -10 OFFCURVE",
"170 -10 CURVE SMOOTH"
);
},
{
closed = 1;
nodes = (
"223 84 OFFCURVE",
"205 105 OFFCURVE",
"205 149 CURVE SMOOTH",
"205 205 OFFCURVE",
"234 228 OFFCURVE",
"331 247 CURVE",
"331 113 LINE",
"313 94 OFFCURVE",
"289 84 OFFCURVE",
"262 84 CURVE SMOOTH"
);
}
);
width = 585;
}
);
leftKerningGroup = a;
rightKerningGroup = a;
unicode = 0061;
},
{
glyphname = ae;
layers = (
{
background = {
paths = (
{
closed = 1;
nodes = (
"795 314 LINE",
"792 462 OFFCURVE",
"721 540 OFFCURVE",
"590 540 CURVE SMOOTH",
"431 540 OFFCURVE",
"323 425 OFFCURVE",
"323 257 CURVE SMOOTH",
"323 98 OFFCURVE",
"420 -10 OFFCURVE",
"563 -10 CURVE SMOOTH",
"661 -10 OFFCURVE",
"743 40 OFFCURVE",
"778 121 CURVE SMOOTH",
"784 135 LINE",
"767 145 LINE",
"755 130 LINE SMOOTH",
"721 88 OFFCURVE",
"660 63 OFFCURVE",
"595 63 CURVE SMOOTH",
"482 63 OFFCURVE",
"423 140 OFFCURVE",
"423 285 CURVE SMOOTH",
"423 428 OFFCURVE",
"480 509 OFFCURVE",
"581 509 CURVE SMOOTH",
"653 509 OFFCURVE",
"690 467 OFFCURVE",
"690 385 CURVE SMOOTH",
"690 369 OFFCURVE",
"689 352 OFFCURVE",
"687 345 CURVE",
"403 335 LINE",
"403 308 LINE",
"788 308 LINE"
);
},
{
closed = 1;
nodes = (
"232 -10 OFFCURVE",
"306 34 OFFCURVE",
"354 108 CURVE",
"358 108 LINE",
"418 356 LINE",
"418 441 OFFCURVE",
"416 464 OFFCURVE",
"405 487 CURVE SMOOTH",
"388 521 OFFCURVE",
"346 540 OFFCURVE",
"289 540 CURVE SMOOTH",
"246 540 OFFCURVE",
"201 529 OFFCURVE",
"162 509 CURVE SMOOTH",
"97 476 OFFCURVE",
"54 425 OFFCURVE",
"54 381 CURVE SMOOTH",
"54 352 OFFCURVE",
"73 333 OFFCURVE",
"100 333 CURVE SMOOTH",
"130 333 OFFCURVE",
"152 357 OFFCURVE",
"152 391 CURVE SMOOTH",
"152 402 OFFCURVE",
"150 415 OFFCURVE",
"150 426 CURVE SMOOTH",
"150 473 OFFCURVE",
"186 502 OFFCURVE",
"243 502 CURVE SMOOTH",
"301 502 OFFCURVE",
"323 471 OFFCURVE",
"323 387 CURVE SMOOTH",
"323 289 LINE",
"121 246 OFFCURVE",
"49 199 OFFCURVE",
"49 111 CURVE SMOOTH",
"49 40 OFFCURVE",
"99 -10 OFFCURVE",
"170 -10 CURVE SMOOTH"
);
},
{
closed = 1;
nodes = (
"165 49 OFFCURVE",
"138 80 OFFCURVE",
"138 133 CURVE SMOOTH",
"138 202 OFFCURVE",
"182 232 OFFCURVE",
"323 260 CURVE",
"351 149 LINE",
"318 90 OFFCURVE",
"261 49 OFFCURVE",
"212 49 CURVE SMOOTH"
);
}
);
};
layerId = UUID0;
paths = (
{
closed = 1;
nodes = (
"232 -10 OFFCURVE",
"306 34 OFFCURVE",
"354 108 CURVE",
"358 108 LINE",
"398 34 OFFCURVE",
"471 -10 OFFCURVE",
"563 -10 CURVE SMOOTH",
"661 -10 OFFCURVE",
"743 40 OFFCURVE",
"778 121 CURVE SMOOTH",
"784 135 LINE",
"767 145 LINE",
"755 130 LINE SMOOTH",
"721 88 OFFCURVE",
"660 63 OFFCURVE",
"595 63 CURVE SMOOTH",
"476 63 OFFCURVE",
"423 139 OFFCURVE",
"423 308 CURVE",
"788 308 LINE",
"795 314 LINE",
"792 462 OFFCURVE",
"721 540 OFFCURVE",
"590 540 CURVE SMOOTH",
"517 540 OFFCURVE",
"456 516 OFFCURVE",
"410 474 CURVE",
"393 521 OFFCURVE",
"346 540 OFFCURVE",
"289 540 CURVE SMOOTH",
"246 540 OFFCURVE",
"201 529 OFFCURVE",
"162 509 CURVE SMOOTH",
"97 476 OFFCURVE",
"54 425 OFFCURVE",
"54 381 CURVE SMOOTH",
"54 352 OFFCURVE",
"73 333 OFFCURVE",
"100 333 CURVE SMOOTH",
"130 333 OFFCURVE",
"152 357 OFFCURVE",
"152 391 CURVE SMOOTH",
"152 402 OFFCURVE",
"150 415 OFFCURVE",
"150 426 CURVE SMOOTH",
"150 473 OFFCURVE",
"186 502 OFFCURVE",
"243 502 CURVE SMOOTH",
"301 502 OFFCURVE",
"323 471 OFFCURVE",
"323 387 CURVE SMOOTH",
"323 289 LINE",
"121 246 OFFCURVE",
"49 199 OFFCURVE",
"49 111 CURVE SMOOTH",
"49 40 OFFCURVE",
"99 -10 OFFCURVE",
"170 -10 CURVE SMOOTH"
);
},
{
closed = 1;
nodes = (
"653 509 OFFCURVE",
"690 467 OFFCURVE",
"690 385 CURVE SMOOTH",
"690 369 OFFCURVE",
"689 352 OFFCURVE",
"687 345 CURVE",
"425 336 LINE",
"438 447 OFFCURVE",
"493 509 OFFCURVE",
"581 509 CURVE SMOOTH"
);
},
{
closed = 1;
nodes = (
"165 49 OFFCURVE",
"138 80 OFFCURVE",
"138 133 CURVE SMOOTH",
"138 202 OFFCURVE",
"182 232 OFFCURVE",
"323 260 CURVE",
"323 213 OFFCURVE",
"330 173 OFFCURVE",
"344 138 CURVE",
"311 85 OFFCURVE",
"258 49 OFFCURVE",
"212 49 CURVE SMOOTH"
);
}
);
width = 836;
},
{
background = {
paths = (
{
closed = 1;
nodes = (
"246 -10 OFFCURVE",
"305 20 OFFCURVE",
"377 92 CURVE",
"381 92 LINE",
"429 26 OFFCURVE",
"508 -10 OFFCURVE",
"603 -10 CURVE SMOOTH",
"717 -10 OFFCURVE",
"809 43 OFFCURVE",
"846 131 CURVE SMOOTH",
"851 143 LINE",
"823 167 LINE",
"816 159 LINE SMOOTH",
"780 118 OFFCURVE",
"718 93 OFFCURVE",
"653 93 CURVE SMOOTH",
"549 93 OFFCURVE",
"497 158 OFFCURVE",
"496 290 CURVE",
"860 290 LINE",
"868 296 LINE",
"863 457 OFFCURVE",
"781 540 OFFCURVE",
"630 540 CURVE SMOOTH",
"564 540 OFFCURVE",
"506 525 OFFCURVE",
"458 495 CURVE",
"429 527 OFFCURVE",
"391 540 OFFCURVE",
"327 540 CURVE SMOOTH",
"252 540 OFFCURVE",
"186 522 OFFCURVE",
"137 490 CURVE SMOOTH",
"88 457 OFFCURVE",
"58 411 OFFCURVE",
"58 370 CURVE SMOOTH",
"58 331 OFFCURVE",
"85 303 OFFCURVE",
"124 303 CURVE SMOOTH",
"163 303 OFFCURVE",
"193 332 OFFCURVE",
"193 370 CURVE SMOOTH",
"193 384 OFFCURVE",
"189 399 OFFCURVE",
"189 414 CURVE SMOOTH",
"189 456 OFFCURVE",
"220 482 OFFCURVE",
"270 482 CURVE SMOOTH",
"318 482 OFFCURVE",
"331 458 OFFCURVE",
"331 367 CURVE SMOOTH",
"331 294 LINE",
"128 266 OFFCURVE",
"38 208 OFFCURVE",
"38 107 CURVE SMOOTH",
"38 33 OFFCURVE",
"87 -10 OFFCURVE",
"174 -10 CURVE SMOOTH"
);
},
{
closed = 1;
nodes = (
"675 489 OFFCURVE",
"706 452 OFFCURVE",
"706 385 CURVE SMOOTH",
"706 370 OFFCURVE",
"704 355 OFFCURVE",
"702 345 CURVE",
"498 337 LINE",
"506 435 OFFCURVE",
"549 489 OFFCURVE",
"618 489 CURVE SMOOTH"
);
},
{
closed = 1;
nodes = (
"228 84 OFFCURVE",
"205 107 OFFCURVE",
"205 146 CURVE SMOOTH",
"205 198 OFFCURVE",
"244 230 OFFCURVE",
"330 247 CURVE",
"331 206 OFFCURVE",
"340 165 OFFCURVE",
"357 130 CURVE",
"325 99 OFFCURVE",
"295 84 OFFCURVE",
"265 84 CURVE SMOOTH"
);
}
);
};
layerId = "1CCFBABC-759F-491A-B184-EA51E5B5BC4A";
paths = (
{
closed = 1;
nodes = (
"246 -10 OFFCURVE",
"305 20 OFFCURVE",
"377 92 CURVE",
"381 92 LINE",
"429 26 OFFCURVE",
"508 -10 OFFCURVE",
"603 -10 CURVE SMOOTH",
"717 -10 OFFCURVE",
"809 43 OFFCURVE",
"846 131 CURVE SMOOTH",
"851 143 LINE",
"823 167 LINE",
"816 159 LINE SMOOTH",
"780 118 OFFCURVE",
"718 93 OFFCURVE",
"653 93 CURVE SMOOTH",
"549 93 OFFCURVE",
"497 158 OFFCURVE",
"496 290 CURVE",
"860 290 LINE",
"868 296 LINE",
"863 457 OFFCURVE",
"781 540 OFFCURVE",
"630 540 CURVE SMOOTH",
"564 540 OFFCURVE",
"506 525 OFFCURVE",
"458 495 CURVE",
"429 527 OFFCURVE",
"391 540 OFFCURVE",
"327 540 CURVE SMOOTH",
"252 540 OFFCURVE",
"186 522 OFFCURVE",
"137 490 CURVE SMOOTH",
"88 457 OFFCURVE",
"58 411 OFFCURVE",
"58 370 CURVE SMOOTH",
"58 331 OFFCURVE",
"85 303 OFFCURVE",
"124 303 CURVE SMOOTH",
"163 303 OFFCURVE",
"193 332 OFFCURVE",
"193 370 CURVE SMOOTH",
"193 384 OFFCURVE",
"189 399 OFFCURVE",
"189 414 CURVE SMOOTH",
"189 456 OFFCURVE",
"220 482 OFFCURVE",
"270 482 CURVE SMOOTH",
"318 482 OFFCURVE",
"331 458 OFFCURVE",
"331 367 CURVE SMOOTH",
"331 294 LINE",
"128 266 OFFCURVE",
"38 208 OFFCURVE",
"38 107 CURVE SMOOTH",
"38 33 OFFCURVE",
"87 -10 OFFCURVE",
"174 -10 CURVE SMOOTH"
);
},
{
closed = 1;
nodes = (
"675 489 OFFCURVE",
"706 452 OFFCURVE",
"706 385 CURVE SMOOTH",
"706 370 OFFCURVE",
"704 355 OFFCURVE",
"702 345 CURVE",
"498 337 LINE",
"506 435 OFFCURVE",
"549 489 OFFCURVE",
"618 489 CURVE SMOOTH"
);
},
{
closed = 1;
nodes = (
"228 84 OFFCURVE",
"205 107 OFFCURVE",
"205 146 CURVE SMOOTH",
"205 198 OFFCURVE",
"244 230 OFFCURVE",
"330 247 CURVE",
"331 206 OFFCURVE",
"340 165 OFFCURVE",
"357 130 CURVE",
"325 99 OFFCURVE",
"295 84 OFFCURVE",
"265 84 CURVE SMOOTH"
);
}
);
width = 898;
}
);
leftKerningGroup = a;
rightKerningGroup = e;
unicode = 00E6;
},
{
glyphname = b;
layers = (
{
background = {
paths = (
{
closed = 1;
nodes = (
"442 -10 OFFCURVE",
"556 118 OFFCURVE",
"556 287 CURVE SMOOTH",
"556 437 OFFCURVE",
"466 540 OFFCURVE",
"335 540 CURVE SMOOTH",
"276 540 OFFCURVE",
"225 517 OFFCURVE",
"183 472 CURVE",
"183 830 LINE",
"173 830 LINE",
"14 781 LINE",
"14 768 LINE",
"87 741 LINE",
"87 2 LINE",
"103 2 LINE",
"149 36 LINE",
"154 36 LINE",
"194 6 OFFCURVE",
"242 -10 OFFCURVE",
"292 -10 CURVE SMOOTH"
);
},
{
closed = 1;
nodes = (
"226 24 OFFCURVE",
"183 74 OFFCURVE",
"183 150 CURVE SMOOTH",
"183 434 LINE",
"209 466 OFFCURVE",
"248 486 OFFCURVE",
"293 486 CURVE SMOOTH",
"390 486 OFFCURVE",
"449 400 OFFCURVE",
"449 259 CURVE SMOOTH",
"449 118 OFFCURVE",
"387 24 OFFCURVE",
"292 24 CURVE SMOOTH"
);
}
);
};
layerId = UUID0;
paths = (
{
closed = 1;
nodes = (
"442 -10 OFFCURVE",
"556 118 OFFCURVE",
"556 287 CURVE SMOOTH",
"556 437 OFFCURVE",
"466 540 OFFCURVE",
"335 540 CURVE SMOOTH",
"276 540 OFFCURVE",
"225 517 OFFCURVE",
"183 472 CURVE",
"183 830 LINE",
"173 830 LINE",
"14 781 LINE",
"14 768 LINE",
"87 741 LINE",
"87 2 LINE",
"103 2 LINE",
"149 36 LINE",
"154 36 LINE",
"194 6 OFFCURVE",
"242 -10 OFFCURVE",
"292 -10 CURVE SMOOTH"
);
},
{
closed = 1;
nodes = (
"226 24 OFFCURVE",
"183 74 OFFCURVE",
"183 150 CURVE SMOOTH",
"183 434 LINE",
"209 466 OFFCURVE",
"248 486 OFFCURVE",
"293 486 CURVE SMOOTH",
"390 486 OFFCURVE",
"449 400 OFFCURVE",
"449 259 CURVE SMOOTH",
"449 118 OFFCURVE",
"387 24 OFFCURVE",
"292 24 CURVE SMOOTH"
);
}
);
width = 602;
},
{
background = {
paths = (
{
closed = 1;
nodes = (
"503 -10 OFFCURVE",
"621 118 OFFCURVE",
"621 287 CURVE SMOOTH",
"621 437 OFFCURVE",
"531 540 OFFCURVE",
"400 540 CURVE SMOOTH",
"336 540 OFFCURVE",
"279 513 OFFCURVE",
"234 469 CURVE",
"234 830 LINE",
"212 830 LINE",
"-5 781 LINE",
"-5 758 LINE",
"79 731 LINE",
"79 0 LINE",
"108 0 LINE",
"194 36 LINE",
"200 36 LINE",
"243 6 OFFCURVE",
"296 -10 OFFCURVE",
"350 -10 CURVE SMOOTH"
);
},
{
closed = 1;
nodes = (
"272 44 OFFCURVE",
"234 94 OFFCURVE",
"234 170 CURVE SMOOTH",
"234 404 LINE",
"258 440 OFFCURVE",
"291 462 OFFCURVE",
"331 462 CURVE SMOOTH",
"408 462 OFFCURVE",
"452 386 OFFCURVE",
"452 259 CURVE SMOOTH",
"452 130 OFFCURVE",
"404 44 OFFCURVE",
"330 44 CURVE SMOOTH"
);
}
);
};
layerId = "1CCFBABC-759F-491A-B184-EA51E5B5BC4A";
paths = (
{
closed = 1;
nodes = (
"503 -10 OFFCURVE",
"621 118 OFFCURVE",
"621 287 CURVE SMOOTH",
"621 437 OFFCURVE",
"531 540 OFFCURVE",
"400 540 CURVE SMOOTH",
"336 540 OFFCURVE",
"279 513 OFFCURVE",
"234 469 CURVE",
"234 830 LINE",
"212 830 LINE",
"-5 781 LINE",
"-5 758 LINE",
"79 731 LINE",
"79 0 LINE",
"108 0 LINE",
"194 36 LINE",
"200 36 LINE",
"243 6 OFFCURVE",
"296 -10 OFFCURVE",
"350 -10 CURVE SMOOTH"
);
},
{
closed = 1;
nodes = (
"272 44 OFFCURVE",
"234 94 OFFCURVE",
"234 170 CURVE SMOOTH",
"234 404 LINE",
"258 440 OFFCURVE",
"291 462 OFFCURVE",
"331 462 CURVE SMOOTH",
"408 462 OFFCURVE",
"452 386 OFFCURVE",
"452 259 CURVE SMOOTH",
"452 130 OFFCURVE",
"404 44 OFFCURVE",
"330 44 CURVE SMOOTH"
);
}
);
width = 658;
}
);
leftKerningGroup = b;
rightKerningGroup = b;
unicode = 0062;
},
{
glyphname = c;
layers = (
{
anchors = (
{
name = bottom;
position = "{291, 0}";
},
{
name = top;
position = "{308, 651}";
}
);
background = {
paths = (
{
closed = 1;
nodes = (
"156 540 OFFCURVE",
"46 423 OFFCURVE",
"46 258 CURVE SMOOTH",
"46 100 OFFCURVE",
"147 -10 OFFCURVE",
"290 -10 CURVE SMOOTH",
"387 -10 OFFCURVE",
"462 40 OFFCURVE",
"496 128 CURVE SMOOTH",
"501 141 LINE",
"482 151 LINE",
"471 136 LINE SMOOTH",
"435 87 OFFCURVE",
"380 63 OFFCURVE",
"320 63 CURVE SMOOTH",
"211 63 OFFCURVE",
"148 142 OFFCURVE",
"148 278 CURVE SMOOTH",
"148 418 OFFCURVE",
"209 508 OFFCURVE",
"315 508 CURVE SMOOTH",
"360 508 OFFCURVE",
"379 494 OFFCURVE",
"387 428 CURVE SMOOTH",
"392 385 OFFCURVE",
"411 365 OFFCURVE",
"446 365 CURVE SMOOTH",
"475 365 OFFCURVE",
"492 388 OFFCURVE",
"492 422 CURVE SMOOTH",
"492 486 OFFCURVE",
"414 540 OFFCURVE",
"312 540 CURVE SMOOTH"
);
}
);
};
layerId = UUID0;
paths = (
{
closed = 1;
nodes = (
"387 -10 OFFCURVE",
"462 40 OFFCURVE",
"496 128 CURVE SMOOTH",
"501 141 LINE",
"482 151 LINE",
"471 136 LINE SMOOTH",
"435 87 OFFCURVE",
"380 63 OFFCURVE",
"320 63 CURVE SMOOTH",
"211 63 OFFCURVE",
"148 142 OFFCURVE",
"148 278 CURVE SMOOTH",
"148 418 OFFCURVE",
"209 508 OFFCURVE",
"315 508 CURVE SMOOTH",
"360 508 OFFCURVE",
"379 494 OFFCURVE",
"387 428 CURVE SMOOTH",
"392 385 OFFCURVE",
"411 365 OFFCURVE",
"446 365 CURVE SMOOTH",
"475 365 OFFCURVE",
"492 388 OFFCURVE",
"492 422 CURVE SMOOTH",
"492 486 OFFCURVE",
"414 540 OFFCURVE",
"312 540 CURVE SMOOTH",
"156 540 OFFCURVE",
"46 423 OFFCURVE",
"46 258 CURVE SMOOTH",
"46 100 OFFCURVE",
"147 -10 OFFCURVE",
"290 -10 CURVE SMOOTH"
);
}
);
width = 535;
},
{
background = {
paths = (
{
closed = 1;
nodes = (
"159 540 OFFCURVE",
"36 422 OFFCURVE",
"36 258 CURVE SMOOTH",
"36 102 OFFCURVE",
"148 -10 OFFCURVE",
"305 -10 CURVE SMOOTH",
"413 -10 OFFCURVE",
"491 37 OFFCURVE",
"531 133 CURVE SMOOTH",
"536 145 LINE",
"508 167 LINE",
"501 159 LINE SMOOTH",
"464 116 OFFCURVE",
"413 93 OFFCURVE",
"353 93 CURVE SMOOTH",
"254 93 OFFCURVE",
"204 161 OFFCURVE",
"204 289 CURVE SMOOTH",
"204 416 OFFCURVE",
"253 488 OFFCURVE",
"337 488 CURVE SMOOTH",
"391 488 OFFCURVE",
"404 452 OFFCURVE",
"410 405 CURVE SMOOTH",
"414 375 OFFCURVE",
"426 340 OFFCURVE",
"476 340 CURVE SMOOTH",
"517 340 OFFCURVE",
"543 366 OFFCURVE",
"543 407 CURVE SMOOTH",
"543 483 OFFCURVE",
"453 540 OFFCURVE",
"332 540 CURVE SMOOTH"
);
}
);
};
layerId = "1CCFBABC-759F-491A-B184-EA51E5B5BC4A";
paths = (
{
closed = 1;
nodes = (
"413 -10 OFFCURVE",
"491 37 OFFCURVE",
"531 133 CURVE SMOOTH",
"536 145 LINE",
"508 167 LINE",
"501 159 LINE SMOOTH",
"464 116 OFFCURVE",
"413 93 OFFCURVE",
"353 93 CURVE SMOOTH",
"254 93 OFFCURVE",
"204 161 OFFCURVE",
"204 289 CURVE SMOOTH",
"204 416 OFFCURVE",
"253 488 OFFCURVE",
"337 488 CURVE SMOOTH",
"391 488 OFFCURVE",
"404 452 OFFCURVE",
"410 405 CURVE SMOOTH",
"414 375 OFFCURVE",
"426 340 OFFCURVE",
"476 340 CURVE SMOOTH",
"517 340 OFFCURVE",
"543 366 OFFCURVE",
"543 407 CURVE SMOOTH",
"543 483 OFFCURVE",
"453 540 OFFCURVE",
"332 540 CURVE SMOOTH",
"159 540 OFFCURVE",
"36 422 OFFCURVE",
"36 258 CURVE SMOOTH",
"36 102 OFFCURVE",
"148 -10 OFFCURVE",
"305 -10 CURVE SMOOTH"
);
}
);
width = 571;
}
);
leftKerningGroup = e;
rightKerningGroup = c;
unicode = 0063;
},
{
glyphname = d;
layers = (
{
anchors = (
{
name = bottom;
position = "{254, 0}";
}
);
background = {
paths = (
{
closed = 1;
nodes = (
"320 -10 OFFCURVE",
"379 19 OFFCURVE",
"421 78 CURVE",
"425 76 LINE",
"425 -10 LINE",
"432 -10 LINE",
"580 52 LINE",
"580 63 LINE",
"512 78 LINE",
"512 830 LINE",
"502 830 LINE",
"345 781 LINE",
"345 768 LINE",
"418 740 LINE",
"418 525 LINE",
"383 535 OFFCURVE",
"345 540 OFFCURVE",
"310 540 CURVE SMOOTH",
"154 540 OFFCURVE",
"47 424 OFFCURVE",
"47 256 CURVE SMOOTH",
"47 103 OFFCURVE",
"136 -10 OFFCURVE",
"254 -10 CURVE SMOOTH"
);
},
{
closed = 1;
nodes = (
"206 55 OFFCURVE",
"152 138 OFFCURVE",
"152 272 CURVE SMOOTH",
"152 416 OFFCURVE",
"215 510 OFFCURVE",
"308 510 CURVE SMOOTH",
"380 510 OFFCURVE",
"418 472 OFFCURVE",
"418 400 CURVE SMOOTH",
"418 114 LINE",
"395 78 OFFCURVE",
"348 55 OFFCURVE",
"296 55 CURVE SMOOTH"
);
}
);
};
layerId = UUID0;
paths = (
{
closed = 1;
nodes = (
"320 -10 OFFCURVE",
"379 19 OFFCURVE",
"421 78 CURVE",
"425 76 LINE",
"425 -10 LINE",
"432 -10 LINE",
"580 52 LINE",
"580 63 LINE",
"512 78 LINE",
"512 830 LINE",
"502 830 LINE",
"345 781 LINE",
"345 768 LINE",
"418 740 LINE",
"418 525 LINE",
"383 535 OFFCURVE",
"345 540 OFFCURVE",
"310 540 CURVE SMOOTH",
"154 540 OFFCURVE",
"47 424 OFFCURVE",
"47 256 CURVE SMOOTH",
"47 103 OFFCURVE",
"136 -10 OFFCURVE",
"254 -10 CURVE SMOOTH"
);
},
{
closed = 1;
nodes = (
"206 55 OFFCURVE",
"152 138 OFFCURVE",
"152 272 CURVE SMOOTH",
"152 416 OFFCURVE",
"215 510 OFFCURVE",
"308 510 CURVE SMOOTH",
"380 510 OFFCURVE",
"418 472 OFFCURVE",
"418 400 CURVE SMOOTH",
"418 114 LINE",
"395 78 OFFCURVE",
"348 55 OFFCURVE",
"296 55 CURVE SMOOTH"
);
}
);
width = 607;
},
{
background = {
paths = (
{
closed = 1;
nodes = (
"330 -10 OFFCURVE",
"388 13 OFFCURVE",
"429 53 CURVE",
"434 51 LINE",
"434 -10 LINE",
"452 -10 LINE",
"660 52 LINE",
"660 73 LINE",
"581 98 LINE",
"581 830 LINE",
"559 830 LINE",
"341 781 LINE",
"341 758 LINE",
"426 730 LINE",
"426 515 LINE",
"388 532 OFFCURVE",
"348 540 OFFCURVE",
"310 540 CURVE SMOOTH",
"149 540 OFFCURVE",
"37 424 OFFCURVE",
"37 256 CURVE SMOOTH",
"37 103 OFFCURVE",
"137 -10 OFFCURVE",
"265 -10 CURVE SMOOTH"
);
},
{
closed = 1;
nodes = (
"252 62 OFFCURVE",
"208 144 OFFCURVE",
"208 273 CURVE SMOOTH",
"208 400 OFFCURVE",
"256 486 OFFCURVE",
"330 486 CURVE SMOOTH",
"388 486 OFFCURVE",
"426 436 OFFCURVE",
"426 362 CURVE SMOOTH",
"426 114 LINE",
"402 82 OFFCURVE",
"369 62 OFFCURVE",
"329 62 CURVE SMOOTH"
);
}
);
};
layerId = "1CCFBABC-759F-491A-B184-EA51E5B5BC4A";
paths = (
{
closed = 1;
nodes = (
"330 -10 OFFCURVE",
"388 13 OFFCURVE",
"429 53 CURVE",
"434 51 LINE",
"434 -10 LINE",
"452 -10 LINE",
"660 52 LINE",
"660 73 LINE",
"581 98 LINE",
"581 830 LINE",
"559 830 LINE",
"341 781 LINE",
"341 758 LINE",
"426 730 LINE",
"426 515 LINE",
"388 532 OFFCURVE",
"348 540 OFFCURVE",
"310 540 CURVE SMOOTH",
"149 540 OFFCURVE",
"37 424 OFFCURVE",
"37 256 CURVE SMOOTH",
"37 103 OFFCURVE",
"137 -10 OFFCURVE",
"265 -10 CURVE SMOOTH"
);
},
{
closed = 1;
nodes = (
"252 62 OFFCURVE",
"208 144 OFFCURVE",
"208 273 CURVE SMOOTH",
"208 400 OFFCURVE",
"256 486 OFFCURVE",
"330 486 CURVE SMOOTH",
"388 486 OFFCURVE",
"426 436 OFFCURVE",
"426 362 CURVE SMOOTH",
"426 114 LINE",
"402 82 OFFCURVE",
"369 62 OFFCURVE",
"329 62 CURVE SMOOTH"
);
}
);
width = 674;
}
);
leftKerningGroup = d;
rightKerningGroup = d;
unicode = 0064;
},
{
glyphname = eth;
layers = (
{
background = {
paths = (
{
closed = 1;
nodes = (
"436 -10 OFFCURVE",
"541 108 OFFCURVE",
"541 279 CURVE SMOOTH",
"541 493 OFFCURVE",
"384 699 OFFCURVE",
"159 780 CURVE",
"141 745 LINE",
"268 684 OFFCURVE",
"397 528 OFFCURVE",
"415 412 CURVE",
"389 441 OFFCURVE",
"325 464 OFFCURVE",
"270 464 CURVE SMOOTH",
"147 464 OFFCURVE",
"48 358 OFFCURVE",
"48 227 CURVE SMOOTH",
"48 90 OFFCURVE",
"147 -10 OFFCURVE",
"284 -10 CURVE SMOOTH"
);
},
{
closed = 1;
nodes = (
"213 35 OFFCURVE",
"167 103 OFFCURVE",
"167 211 CURVE SMOOTH",
"167 328 OFFCURVE",
"224 407 OFFCURVE",
"307 407 CURVE SMOOTH",
"349 407 OFFCURVE",
"393 386 OFFCURVE",
"417 353 CURVE",
"424 323 OFFCURVE",
"429 277 OFFCURVE",
"429 243 CURVE SMOOTH",
"429 123 OFFCURVE",
"368 35 OFFCURVE",
"285 35 CURVE SMOOTH"
);
},
{
closed = 1;
nodes = (
"442 723 LINE",
"412 769 LINE",
"155 602 LINE",
"184 556 LINE"
);
}
);
};
hints = (
{
place = "{46, 94}";
},
{
place = "{365, 105}";
},
{
horizontal = 1;
place = "{-14, 33}";
},
{
horizontal = 1;
place = "{389, 53}";
},
{
horizontal = 1;
place = "{692, 21}";
}
);
layerId = UUID0;
paths = (
{
closed = 1;
nodes = (
"436 -10 OFFCURVE",
"541 108 OFFCURVE",
"541 279 CURVE SMOOTH",
"541 493 OFFCURVE",
"384 699 OFFCURVE",
"159 780 CURVE",
"141 745 LINE",
"268 684 OFFCURVE",
"397 528 OFFCURVE",
"415 412 CURVE",
"389 441 OFFCURVE",
"325 464 OFFCURVE",
"270 464 CURVE SMOOTH",
"147 464 OFFCURVE",
"48 358 OFFCURVE",
"48 227 CURVE SMOOTH",
"48 90 OFFCURVE",
"147 -10 OFFCURVE",
"284 -10 CURVE SMOOTH"
);
},
{
closed = 1;
nodes = (
"213 35 OFFCURVE",
"167 103 OFFCURVE",
"167 211 CURVE SMOOTH",
"167 328 OFFCURVE",
"224 407 OFFCURVE",
"307 407 CURVE SMOOTH",
"349 407 OFFCURVE",
"393 386 OFFCURVE",
"417 353 CURVE",
"424 323 OFFCURVE",
"429 277 OFFCURVE",
"429 243 CURVE SMOOTH",
"429 123 OFFCURVE",
"368 35 OFFCURVE",
"285 35 CURVE SMOOTH"
);
},
{
closed = 1;
nodes = (
"442 723 LINE",
"412 769 LINE",
"155 602 LINE",
"184 556 LINE"
);
}
);
width = 590;
},
{
background = {
paths = (
{
closed = 1;
nodes = (
"435 -10 OFFCURVE",
"559 99 OFFCURVE",
"559 293 CURVE SMOOTH",
"559 518 OFFCURVE",
"419 694 OFFCURVE",
"162 780 CURVE",
"129 730 LINE",
"278 653 OFFCURVE",
"361 546 OFFCURVE",
"381 420 CURVE",
"357 453 OFFCURVE",
"312 472 OFFCURVE",
"257 472 CURVE SMOOTH",
"129 472 OFFCURVE",
"36 372 OFFCURVE",
"36 236 CURVE SMOOTH",
"36 90 OFFCURVE",
"143 -10 OFFCURVE",
"287 -10 CURVE SMOOTH"
);
},
{
closed = 1;
nodes = (
"236 50 OFFCURVE",
"200 115 OFFCURVE",
"200 219 CURVE SMOOTH",
"200 328 OFFCURVE",
"239 397 OFFCURVE",
"301 397 CURVE SMOOTH",
"335 397 OFFCURVE",
"366 377 OFFCURVE",
"383 343 CURVE",
"391 313 OFFCURVE",
"395 275 OFFCURVE",
"395 238 CURVE SMOOTH",
"395 122 OFFCURVE",
"356 50 OFFCURVE",
"294 50 CURVE SMOOTH"
);
},
{
closed = 1;
nodes = (
"483 713 LINE",
"439 774 LINE",
"156 575 LINE",
"199 513 LINE"
);
}
);
};
hints = (
{
place = "{39, 94}";
},
{
place = "{358, 105}";
},
{
horizontal = 1;
place = "{-14, 33}";
},
{
horizontal = 1;
place = "{389, 53}";
},
{
horizontal = 1;
place = "{692, 21}";
}
);
layerId = "1CCFBABC-759F-491A-B184-EA51E5B5BC4A";
paths = (
{
closed = 1;
nodes = (
"435 -10 OFFCURVE",
"559 99 OFFCURVE",
"559 293 CURVE SMOOTH",
"559 518 OFFCURVE",
"419 694 OFFCURVE",
"162 780 CURVE",
"129 730 LINE",
"278 653 OFFCURVE",
"361 546 OFFCURVE",
"381 420 CURVE",
"357 453 OFFCURVE",
"312 472 OFFCURVE",
"257 472 CURVE SMOOTH",
"129 472 OFFCURVE",
"36 372 OFFCURVE",
"36 236 CURVE SMOOTH",
"36 90 OFFCURVE",
"143 -10 OFFCURVE",
"287 -10 CURVE SMOOTH"
);
},
{
closed = 1;
nodes = (
"236 50 OFFCURVE",
"200 115 OFFCURVE",
"200 219 CURVE SMOOTH",
"200 328 OFFCURVE",
"239 397 OFFCURVE",
"301 397 CURVE SMOOTH",
"335 397 OFFCURVE",
"366 377 OFFCURVE",
"383 343 CURVE",
"391 313 OFFCURVE",
"395 275 OFFCURVE",
"395 238 CURVE SMOOTH",
"395 122 OFFCURVE",
"356 50 OFFCURVE",
"294 50 CURVE SMOOTH"
);
},
{
closed = 1;
nodes = (
"483 713 LINE",
"439 774 LINE",
"156 575 LINE",
"199 513 LINE"
);
}
);
width = 607;
}
);
leftKerningGroup = o;
unicode = 00F0;
},
{
glyphname = dcroat;
layers = (
{
background = {
paths = (
{
closed = 1;
nodes = (
"581 609 LINE",
"581 674 LINE",
"274 674 LINE",
"274 609 LINE"
);
}
);
};
components = (
{
name = d;
}
);
layerId = UUID0;
paths = (
{
closed = 1;
nodes = (
"581 609 LINE",
"581 674 LINE",
"274 674 LINE",
"274 609 LINE"
);
}
);
width = 607;
},
{
background = {
paths = (
{
closed = 1;
nodes = (
"660 599 LINE",
"660 684 LINE",
"313 684 LINE",
"313 599 LINE"
);
}
);
};
components = (
{
name = d;
}
);
layerId = "1CCFBABC-759F-491A-B184-EA51E5B5BC4A";
paths = (
{
closed = 1;
nodes = (
"660 599 LINE",
"660 684 LINE",
"313 684 LINE",
"313 599 LINE"
);
}
);
width = 674;
}
);
leftKerningGroup = d;
rightKerningGroup = d;
unicode = 0111;
},
{
glyphname = e;
layers = (
{
anchors = (
{
name = bottom;
position = "{288, 0}";
},
{
name = top;
position = "{311, 651}";
}
);
background = {
paths = (
{
closed = 1;
nodes = (
"519 314 LINE",
"516 462 OFFCURVE",
"445 540 OFFCURVE",
"314 540 CURVE SMOOTH",
"155 540 OFFCURVE",
"47 425 OFFCURVE",
"47 257 CURVE SMOOTH",
"47 98 OFFCURVE",
"144 -10 OFFCURVE",
"287 -10 CURVE SMOOTH",
"385 -10 OFFCURVE",
"467 40 OFFCURVE",
"502 121 CURVE SMOOTH",
"508 135 LINE",
"491 145 LINE",
"479 130 LINE SMOOTH",
"444 88 OFFCURVE",
"385 63 OFFCURVE",
"320 63 CURVE SMOOTH",
"206 63 OFFCURVE",
"147 139 OFFCURVE",
"147 285 CURVE SMOOTH",
"147 428 OFFCURVE",
"204 509 OFFCURVE",
"305 509 CURVE SMOOTH",
"377 509 OFFCURVE",
"414 468 OFFCURVE",
"414 386 CURVE SMOOTH",
"414 370 OFFCURVE",
"413 353 OFFCURVE",
"411 345 CURVE",
"127 335 LINE",
"127 308 LINE",
"512 308 LINE"
);
}
);
};
layerId = UUID0;
paths = (
{
closed = 1;
nodes = (
"519 314 LINE",
"516 462 OFFCURVE",
"445 540 OFFCURVE",
"314 540 CURVE SMOOTH",
"155 540 OFFCURVE",
"47 425 OFFCURVE",
"47 257 CURVE SMOOTH",
"47 98 OFFCURVE",
"144 -10 OFFCURVE",
"287 -10 CURVE SMOOTH",
"385 -10 OFFCURVE",
"467 40 OFFCURVE",
"502 121 CURVE SMOOTH",
"508 135 LINE",
"491 145 LINE",
"479 130 LINE SMOOTH",
"444 88 OFFCURVE",
"385 63 OFFCURVE",
"320 63 CURVE SMOOTH",
"206 63 OFFCURVE",
"147 139 OFFCURVE",
"147 285 CURVE SMOOTH",
"147 428 OFFCURVE",
"204 509 OFFCURVE",
"305 509 CURVE SMOOTH",
"377 509 OFFCURVE",
"414 468 OFFCURVE",
"414 386 CURVE SMOOTH",
"414 370 OFFCURVE",
"413 353 OFFCURVE",
"411 345 CURVE",
"127 335 LINE",
"127 308 LINE",
"512 308 LINE"
);
}
);
width = 560;
},
{
background = {
paths = (
{
closed = 1;
nodes = (
"574 296 LINE",
"569 456 OFFCURVE",
"488 540 OFFCURVE",
"336 540 CURVE SMOOTH",
"158 540 OFFCURVE",
"36 425 OFFCURVE",
"36 257 CURVE SMOOTH",
"36 98 OFFCURVE",
"145 -10 OFFCURVE",
"311 -10 CURVE SMOOTH",
"420 -10 OFFCURVE",
"515 41 OFFCURVE",
"552 131 CURVE SMOOTH",
"557 143 LINE",
"529 167 LINE",
"522 159 LINE SMOOTH",
"483 115 OFFCURVE",
"417 93 OFFCURVE",
"359 93 CURVE SMOOTH",
"254 93 OFFCURVE",
"202 159 OFFCURVE",
"202 295 CURVE SMOOTH",
"202 419 OFFCURVE",
"245 489 OFFCURVE",
"323 489 CURVE SMOOTH",
"381 489 OFFCURVE",
"412 452 OFFCURVE",
"412 383 CURVE SMOOTH",
"412 366 OFFCURVE",
"410 351 OFFCURVE",
"408 345 CURVE",
"129 335 LINE",
"129 290 LINE",
"566 290 LINE"
);
}
);
};
layerId = "1CCFBABC-759F-491A-B184-EA51E5B5BC4A";
paths = (
{
closed = 1;
nodes = (
"574 296 LINE",
"569 456 OFFCURVE",
"488 540 OFFCURVE",
"336 540 CURVE SMOOTH",
"158 540 OFFCURVE",
"36 425 OFFCURVE",
"36 257 CURVE SMOOTH",
"36 98 OFFCURVE",
"145 -10 OFFCURVE",
"311 -10 CURVE SMOOTH",
"420 -10 OFFCURVE",
"515 41 OFFCURVE",
"552 131 CURVE SMOOTH",
"557 143 LINE",
"529 167 LINE",
"522 159 LINE SMOOTH",
"483 115 OFFCURVE",
"417 93 OFFCURVE",
"359 93 CURVE SMOOTH",
"254 93 OFFCURVE",
"202 159 OFFCURVE",
"202 295 CURVE SMOOTH",
"202 419 OFFCURVE",
"245 489 OFFCURVE",
"323 489 CURVE SMOOTH",
"381 489 OFFCURVE",
"412 452 OFFCURVE",
"412 383 CURVE SMOOTH",
"412 366 OFFCURVE",
"410 351 OFFCURVE",
"408 345 CURVE",
"129 335 LINE",
"129 290 LINE",
"566 290 LINE"
);
}
);
width = 604;
}
);
leftKerningGroup = e;
rightKerningGroup = e;
unicode = 0065;
},
{
glyphname = schwa;
layers = (
{
background = {
paths = (
{
closed = 1;
nodes = (
"41 216 LINE",
"44 68 OFFCURVE",
"115 -10 OFFCURVE",
"246 -10 CURVE SMOOTH",
"405 -10 OFFCURVE",
"513 105 OFFCURVE",
"513 273 CURVE SMOOTH",
"513 432 OFFCURVE",
"416 540 OFFCURVE",
"273 540 CURVE SMOOTH",
"175 540 OFFCURVE",
"93 490 OFFCURVE",
"58 409 CURVE SMOOTH",
"52 395 LINE",
"69 385 LINE",
"81 400 LINE SMOOTH",
"116 442 OFFCURVE",
"175 467 OFFCURVE",
"240 467 CURVE SMOOTH",
"354 467 OFFCURVE",
"413 391 OFFCURVE",
"413 245 CURVE SMOOTH",
"413 102 OFFCURVE",
"356 21 OFFCURVE",
"255 21 CURVE SMOOTH",
"183 21 OFFCURVE",
"146 62 OFFCURVE",
"146 144 CURVE SMOOTH",
"146 160 OFFCURVE",
"147 177 OFFCURVE",
"149 185 CURVE",
"433 195 LINE",
"433 222 LINE",
"48 222 LINE"
);
}
);
};
layerId = UUID0;
paths = (
{
closed = 1;
nodes = (
"41 216 LINE",
"44 68 OFFCURVE",
"115 -10 OFFCURVE",
"246 -10 CURVE SMOOTH",
"405 -10 OFFCURVE",
"513 105 OFFCURVE",
"513 273 CURVE SMOOTH",
"513 432 OFFCURVE",
"416 540 OFFCURVE",
"273 540 CURVE SMOOTH",
"175 540 OFFCURVE",
"93 490 OFFCURVE",
"58 409 CURVE SMOOTH",
"52 395 LINE",
"69 385 LINE",
"81 400 LINE SMOOTH",
"116 442 OFFCURVE",
"175 467 OFFCURVE",
"240 467 CURVE SMOOTH",
"354 467 OFFCURVE",
"413 391 OFFCURVE",
"413 245 CURVE SMOOTH",
"413 102 OFFCURVE",
"356 21 OFFCURVE",
"255 21 CURVE SMOOTH",
"183 21 OFFCURVE",
"146 62 OFFCURVE",
"146 144 CURVE SMOOTH",
"146 160 OFFCURVE",
"147 177 OFFCURVE",
"149 185 CURVE",
"433 195 LINE",
"433 222 LINE",
"48 222 LINE"
);
}
);
width = 560;
},
{
background = {
paths = (
{
closed = 1;
nodes = (
"29 234 LINE",
"34 74 OFFCURVE",
"115 -10 OFFCURVE",
"267 -10 CURVE SMOOTH",
"445 -10 OFFCURVE",
"567 105 OFFCURVE",
"567 273 CURVE SMOOTH",
"567 432 OFFCURVE",
"458 540 OFFCURVE",
"292 540 CURVE SMOOTH",
"183 540 OFFCURVE",
"88 489 OFFCURVE",
"51 399 CURVE SMOOTH",
"46 387 LINE",
"74 363 LINE",
"81 371 LINE SMOOTH",
"120 415 OFFCURVE",
"186 437 OFFCURVE",
"244 437 CURVE SMOOTH",
"349 437 OFFCURVE",
"401 371 OFFCURVE",
"401 235 CURVE SMOOTH",
"401 111 OFFCURVE",
"358 41 OFFCURVE",
"280 41 CURVE SMOOTH",
"222 41 OFFCURVE",
"191 78 OFFCURVE",
"191 147 CURVE SMOOTH",
"191 164 OFFCURVE",
"193 179 OFFCURVE",
"195 185 CURVE",
"474 195 LINE",
"474 240 LINE",
"37 240 LINE"
);
}
);
};
layerId = "1CCFBABC-759F-491A-B184-EA51E5B5BC4A";
paths = (
{
closed = 1;
nodes = (
"29 234 LINE",
"34 74 OFFCURVE",
"115 -10 OFFCURVE",
"267 -10 CURVE SMOOTH",
"445 -10 OFFCURVE",
"567 105 OFFCURVE",
"567 273 CURVE SMOOTH",
"567 432 OFFCURVE",
"458 540 OFFCURVE",
"292 540 CURVE SMOOTH",
"183 540 OFFCURVE",
"88 489 OFFCURVE",
"51 399 CURVE SMOOTH",
"46 387 LINE",
"74 363 LINE",
"81 371 LINE SMOOTH",
"120 415 OFFCURVE",
"186 437 OFFCURVE",
"244 437 CURVE SMOOTH",
"349 437 OFFCURVE",
"401 371 OFFCURVE",
"401 235 CURVE SMOOTH",
"401 111 OFFCURVE",
"358 41 OFFCURVE",
"280 41 CURVE SMOOTH",
"222 41 OFFCURVE",
"191 78 OFFCURVE",
"191 147 CURVE SMOOTH",
"191 164 OFFCURVE",
"193 179 OFFCURVE",
"195 185 CURVE",
"474 195 LINE",
"474 240 LINE",
"37 240 LINE"
);
}
);
width = 603;
}
);
rightKerningGroup = o;
unicode = 0259;
},
{
glyphname = f;
layers = (
{
background = {
paths = (
{
closed = 1;
nodes = (
"206 585 LINE SMOOTH",
"206 671 OFFCURVE",
"213 720 OFFCURVE",
"227 750 CURVE SMOOTH",
"243 785 OFFCURVE",
"271 799 OFFCURVE",
"301 799 CURVE SMOOTH",
"333 799 OFFCURVE",
"344 783 OFFCURVE",
"351 747 CURVE SMOOTH",
"356 722 OFFCURVE",
"367 696 OFFCURVE",
"400 696 CURVE SMOOTH",
"429 696 OFFCURVE",
"449 716 OFFCURVE",
"449 745 CURVE SMOOTH",
"449 794 OFFCURVE",
"392 830 OFFCURVE",
"320 830 CURVE SMOOTH",
"236 830 OFFCURVE",
"153 781 OFFCURVE",
"126 707 CURVE SMOOTH",
"113 671 OFFCURVE",
"111 623 OFFCURVE",
"111 516 CURVE SMOOTH",
"111 34 LINE",
"36 19 LINE",
"36 0 LINE",
"312 0 LINE",
"312 19 LINE",
"206 34 LINE"
);
},
{
closed = 1;
nodes = (
"23 498 LINE",
"323 498 LINE",
"335 530 LINE",
"35 530 LINE"
);
}
);
};
layerId = UUID0;
paths = (
{
closed = 1;
nodes = (
"206 585 LINE SMOOTH",
"206 671 OFFCURVE",
"213 720 OFFCURVE",
"227 750 CURVE SMOOTH",
"243 785 OFFCURVE",
"271 799 OFFCURVE",
"301 799 CURVE SMOOTH",
"333 799 OFFCURVE",
"344 783 OFFCURVE",
"351 747 CURVE SMOOTH",
"356 722 OFFCURVE",
"367 696 OFFCURVE",
"400 696 CURVE SMOOTH",
"429 696 OFFCURVE",
"449 716 OFFCURVE",
"449 745 CURVE SMOOTH",
"449 794 OFFCURVE",
"392 830 OFFCURVE",
"320 830 CURVE SMOOTH",
"236 830 OFFCURVE",
"153 781 OFFCURVE",
"126 707 CURVE SMOOTH",
"113 671 OFFCURVE",
"111 623 OFFCURVE",
"111 516 CURVE SMOOTH",
"111 34 LINE",
"36 19 LINE",
"36 0 LINE",
"312 0 LINE",
"312 19 LINE",
"206 34 LINE"
);
},
{
closed = 1;
nodes = (
"23 498 LINE",
"323 498 LINE",
"335 530 LINE",
"35 530 LINE"
);
}
);
width = 351;
},
{
background = {
paths = (
{
closed = 1;
nodes = (
"271 585 LINE",
"271 653 OFFCURVE",
"272 702 OFFCURVE",
"283 733 CURVE SMOOTH",
"294 765 OFFCURVE",
"320 779 OFFCURVE",
"349 779 CURVE SMOOTH",
"380 779 OFFCURVE",
"394 765 OFFCURVE",
"404 727 CURVE SMOOTH",
"414 688 OFFCURVE",
"439 666 OFFCURVE",
"474 666 CURVE SMOOTH",
"515 666 OFFCURVE",
"543 693 OFFCURVE",
"543 732 CURVE SMOOTH",
"543 791 OFFCURVE",
"473 830 OFFCURVE",
"368 830 CURVE SMOOTH",
"258 830 OFFCURVE",
"165 780 OFFCURVE",
"133 703 CURVE SMOOTH",
"119 671 OFFCURVE",
"116 636 OFFCURVE",
"116 516 CURVE SMOOTH",
"116 55 LINE",
"31 35 LINE",
"31 0 LINE",
"394 0 LINE",
"394 35 LINE",
"271 55 LINE"
);
},
{
closed = 1;
nodes = (
"14 483 LINE",
"392 483 LINE",
"406 530 LINE",
"28 530 LINE"
);
}
);
};
layerId = "1CCFBABC-759F-491A-B184-EA51E5B5BC4A";
paths = (
{
closed = 1;
nodes = (
"271 585 LINE SMOOTH",
"271 653 OFFCURVE",
"272 702 OFFCURVE",
"283 733 CURVE SMOOTH",
"294 765 OFFCURVE",
"320 779 OFFCURVE",
"349 779 CURVE SMOOTH",
"380 779 OFFCURVE",
"394 765 OFFCURVE",
"404 727 CURVE SMOOTH",
"414 688 OFFCURVE",
"439 666 OFFCURVE",
"474 666 CURVE SMOOTH",
"515 666 OFFCURVE",
"543 693 OFFCURVE",
"543 732 CURVE SMOOTH",
"543 791 OFFCURVE",
"473 830 OFFCURVE",
"368 830 CURVE SMOOTH",
"258 830 OFFCURVE",
"165 780 OFFCURVE",
"133 703 CURVE SMOOTH",
"119 671 OFFCURVE",
"116 636 OFFCURVE",
"116 516 CURVE SMOOTH",
"116 55 LINE",
"31 35 LINE",
"31 0 LINE",
"394 0 LINE",
"394 35 LINE",
"271 55 LINE"
);
},
{
closed = 1;
nodes = (
"14 483 LINE",
"392 483 LINE",
"406 530 LINE",
"28 530 LINE"
);
}
);
width = 422;
}
);
leftKerningGroup = f;
rightKerningGroup = f;
unicode = 0066;
},
{
glyphname = g;
layers = (
{
anchors = (
{
name = top;
position = "{259, 651}";
}
);
background = {
paths = (
{
closed = 1;
nodes = (
"291 -260 OFFCURVE",
"378 -241 OFFCURVE",
"434 -196 CURVE SMOOTH",
"467 -169 OFFCURVE",
"489 -133 OFFCURVE",
"489 -81 CURVE SMOOTH",
"489 -37 OFFCURVE",
"473 20 OFFCURVE",
"362 46 CURVE SMOOTH",
"287 64 OFFCURVE",
"147 72 OFFCURVE",
"147 132 CURVE SMOOTH",
"147 170 OFFCURVE",
"205 182 OFFCURVE",
"255 192 CURVE SMOOTH",
"397 221 OFFCURVE",
"454 277 OFFCURVE",
"454 364 CURVE SMOOTH",
"454 421 OFFCURVE",
"430 462 OFFCURVE",
"392 494 CURVE",
"399 520 OFFCURVE",
"412 545 OFFCURVE",
"432 545 CURVE SMOOTH",
"453 545 OFFCURVE",
"453 519 OFFCURVE",
"481 519 CURVE SMOOTH",
"507 519 OFFCURVE",
"528 539 OFFCURVE",
"528 566 CURVE SMOOTH",
"528 597 OFFCURVE",
"500 616 OFFCURVE",
"470 616 CURVE SMOOTH",
"418 616 OFFCURVE",
"387 556 OFFCURVE",
"371 508 CURVE",
"339 528 OFFCURVE",
"299 540 OFFCURVE",
"254 540 CURVE SMOOTH",
"144 540 OFFCURVE",
"60 468 OFFCURVE",
"60 369 CURVE SMOOTH",
"60 286 OFFCURVE",
"118 226 OFFCURVE",
"195 205 CURVE",
"85 170 OFFCURVE",
"63 118 OFFCURVE",
"63 86 CURVE SMOOTH",
"63 53 OFFCURVE",
"86 24 OFFCURVE",
"131 4 CURVE",
"40 -35 OFFCURVE",
"7 -76 OFFCURVE",
"7 -129 CURVE SMOOTH",
"7 -173 OFFCURVE",
"30 -204 OFFCURVE",
"65 -225 CURVE SMOOTH",
"109 -251 OFFCURVE",
"172 -260 OFFCURVE",
"220 -260 CURVE SMOOTH"
);
},
{
closed = 1;
nodes = (
"376 -53 OFFCURVE",
"412 -70 OFFCURVE",
"412 -120 CURVE SMOOTH",
"412 -159 OFFCURVE",
"389 -187 OFFCURVE",
"354 -204 CURVE SMOOTH",
"322 -220 OFFCURVE",
"279 -228 OFFCURVE",
"239 -228 CURVE SMOOTH",
"197 -228 OFFCURVE",
"161 -219 OFFCURVE",
"134 -201 CURVE SMOOTH",
"105 -182 OFFCURVE",
"88 -153 OFFCURVE",
"88 -117 CURVE SMOOTH",
"88 -71 OFFCURVE",
"117 -27 OFFCURVE",
"164 -6 CURVE",
"199 -16 OFFCURVE",
"217 -20 OFFCURVE",
"261 -29 CURVE SMOOTH"
);
},
{
closed = 1;
nodes = (
"179 224 OFFCURVE",
"163 307 OFFCURVE",
"163 361 CURVE SMOOTH",
"163 417 OFFCURVE",
"180 512 OFFCURVE",
"260 512 CURVE SMOOTH",
"337 512 OFFCURVE",
"352 425 OFFCURVE",
"352 371 CURVE SMOOTH",
"352 306 OFFCURVE",
"331 224 OFFCURVE",
"255 224 CURVE SMOOTH"
);
}
);
};
layerId = UUID0;
paths = (
{
closed = 1;
nodes = (
"291 -260 OFFCURVE",
"378 -241 OFFCURVE",
"434 -196 CURVE SMOOTH",
"467 -169 OFFCURVE",
"489 -133 OFFCURVE",
"489 -82 CURVE SMOOTH",
"489 -37 OFFCURVE",
"472 21 OFFCURVE",
"362 46 CURVE SMOOTH",
"293 62 OFFCURVE",
"147 74 OFFCURVE",
"147 129 CURVE SMOOTH",
"147 163 OFFCURVE",
"204 188 OFFCURVE",
"255 192 CURVE SMOOTH",
"373 201 OFFCURVE",
"454 281 OFFCURVE",
"454 369 CURVE SMOOTH",
"454 416 OFFCURVE",
"431 462 OFFCURVE",
"392 494 CURVE",
"399 521 OFFCURVE",
"414 545 OFFCURVE",
"430 545 CURVE SMOOTH",
"455 545 OFFCURVE",
"452 519 OFFCURVE",
"481 519 CURVE SMOOTH",
"507 519 OFFCURVE",
"528 539 OFFCURVE",
"528 566 CURVE SMOOTH",
"528 597 OFFCURVE",
"500 616 OFFCURVE",
"470 616 CURVE SMOOTH",
"418 616 OFFCURVE",
"387 556 OFFCURVE",
"371 508 CURVE",
"339 528 OFFCURVE",
"299 540 OFFCURVE",
"254 540 CURVE SMOOTH",
"144 540 OFFCURVE",
"60 468 OFFCURVE",
"60 369 CURVE SMOOTH",
"60 286 OFFCURVE",
"118 226 OFFCURVE",
"195 205 CURVE",
"85 170 OFFCURVE",
"63 118 OFFCURVE",
"63 86 CURVE SMOOTH",
"63 53 OFFCURVE",
"86 24 OFFCURVE",
"131 4 CURVE",
"40 -35 OFFCURVE",
"7 -76 OFFCURVE",
"7 -129 CURVE SMOOTH",
"7 -173 OFFCURVE",
"30 -204 OFFCURVE",
"65 -225 CURVE SMOOTH",
"109 -251 OFFCURVE",
"172 -260 OFFCURVE",
"220 -260 CURVE SMOOTH"
);
},
{
closed = 1;
nodes = (
"378 -52 OFFCURVE",
"412 -73 OFFCURVE",
"412 -120 CURVE SMOOTH",
"412 -159 OFFCURVE",
"389 -187 OFFCURVE",
"354 -204 CURVE SMOOTH",
"322 -220 OFFCURVE",
"279 -228 OFFCURVE",
"239 -228 CURVE SMOOTH",
"197 -228 OFFCURVE",
"161 -219 OFFCURVE",
"134 -201 CURVE SMOOTH",
"105 -182 OFFCURVE",
"88 -153 OFFCURVE",
"88 -117 CURVE SMOOTH",
"88 -71 OFFCURVE",
"117 -27 OFFCURVE",
"164 -6 CURVE",
"191 -14 OFFCURVE",
"226 -22 OFFCURVE",
"261 -29 CURVE SMOOTH"
);
},
{
closed = 1;
nodes = (
"179 224 OFFCURVE",
"163 307 OFFCURVE",
"163 361 CURVE SMOOTH",
"163 417 OFFCURVE",
"180 512 OFFCURVE",
"260 512 CURVE SMOOTH",
"337 512 OFFCURVE",
"352 425 OFFCURVE",
"352 371 CURVE SMOOTH",
"352 306 OFFCURVE",
"331 224 OFFCURVE",
"255 224 CURVE SMOOTH"
);
}
);
width = 514;
},
{
background = {
paths = (
{
closed = 1;
nodes = (
"417 197 OFFCURVE",
"511 284 OFFCURVE",
"511 371 CURVE SMOOTH",
"511 458 OFFCURVE",
"416 540 OFFCURVE",
"280 540 CURVE SMOOTH",
"151 540 OFFCURVE",
"54 467 OFFCURVE",
"54 368 CURVE SMOOTH",
"54 264 OFFCURVE",
"162 197 OFFCURVE",
"281 197 CURVE SMOOTH"
);
},
{
closed = 1;
nodes = (
"225 239 OFFCURVE",
"213 312 OFFCURVE",
"213 360 CURVE SMOOTH",
"213 412 OFFCURVE",
"227 497 OFFCURVE",
"286 497 CURVE SMOOTH",
"342 497 OFFCURVE",
"353 420 OFFCURVE",
"353 372 CURVE SMOOTH",
"353 314 OFFCURVE",
"337 239 OFFCURVE",
"281 239 CURVE SMOOTH"
);
},
{
closed = 1;
nodes = (
"440 481 LINE",
"447 504 OFFCURVE",
"462 525 OFFCURVE",
"486 525 CURVE SMOOTH",
"512 525 OFFCURVE",
"517 499 OFFCURVE",
"551 499 CURVE SMOOTH",
"587 499 OFFCURVE",
"607 528 OFFCURVE",
"607 557 CURVE SMOOTH",
"607 593 OFFCURVE",
"576 616 OFFCURVE",
"535 616 CURVE SMOOTH",
"468 616 OFFCURVE",
"427 553 OFFCURVE",
"405 500 CURVE"
);
},
{
closed = 1;
nodes = (
"322 -259 OFFCURVE",
"424 -242 OFFCURVE",
"488 -197 CURVE SMOOTH",
"529 -168 OFFCURVE",
"551 -131 OFFCURVE",
"551 -77 CURVE SMOOTH",
"551 -27 OFFCURVE",
"532 35 OFFCURVE",
"431 60 CURVE SMOOTH",
"357 78 OFFCURVE",
"205 88 OFFCURVE",
"205 132 CURVE SMOOTH",
"205 174 OFFCURVE",
"341 184 OFFCURVE",
"393 219 CURVE",
"240 214 LINE",
"209 204 OFFCURVE",
"181 197 OFFCURVE",
"148 182 CURVE SMOOTH",
"100 160 OFFCURVE",
"57 128 OFFCURVE",
"57 78 CURVE SMOOTH",
"57 -7 OFFCURVE",
"183 -24 OFFCURVE",
"297 -50 CURVE SMOOTH",
"394 -72 OFFCURVE",
"437 -87 OFFCURVE",
"437 -126 CURVE SMOOTH",
"437 -155 OFFCURVE",
"414 -174 OFFCURVE",
"383 -187 CURVE SMOOTH",
"348 -202 OFFCURVE",
"302 -208 OFFCURVE",
"267 -208 CURVE SMOOTH",
"227 -208 OFFCURVE",
"190 -200 OFFCURVE",
"163 -186 CURVE SMOOTH",
"133 -170 OFFCURVE",
"116 -148 OFFCURVE",
"116 -116 CURVE SMOOTH",
"116 -69 OFFCURVE",
"151 -18 OFFCURVE",
"207 -1 CURVE",
"165 14 LINE",
"43 -29 OFFCURVE",
"-3 -72 OFFCURVE",
"-3 -129 CURVE SMOOTH",
"-3 -176 OFFCURVE",
"27 -205 OFFCURVE",
"63 -224 CURVE SMOOTH",
"118 -253 OFFCURVE",
"189 -259 OFFCURVE",
"239 -259 CURVE SMOOTH"
);
}
);
};
layerId = "1CCFBABC-759F-491A-B184-EA51E5B5BC4A";
paths = (
{
closed = 1;
nodes = (
"322 -259 OFFCURVE",
"424 -242 OFFCURVE",
"488 -197 CURVE SMOOTH",
"529 -168 OFFCURVE",
"551 -131 OFFCURVE",
"551 -77 CURVE SMOOTH",
"551 -27 OFFCURVE",
"532 37 OFFCURVE",
"400 67 CURVE SMOOTH",
"319 85 OFFCURVE",
"174 96 OFFCURVE",
"174 142 CURVE SMOOTH",
"174 164 OFFCURVE",
"207 187 OFFCURVE",
"285 195 CURVE SMOOTH",
"421 209 OFFCURVE",
"511 284 OFFCURVE",
"511 370 CURVE SMOOTH",
"511 415 OFFCURVE",
"486 459 OFFCURVE",
"443 490 CURVE",
"451 509 OFFCURVE",
"465 525 OFFCURVE",
"486 525 CURVE SMOOTH",
"512 525 OFFCURVE",
"517 499 OFFCURVE",
"551 499 CURVE SMOOTH",
"587 499 OFFCURVE",
"607 528 OFFCURVE",
"607 557 CURVE SMOOTH",
"607 593 OFFCURVE",
"576 616 OFFCURVE",
"535 616 CURVE SMOOTH",
"472 616 OFFCURVE",
"432 561 OFFCURVE",
"409 511 CURVE",
"373 529 OFFCURVE",
"329 540 OFFCURVE",
"280 540 CURVE SMOOTH",
"151 540 OFFCURVE",
"54 467 OFFCURVE",
"54 368 CURVE SMOOTH",
"54 285 OFFCURVE",
"123 225 OFFCURVE",
"211 205 CURVE",
"96 166 OFFCURVE",
"57 140 OFFCURVE",
"57 84 CURVE SMOOTH",
"57 39 OFFCURVE",
"83 15 OFFCURVE",
"121 -2 CURVE",
"32 -40 OFFCURVE",
"-3 -79 OFFCURVE",
"-3 -129 CURVE SMOOTH",
"-3 -176 OFFCURVE",
"27 -205 OFFCURVE",
"63 -224 CURVE SMOOTH",
"118 -253 OFFCURVE",
"189 -259 OFFCURVE",
"239 -259 CURVE SMOOTH"
);
},
{
closed = 1;
nodes = (
"394 -72 OFFCURVE",
"437 -87 OFFCURVE",
"437 -126 CURVE SMOOTH",
"437 -155 OFFCURVE",
"414 -174 OFFCURVE",
"384 -187 CURVE SMOOTH",
"348 -202 OFFCURVE",
"302 -208 OFFCURVE",
"267 -208 CURVE SMOOTH",
"226 -208 OFFCURVE",
"190 -200 OFFCURVE",
"163 -186 CURVE SMOOTH",
"132 -170 OFFCURVE",
"116 -148 OFFCURVE",
"116 -115 CURVE SMOOTH",
"116 -79 OFFCURVE",
"135 -43 OFFCURVE",
"168 -20 CURVE",
"213 -31 OFFCURVE",
"253 -40 OFFCURVE",
"302 -51 CURVE SMOOTH"
);
},
{
closed = 1;
nodes = (
"225 239 OFFCURVE",
"213 312 OFFCURVE",
"213 360 CURVE SMOOTH",
"213 412 OFFCURVE",
"227 497 OFFCURVE",
"286 497 CURVE SMOOTH",
"342 497 OFFCURVE",
"353 420 OFFCURVE",
"353 372 CURVE SMOOTH",
"353 314 OFFCURVE",
"337 239 OFFCURVE",
"281 239 CURVE SMOOTH"
);
}
);
width = 584;
}
);
leftKerningGroup = g;
rightKerningGroup = g;
unicode = 0067;
},
{
glyphname = gcommaaccent;
layers = (
{
background = {
paths = (
{
closed = 1;
nodes = (
"301 853 LINE",
"243 819 OFFCURVE",
"213 774 OFFCURVE",
"213 717 CURVE SMOOTH",
"213 681 OFFCURVE",
"235 651 OFFCURVE",
"267 651 CURVE SMOOTH",
"299 651 OFFCURVE",
"323 673 OFFCURVE",
"323 702 CURVE SMOOTH",
"323 749 OFFCURVE",
"274 741 OFFCURVE",
"274 777 CURVE SMOOTH",
"274 790 OFFCURVE",
"292 812 OFFCURVE",
"317 829 CURVE"
);
}
);
};
components = (
{
name = g;
}
);
layerId = UUID0;
paths = (
{
closed = 1;
nodes = (
"301 853 LINE",
"243 819 OFFCURVE",
"213 774 OFFCURVE",
"213 717 CURVE SMOOTH",
"213 681 OFFCURVE",
"235 651 OFFCURVE",
"267 651 CURVE SMOOTH",
"299 651 OFFCURVE",
"323 673 OFFCURVE",
"323 702 CURVE SMOOTH",
"323 749 OFFCURVE",
"274 741 OFFCURVE",
"274 777 CURVE SMOOTH",
"274 790 OFFCURVE",
"292 812 OFFCURVE",
"317 829 CURVE"
);
}
);
width = 514;
},
{
background = {
paths = (
{
closed = 1;
nodes = (
"326 860 LINE",
"263 832 OFFCURVE",
"227 785 OFFCURVE",
"227 729 CURVE SMOOTH",
"227 681 OFFCURVE",
"253 651 OFFCURVE",
"295 651 CURVE SMOOTH",
"334 651 OFFCURVE",
"362 674 OFFCURVE",
"362 704 CURVE SMOOTH",
"362 747 OFFCURVE",
"315 748 OFFCURVE",
"315 777 CURVE SMOOTH",
"315 792 OFFCURVE",
"329 816 OFFCURVE",
"349 835 CURVE"
);
}
);
};
components = (
{
name = g;
}
);
layerId = "1CCFBABC-759F-491A-B184-EA51E5B5BC4A";
paths = (
{
closed = 1;
nodes = (
"326 860 LINE",
"263 832 OFFCURVE",
"227 785 OFFCURVE",
"227 729 CURVE SMOOTH",
"227 681 OFFCURVE",
"253 651 OFFCURVE",
"295 651 CURVE SMOOTH",
"334 651 OFFCURVE",
"362 674 OFFCURVE",
"362 704 CURVE SMOOTH",
"362 747 OFFCURVE",
"315 748 OFFCURVE",
"315 777 CURVE SMOOTH",
"315 792 OFFCURVE",
"329 816 OFFCURVE",
"349 835 CURVE"
);
}
);
width = 584;
}
);
leftKerningGroup = g;
rightKerningGroup = g;
unicode = 0123;
},
{
glyphname = h;
layers = (
{
anchors = (
{
name = bottom;
position = "{313, 0}";
},
{
name = top;
position = "{389, 651}";
}
);
background = {
paths = (
{
closed = 1;
nodes = (
"194 35 LINE",
"194 830 LINE",
"184 830 LINE",
"25 782 LINE",
"25 768 LINE",
"99 741 LINE",
"99 35 LINE",
"23 20 LINE",
"23 0 LINE",
"269 0 LINE",
"269 20 LINE"
);
},
{
closed = 1;
nodes = (
"185 410 LINE",
"225 458 OFFCURVE",
"279 485 OFFCURVE",
"338 485 CURVE SMOOTH",
"378 485 OFFCURVE",
"403 470 OFFCURVE",
"416 439 CURVE SMOOTH",
"425 417 OFFCURVE",
"428 385 OFFCURVE",
"428 328 CURVE SMOOTH",
"428 34 LINE",
"353 20 LINE",
"353 0 LINE",
"598 0 LINE",
"598 20 LINE",
"523 34 LINE",
"523 338 LINE SMOOTH",
"523 434 OFFCURVE",
"521 459 OFFCURVE",
"510 480 CURVE SMOOTH",
"491 517 OFFCURVE",
"447 540 OFFCURVE",
"394 540 CURVE SMOOTH",
"324 540 OFFCURVE",
"248 507 OFFCURVE",
"185 449 CURVE"
);
}
);
};
layerId = UUID0;
paths = (
{
closed = 1;
nodes = (
"194 35 LINE",
"194 830 LINE",
"184 830 LINE",
"25 782 LINE",
"25 768 LINE",
"99 741 LINE",
"99 35 LINE",
"23 20 LINE",
"23 0 LINE",
"269 0 LINE",
"269 20 LINE"
);
},
{
closed = 1;
nodes = (
"185 410 LINE",
"225 458 OFFCURVE",
"279 485 OFFCURVE",
"338 485 CURVE SMOOTH",
"378 485 OFFCURVE",
"403 470 OFFCURVE",
"416 439 CURVE SMOOTH",
"425 417 OFFCURVE",
"428 385 OFFCURVE",
"428 328 CURVE SMOOTH",
"428 34 LINE",
"353 20 LINE",
"353 0 LINE",
"598 0 LINE",
"598 20 LINE",
"523 34 LINE",
"523 338 LINE SMOOTH",
"523 434 OFFCURVE",
"521 459 OFFCURVE",
"510 480 CURVE SMOOTH",
"491 517 OFFCURVE",
"447 540 OFFCURVE",
"394 540 CURVE SMOOTH",
"324 540 OFFCURVE",
"248 507 OFFCURVE",
"185 449 CURVE"
);
}
);
width = 619;
},
{
background = {
paths = (
{
closed = 1;
nodes = (
"249 55 LINE",
"249 830 LINE",
"227 830 LINE",
"18 781 LINE",
"18 758 LINE",
"94 730 LINE",
"94 55 LINE",
"19 35 LINE",
"19 0 LINE",
"319 0 LINE",
"319 35 LINE"
);
},
{
closed = 1;
nodes = (
"237 406 LINE",
"264 439 OFFCURVE",
"294 454 OFFCURVE",
"334 454 CURVE SMOOTH",
"380 454 OFFCURVE",
"407 434 OFFCURVE",
"423 399 CURVE SMOOTH",
"432 379 OFFCURVE",
"433 350 OFFCURVE",
"433 279 CURVE SMOOTH",
"433 55 LINE",
"363 35 LINE",
"363 0 LINE",
"663 0 LINE",
"663 35 LINE",
"588 55 LINE",
"588 318 LINE SMOOTH",
"588 410 OFFCURVE",
"585 435 OFFCURVE",
"573 460 CURVE SMOOTH",
"547 513 OFFCURVE",
"498 540 OFFCURVE",
"431 540 CURVE SMOOTH",
"362 540 OFFCURVE",
"283 511 OFFCURVE",
"237 469 CURVE"
);
}
);
};
layerId = "1CCFBABC-759F-491A-B184-EA51E5B5BC4A";
paths = (
{
closed = 1;
nodes = (
"249 55 LINE",
"249 830 LINE",
"227 830 LINE",
"18 781 LINE",
"18 758 LINE",
"94 730 LINE",
"94 55 LINE",
"19 35 LINE",
"19 0 LINE",
"319 0 LINE",
"319 35 LINE"
);
},
{
closed = 1;
nodes = (
"237 406 LINE",
"264 439 OFFCURVE",
"294 454 OFFCURVE",
"334 454 CURVE SMOOTH",
"380 454 OFFCURVE",
"407 434 OFFCURVE",
"423 399 CURVE SMOOTH",
"432 379 OFFCURVE",
"433 350 OFFCURVE",
"433 279 CURVE SMOOTH",
"433 55 LINE",
"363 35 LINE",
"363 0 LINE",
"663 0 LINE",
"663 35 LINE",
"588 55 LINE",
"588 318 LINE SMOOTH",
"588 410 OFFCURVE",
"585 435 OFFCURVE",
"573 460 CURVE SMOOTH",
"547 513 OFFCURVE",
"498 540 OFFCURVE",
"431 540 CURVE SMOOTH",
"362 540 OFFCURVE",
"283 511 OFFCURVE",
"237 469 CURVE"
);
}
);
width = 681;
}
);
leftKerningGroup = h;
rightKerningGroup = n;
unicode = 0068;
},
{
glyphname = hbar;
layers = (
{
background = {
paths = (
{
closed = 1;
nodes = (
"332 609 LINE",
"332 674 LINE",
"25 674 LINE",
"25 609 LINE"
);
}
);
};
components = (
{
name = h;
}
);
layerId = UUID0;
paths = (
{
closed = 1;
nodes = (
"332 609 LINE",
"332 674 LINE",
"25 674 LINE",
"25 609 LINE"
);
}
);
width = 619;
},
{
background = {
paths = (
{
closed = 1;
nodes = (
"382 599 LINE",
"382 684 LINE",
"35 684 LINE",
"35 599 LINE"
);
}
);
};
components = (
{
name = h;
}
);
layerId = "1CCFBABC-759F-491A-B184-EA51E5B5BC4A";
paths = (
{
closed = 1;
nodes = (
"382 599 LINE",
"382 684 LINE",
"35 684 LINE",
"35 599 LINE"
);
}
);
width = 681;
}
);
leftKerningGroup = h;
rightKerningGroup = n;
unicode = 0127;
},
{
glyphname = i;
layers = (
{
anchors = (
{
name = bottom;
position = "{154, 0}";
}
);
background = {
paths = (
{
closed = 1;
nodes = (
"90 680 OFFCURVE",
"115 651 OFFCURVE",
"154 651 CURVE SMOOTH",
"194 651 OFFCURVE",
"219 680 OFFCURVE",
"219 715 CURVE SMOOTH",
"219 752 OFFCURVE",
"194 780 OFFCURVE",
"154 780 CURVE SMOOTH",
"115 780 OFFCURVE",
"90 752 OFFCURVE",
"90 715 CURVE SMOOTH"
);
},
{
closed = 1;
nodes = (
"202 35 LINE",
"202 540 LINE",
"193 540 LINE",
"33 492 LINE",
"33 478 LINE",
"107 451 LINE",
"107 35 LINE",
"31 20 LINE",
"31 0 LINE",
"277 0 LINE",
"277 20 LINE"
);
}
);
};
layerId = UUID0;
paths = (
{
closed = 1;
nodes = (
"90 680 OFFCURVE",
"115 651 OFFCURVE",
"154 651 CURVE SMOOTH",
"194 651 OFFCURVE",
"219 680 OFFCURVE",
"219 715 CURVE SMOOTH",
"219 752 OFFCURVE",
"194 780 OFFCURVE",
"154 780 CURVE SMOOTH",
"115 780 OFFCURVE",
"90 752 OFFCURVE",
"90 715 CURVE SMOOTH"
);
},
{
closed = 1;
nodes = (
"202 35 LINE",
"202 540 LINE",
"193 540 LINE",
"33 492 LINE",
"33 478 LINE",
"107 451 LINE",
"107 35 LINE",
"31 20 LINE",
"31 0 LINE",
"277 0 LINE",
"277 20 LINE"
);
}
);
width = 300;
},
{
background = {
paths = (
{
closed = 1;
nodes = (
"99 656 OFFCURVE",
"129 615 OFFCURVE",
"185 615 CURVE SMOOTH",
"244 615 OFFCURVE",
"274 656 OFFCURVE",
"274 697 CURVE SMOOTH",
"274 741 OFFCURVE",
"240 780 OFFCURVE",
"185 780 CURVE SMOOTH",
"131 780 OFFCURVE",
"99 741 OFFCURVE",
"99 697 CURVE SMOOTH"
);
},
{
closed = 1;
nodes = (
"264 55 LINE",
"264 540 LINE",
"243 540 LINE",
"24 492 LINE",
"24 468 LINE",
"109 441 LINE",
"109 55 LINE",
"24 35 LINE",
"24 0 LINE",
"344 0 LINE",
"344 35 LINE"
);
}
);
};
layerId = "1CCFBABC-759F-491A-B184-EA51E5B5BC4A";
paths = (
{
closed = 1;
nodes = (
"99 656 OFFCURVE",
"129 615 OFFCURVE",
"185 615 CURVE SMOOTH",
"244 615 OFFCURVE",
"274 656 OFFCURVE",
"274 697 CURVE SMOOTH",
"274 741 OFFCURVE",
"240 780 OFFCURVE",
"185 780 CURVE SMOOTH",
"131 780 OFFCURVE",
"99 741 OFFCURVE",
"99 697 CURVE SMOOTH"
);
},
{
closed = 1;
nodes = (
"264 55 LINE",
"264 540 LINE",
"243 540 LINE",
"24 492 LINE",
"24 468 LINE",
"109 441 LINE",
"109 55 LINE",
"24 35 LINE",
"24 0 LINE",
"344 0 LINE",
"344 35 LINE"
);
}
);
width = 360;
}
);
leftKerningGroup = i;
rightKerningGroup = i;
unicode = 0069;
},
{
glyphname = dotlessi;
layers = (
{
anchors = (
{
name = top;
position = "{154, 651}";
}
);
background = {
paths = (
{
closed = 1;
nodes = (
"202 35 LINE",
"202 540 LINE",
"193 540 LINE",
"33 492 LINE",
"33 478 LINE",
"107 451 LINE",
"107 35 LINE",
"31 20 LINE",
"31 0 LINE",
"277 0 LINE",
"277 20 LINE"
);
}
);
};
layerId = UUID0;
paths = (
{
closed = 1;
nodes = (
"202 35 LINE",
"202 540 LINE",
"193 540 LINE",
"33 492 LINE",
"33 478 LINE",
"107 451 LINE",
"107 35 LINE",
"31 20 LINE",
"31 0 LINE",
"277 0 LINE",
"277 20 LINE"
);
}
);
width = 300;
},
{
background = {
paths = (
{
closed = 1;
nodes = (
"264 55 LINE",
"264 540 LINE",
"243 540 LINE",
"24 492 LINE",
"24 468 LINE",
"109 441 LINE",
"109 55 LINE",
"24 35 LINE",
"24 0 LINE",
"344 0 LINE",
"344 35 LINE"
);
}
);
};
layerId = "1CCFBABC-759F-491A-B184-EA51E5B5BC4A";
paths = (
{
closed = 1;
nodes = (
"264 55 LINE",
"264 540 LINE",
"243 540 LINE",
"24 492 LINE",
"24 468 LINE",
"109 441 LINE",
"109 55 LINE",
"24 35 LINE",
"24 0 LINE",
"344 0 LINE",
"344 35 LINE"
);
}
);
width = 360;
}
);
leftKerningGroup = i;
rightKerningGroup = i;
unicode = 0131;
},
{
glyphname = j;
layers = (
{
background = {
paths = (
{
closed = 1;
nodes = (
"99 -48 LINE SMOOTH",
"99 -159 OFFCURVE",
"72 -213 OFFCURVE",
"16 -213 CURVE SMOOTH",
"-9 -213 OFFCURVE",
"-20 -202 OFFCURVE",
"-34 -164 CURVE SMOOTH",
"-45 -134 OFFCURVE",
"-61 -118 OFFCURVE",
"-89 -118 CURVE SMOOTH",
"-122 -118 OFFCURVE",
"-143 -141 OFFCURVE",
"-143 -178 CURVE SMOOTH",
"-143 -229 OFFCURVE",
"-101 -260 OFFCURVE",
"-33 -260 CURVE SMOOTH",
"47 -260 OFFCURVE",
"115 -215 OFFCURVE",
"161 -131 CURVE SMOOTH",
"190 -78 OFFCURVE",
"194 -41 OFFCURVE",
"194 155 CURVE SMOOTH",
"194 540 LINE",
"185 540 LINE",
"25 492 LINE",
"25 478 LINE",
"99 451 LINE"
);
},
{
closed = 1;
nodes = (
"82 678 OFFCURVE",
"108 651 OFFCURVE",
"146 651 CURVE SMOOTH",
"184 651 OFFCURVE",
"211 678 OFFCURVE",
"211 716 CURVE SMOOTH",
"211 753 OFFCURVE",
"184 780 OFFCURVE",
"146 780 CURVE SMOOTH",
"108 780 OFFCURVE",
"82 753 OFFCURVE",
"82 716 CURVE SMOOTH"
);
}
);
};
layerId = UUID0;
paths = (
{
closed = 1;
nodes = (
"99 -48 LINE SMOOTH",
"99 -159 OFFCURVE",
"72 -213 OFFCURVE",
"16 -213 CURVE SMOOTH",
"-9 -213 OFFCURVE",
"-20 -202 OFFCURVE",
"-34 -164 CURVE SMOOTH",
"-45 -134 OFFCURVE",
"-61 -118 OFFCURVE",
"-89 -118 CURVE SMOOTH",
"-122 -118 OFFCURVE",
"-143 -141 OFFCURVE",
"-143 -178 CURVE SMOOTH",
"-143 -229 OFFCURVE",
"-101 -260 OFFCURVE",
"-33 -260 CURVE SMOOTH",
"47 -260 OFFCURVE",
"115 -215 OFFCURVE",
"161 -131 CURVE SMOOTH",
"190 -78 OFFCURVE",
"194 -41 OFFCURVE",
"194 155 CURVE SMOOTH",
"194 540 LINE",
"185 540 LINE",
"25 492 LINE",
"25 478 LINE",
"99 451 LINE"
);
},
{
closed = 1;
nodes = (
"82 678 OFFCURVE",
"108 651 OFFCURVE",
"146 651 CURVE SMOOTH",
"184 651 OFFCURVE",
"211 678 OFFCURVE",
"211 716 CURVE SMOOTH",
"211 753 OFFCURVE",
"184 780 OFFCURVE",
"146 780 CURVE SMOOTH",
"108 780 OFFCURVE",
"82 753 OFFCURVE",
"82 716 CURVE SMOOTH"
);
}
);
width = 280;
},
{
background = {
paths = (
{
closed = 1;
nodes = (
"96 -48 LINE",
"96 -156 OFFCURVE",
"72 -208 OFFCURVE",
"24 -208 CURVE SMOOTH",
"-4 -208 OFFCURVE",
"-20 -192 OFFCURVE",
"-43 -144 CURVE SMOOTH",
"-61 -108 OFFCURVE",
"-78 -96 OFFCURVE",
"-109 -96 CURVE SMOOTH",
"-150 -96 OFFCURVE",
"-176 -120 OFFCURVE",
"-176 -158 CURVE SMOOTH",
"-176 -219 OFFCURVE",
"-105 -260 OFFCURVE",
"1 -260 CURVE SMOOTH",
"99 -260 OFFCURVE",
"163 -225 OFFCURVE",
"209 -146 CURVE SMOOTH",
"241 -91 OFFCURVE",
"251 -40 OFFCURVE",
"251 69 CURVE SMOOTH",
"251 540 LINE",
"230 540 LINE",
"11 492 LINE",
"11 468 LINE",
"96 441 LINE"
);
},
{
closed = 1;
nodes = (
"86 656 OFFCURVE",
"116 615 OFFCURVE",
"172 615 CURVE SMOOTH",
"231 615 OFFCURVE",
"261 656 OFFCURVE",
"261 697 CURVE SMOOTH",
"261 741 OFFCURVE",
"227 780 OFFCURVE",
"172 780 CURVE SMOOTH",
"118 780 OFFCURVE",
"86 741 OFFCURVE",
"86 697 CURVE SMOOTH"
);
}
);
};
layerId = "1CCFBABC-759F-491A-B184-EA51E5B5BC4A";
paths = (
{
closed = 1;
nodes = (
"96 -48 LINE",
"96 -156 OFFCURVE",
"72 -208 OFFCURVE",
"24 -208 CURVE SMOOTH",
"-4 -208 OFFCURVE",
"-20 -192 OFFCURVE",
"-43 -144 CURVE SMOOTH",
"-61 -108 OFFCURVE",
"-78 -96 OFFCURVE",
"-109 -96 CURVE SMOOTH",
"-150 -96 OFFCURVE",
"-176 -120 OFFCURVE",
"-176 -158 CURVE SMOOTH",
"-176 -219 OFFCURVE",
"-105 -260 OFFCURVE",
"1 -260 CURVE SMOOTH",
"99 -260 OFFCURVE",
"163 -225 OFFCURVE",
"209 -146 CURVE SMOOTH",
"241 -91 OFFCURVE",
"251 -40 OFFCURVE",
"251 69 CURVE SMOOTH",
"251 540 LINE",
"230 540 LINE",
"11 492 LINE",
"11 468 LINE",
"96 441 LINE"
);
},
{
closed = 1;
nodes = (
"86 656 OFFCURVE",
"116 615 OFFCURVE",
"172 615 CURVE SMOOTH",
"231 615 OFFCURVE",
"261 656 OFFCURVE",
"261 697 CURVE SMOOTH",
"261 741 OFFCURVE",
"227 780 OFFCURVE",
"172 780 CURVE SMOOTH",
"118 780 OFFCURVE",
"86 741 OFFCURVE",
"86 697 CURVE SMOOTH"
);
}
);
width = 330;
}
);
leftKerningGroup = j;
rightKerningGroup = j;
unicode = 006A;
},
{
glyphname = dotlessj;
layers = (
{
anchors = (
{
name = top;
position = "{148, 651}";
}
);
background = {
paths = (
{
closed = 1;
nodes = (
"99 -48 LINE SMOOTH",
"99 -159 OFFCURVE",
"72 -213 OFFCURVE",
"16 -213 CURVE SMOOTH",
"-9 -213 OFFCURVE",
"-20 -202 OFFCURVE",
"-34 -164 CURVE SMOOTH",
"-45 -134 OFFCURVE",
"-61 -118 OFFCURVE",
"-89 -118 CURVE SMOOTH",
"-122 -118 OFFCURVE",
"-143 -141 OFFCURVE",
"-143 -178 CURVE SMOOTH",
"-143 -229 OFFCURVE",
"-101 -260 OFFCURVE",
"-33 -260 CURVE SMOOTH",
"47 -260 OFFCURVE",
"115 -215 OFFCURVE",
"161 -131 CURVE SMOOTH",
"190 -78 OFFCURVE",
"194 -41 OFFCURVE",
"194 155 CURVE SMOOTH",
"194 540 LINE",
"185 540 LINE",
"25 492 LINE",
"25 478 LINE",
"99 451 LINE"
);
}
);
};
layerId = UUID0;
paths = (
{
closed = 1;
nodes = (
"99 -48 LINE SMOOTH",
"99 -159 OFFCURVE",
"72 -213 OFFCURVE",
"16 -213 CURVE SMOOTH",
"-9 -213 OFFCURVE",
"-20 -202 OFFCURVE",
"-34 -164 CURVE SMOOTH",
"-45 -134 OFFCURVE",
"-61 -118 OFFCURVE",
"-89 -118 CURVE SMOOTH",
"-122 -118 OFFCURVE",
"-143 -141 OFFCURVE",
"-143 -178 CURVE SMOOTH",
"-143 -229 OFFCURVE",
"-101 -260 OFFCURVE",
"-33 -260 CURVE SMOOTH",
"47 -260 OFFCURVE",
"115 -215 OFFCURVE",
"161 -131 CURVE SMOOTH",
"190 -78 OFFCURVE",
"194 -41 OFFCURVE",
"194 155 CURVE SMOOTH",
"194 540 LINE",
"185 540 LINE",
"25 492 LINE",
"25 478 LINE",
"99 451 LINE"
);
}
);
width = 280;
},
{
background = {
paths = (
{
closed = 1;
nodes = (
"96 -48 LINE SMOOTH",
"96 -156 OFFCURVE",
"72 -208 OFFCURVE",
"24 -208 CURVE SMOOTH",
"-4 -208 OFFCURVE",
"-20 -192 OFFCURVE",
"-43 -144 CURVE SMOOTH",
"-61 -108 OFFCURVE",
"-78 -96 OFFCURVE",
"-109 -96 CURVE SMOOTH",
"-150 -96 OFFCURVE",
"-176 -120 OFFCURVE",
"-176 -158 CURVE SMOOTH",
"-176 -219 OFFCURVE",
"-105 -260 OFFCURVE",
"1 -260 CURVE SMOOTH",
"99 -260 OFFCURVE",
"163 -225 OFFCURVE",
"209 -146 CURVE SMOOTH",
"241 -91 OFFCURVE",
"251 -40 OFFCURVE",
"251 69 CURVE SMOOTH",
"251 540 LINE",
"230 540 LINE",
"11 492 LINE",
"11 468 LINE",
"96 441 LINE"
);
}
);
};
layerId = "1CCFBABC-759F-491A-B184-EA51E5B5BC4A";
paths = (
{
closed = 1;
nodes = (
"96 -48 LINE SMOOTH",
"96 -156 OFFCURVE",
"72 -208 OFFCURVE",
"24 -208 CURVE SMOOTH",
"-4 -208 OFFCURVE",
"-20 -192 OFFCURVE",
"-43 -144 CURVE SMOOTH",
"-61 -108 OFFCURVE",
"-78 -96 OFFCURVE",
"-109 -96 CURVE SMOOTH",
"-150 -96 OFFCURVE",
"-176 -120 OFFCURVE",
"-176 -158 CURVE SMOOTH",
"-176 -219 OFFCURVE",
"-105 -260 OFFCURVE",
"1 -260 CURVE SMOOTH",
"99 -260 OFFCURVE",
"163 -225 OFFCURVE",
"209 -146 CURVE SMOOTH",
"241 -91 OFFCURVE",
"251 -40 OFFCURVE",
"251 69 CURVE SMOOTH",
"251 540 LINE",
"230 540 LINE",
"11 492 LINE",
"11 468 LINE",
"96 441 LINE"
);
}
);
width = 330;
}
);
leftKerningGroup = j;
rightKerningGroup = j;
unicode = 0237;
},
{
glyphname = k;
layers = (
{
anchors = (
{
name = bottom;
position = "{326, 0}";
}
);
background = {
paths = (
{
closed = 1;
nodes = (
"221 263 LINE",
"437 0 LINE",
"612 0 LINE",
"612 20 LINE",
"528 35 LINE",
"281 332 LINE"
);
},
{
closed = 1;
nodes = (
"191 35 LINE",
"191 830 LINE",
"181 830 LINE",
"26 781 LINE",
"26 768 LINE",
"99 741 LINE",
"99 35 LINE",
"23 20 LINE",
"23 0 LINE",
"266 0 LINE",
"266 20 LINE"
);
},
{
closed = 1;
nodes = (
"305 510 LINE",
"364 503 OFFCURVE",
"379 498 OFFCURVE",
"379 486 CURVE SMOOTH",
"379 478 OFFCURVE",
"372 466 OFFCURVE",
"358 450 CURVE SMOOTH",
"163 229 LINE",
"169 181 LINE",
"403 453 LINE SMOOTH",
"433 488 OFFCURVE",
"448 495 OFFCURVE",
"529 510 CURVE",
"529 530 LINE",
"305 530 LINE"
);
}
);
};
layerId = UUID0;
paths = (
{
closed = 1;
nodes = (
"221 263 LINE",
"437 0 LINE",
"612 0 LINE",
"612 20 LINE",
"528 35 LINE",
"281 332 LINE"
);
},
{
closed = 1;
nodes = (
"191 35 LINE",
"191 830 LINE",
"181 830 LINE",
"26 781 LINE",
"26 768 LINE",
"99 741 LINE",
"99 35 LINE",
"23 20 LINE",
"23 0 LINE",
"266 0 LINE",
"266 20 LINE"
);
},
{
closed = 1;
nodes = (
"305 510 LINE",
"364 503 OFFCURVE",
"379 498 OFFCURVE",
"379 486 CURVE SMOOTH",
"379 478 OFFCURVE",
"372 466 OFFCURVE",
"358 450 CURVE SMOOTH",
"163 229 LINE",
"169 181 LINE",
"403 453 LINE SMOOTH",
"433 488 OFFCURVE",
"448 495 OFFCURVE",
"529 510 CURVE",
"529 530 LINE",
"305 530 LINE"
);
}
);
width = 591;
},
{
background = {
paths = (
{
closed = 1;
nodes = (
"305 250 LINE",
"450 0 LINE",
"682 0 LINE",
"682 35 LINE",
"600 55 LINE",
"396 374 LINE"
);
},
{
closed = 1;
nodes = (
"255 55 LINE",
"255 830 LINE",
"233 830 LINE",
"15 781 LINE",
"15 758 LINE",
"100 731 LINE",
"100 55 LINE",
"15 35 LINE",
"15 0 LINE",
"342 0 LINE",
"342 35 LINE"
);
},
{
closed = 1;
nodes = (
"357 495 LINE",
"425 488 OFFCURVE",
"443 483 OFFCURVE",
"443 471 CURVE SMOOTH",
"443 463 OFFCURVE",
"434 452 OFFCURVE",
"418 435 CURVE SMOOTH",
"203 209 LINE",
"225 161 LINE",
"496 438 LINE SMOOTH",
"529 471 OFFCURVE",
"543 482 OFFCURVE",
"632 495 CURVE",
"632 530 LINE",
"357 530 LINE"
);
}
);
};
layerId = "1CCFBABC-759F-491A-B184-EA51E5B5BC4A";
paths = (
{
closed = 1;
nodes = (
"305 250 LINE",
"450 0 LINE",
"682 0 LINE",
"682 35 LINE",
"600 55 LINE",
"396 374 LINE"
);
},
{
closed = 1;
nodes = (
"255 55 LINE",
"255 830 LINE",
"233 830 LINE",
"15 781 LINE",
"15 758 LINE",
"100 731 LINE",
"100 55 LINE",
"15 35 LINE",
"15 0 LINE",
"342 0 LINE",
"342 35 LINE"
);
},
{
closed = 1;
nodes = (
"357 495 LINE",
"425 488 OFFCURVE",
"443 483 OFFCURVE",
"443 471 CURVE SMOOTH",
"443 463 OFFCURVE",
"434 452 OFFCURVE",
"418 435 CURVE SMOOTH",
"203 209 LINE",
"225 161 LINE",
"496 438 LINE SMOOTH",
"529 471 OFFCURVE",
"543 482 OFFCURVE",
"632 495 CURVE",
"632 530 LINE",
"357 530 LINE"
);
}
);
width = 668;
}
);
leftKerningGroup = h;
rightKerningGroup = k;
unicode = 006B;
},
{
glyphname = kgreenlandic;
layers = (
{
background = {
paths = (
{
closed = 1;
nodes = (
"229 263 LINE",
"445 0 LINE",
"620 0 LINE",
"620 20 LINE",
"536 35 LINE",
"289 332 LINE"
);
},
{
closed = 1;
nodes = (
"199 35 LINE",
"199 540 LINE",
"189 540 LINE",
"34 491 LINE",
"34 478 LINE",
"107 451 LINE",
"107 35 LINE",
"31 20 LINE",
"31 0 LINE",
"274 0 LINE",
"274 20 LINE"
);
},
{
closed = 1;
nodes = (
"313 510 LINE",
"372 503 OFFCURVE",
"387 498 OFFCURVE",
"387 486 CURVE SMOOTH",
"387 478 OFFCURVE",
"380 466 OFFCURVE",
"366 450 CURVE SMOOTH",
"171 229 LINE",
"177 181 LINE",
"411 453 LINE SMOOTH",
"441 488 OFFCURVE",
"456 495 OFFCURVE",
"537 510 CURVE",
"537 530 LINE",
"313 530 LINE"
);
}
);
};
layerId = UUID0;
paths = (
{
closed = 1;
nodes = (
"229 263 LINE",
"445 0 LINE",
"620 0 LINE",
"620 20 LINE",
"536 35 LINE",
"289 332 LINE"
);
},
{
closed = 1;
nodes = (
"199 35 LINE",
"199 540 LINE",
"189 540 LINE",
"34 491 LINE",
"34 478 LINE",
"107 451 LINE",
"107 35 LINE",
"31 20 LINE",
"31 0 LINE",
"274 0 LINE",
"274 20 LINE"
);
},
{
closed = 1;
nodes = (
"313 510 LINE",
"372 503 OFFCURVE",
"387 498 OFFCURVE",
"387 486 CURVE SMOOTH",
"387 478 OFFCURVE",
"380 466 OFFCURVE",
"366 450 CURVE SMOOTH",
"171 229 LINE",
"177 181 LINE",
"411 453 LINE SMOOTH",
"441 488 OFFCURVE",
"456 495 OFFCURVE",
"537 510 CURVE",
"537 530 LINE",
"313 530 LINE"
);
}
);
width = 599;
},
{
background = {
paths = (
{
closed = 1;
nodes = (
"314 250 LINE",
"459 0 LINE",
"691 0 LINE",
"691 35 LINE",
"609 55 LINE",
"405 374 LINE"
);
},
{
closed = 1;
nodes = (
"264 55 LINE",
"264 540 LINE",
"242 540 LINE",
"24 491 LINE",
"24 468 LINE",
"109 441 LINE",
"109 55 LINE",
"24 35 LINE",
"24 0 LINE",
"351 0 LINE",
"351 35 LINE"
);
},
{
closed = 1;
nodes = (
"366 495 LINE",
"434 488 OFFCURVE",
"452 483 OFFCURVE",
"452 471 CURVE SMOOTH",
"452 463 OFFCURVE",
"443 452 OFFCURVE",
"427 435 CURVE SMOOTH",
"212 209 LINE",
"234 161 LINE",
"505 438 LINE SMOOTH",
"538 471 OFFCURVE",
"552 482 OFFCURVE",
"641 495 CURVE",
"641 530 LINE",
"366 530 LINE"
);
}
);
};
layerId = "1CCFBABC-759F-491A-B184-EA51E5B5BC4A";
paths = (
{
closed = 1;
nodes = (
"314 250 LINE",
"459 0 LINE",
"691 0 LINE",
"691 35 LINE",
"609 55 LINE",
"405 374 LINE"
);
},
{
closed = 1;
nodes = (
"264 55 LINE",
"264 540 LINE",
"242 540 LINE",
"24 491 LINE",
"24 468 LINE",
"109 441 LINE",
"109 55 LINE",
"24 35 LINE",
"24 0 LINE",
"351 0 LINE",
"351 35 LINE"
);
},
{
closed = 1;
nodes = (
"366 495 LINE",
"434 488 OFFCURVE",
"452 483 OFFCURVE",
"452 471 CURVE SMOOTH",
"452 463 OFFCURVE",
"443 452 OFFCURVE",
"427 435 CURVE SMOOTH",
"212 209 LINE",
"234 161 LINE",
"505 438 LINE SMOOTH",
"538 471 OFFCURVE",
"552 482 OFFCURVE",
"641 495 CURVE",
"641 530 LINE",
"366 530 LINE"
);
}
);
width = 677;
}
);
unicode = 0138;
},
{
glyphname = l;
layers = (
{
anchors = (
{
name = bottom;
position = "{144, 0}";
},
{
name = topcap;
position = "{144, 857}";
}
);
background = {
paths = (
{
closed = 1;
nodes = (
"191 34 LINE",
"191 830 LINE",
"182 830 LINE",
"29 781 LINE",
"29 768 LINE",
"99 742 LINE",
"99 34 LINE",
"29 19 LINE",
"29 0 LINE",
"260 0 LINE",
"260 19 LINE"
);
}
);
};
layerId = UUID0;
paths = (
{
closed = 1;
nodes = (
"191 34 LINE",
"191 830 LINE",
"182 830 LINE",
"29 781 LINE",
"29 768 LINE",
"99 742 LINE",
"99 34 LINE",
"29 19 LINE",
"29 0 LINE",
"260 0 LINE",
"260 19 LINE"
);
}
);
width = 289;
},
{
background = {
paths = (
{
closed = 1;
nodes = (
"257 55 LINE",
"257 830 LINE",
"236 830 LINE",
"17 782 LINE",
"17 758 LINE",
"102 731 LINE",
"102 55 LINE",
"17 35 LINE",
"17 0 LINE",
"337 0 LINE",
"337 35 LINE"
);
}
);
};
layerId = "1CCFBABC-759F-491A-B184-EA51E5B5BC4A";
paths = (
{
closed = 1;
nodes = (
"257 55 LINE",
"257 830 LINE",
"236 830 LINE",
"17 782 LINE",
"17 758 LINE",
"102 731 LINE",
"102 55 LINE",
"17 35 LINE",
"17 0 LINE",
"337 0 LINE",
"337 35 LINE"
);
}
);
width = 356;
}
);
leftKerningGroup = l;
rightKerningGroup = l;
unicode = 006C;
},
{
glyphname = lacute;
layers = (
{
background = {
paths = (
{
closed = 1;
nodes = (
"27 837 LINE",
"171 944 LINE SMOOTH",
"186 955 OFFCURVE",
"199 960 OFFCURVE",
"215 960 CURVE SMOOTH",
"237 960 OFFCURVE",
"258 942 OFFCURVE",
"258 917 CURVE SMOOTH",
"258 894 OFFCURVE",
"242 875 OFFCURVE",
"190 860 CURVE SMOOTH",
"38 816 LINE"
);
},
{
closed = 1;
nodes = (
"191 34 LINE",
"191 830 LINE",
"182 830 LINE",
"29 781 LINE",
"29 768 LINE",
"99 742 LINE",
"99 34 LINE",
"29 19 LINE",
"29 0 LINE",
"260 0 LINE",
"260 19 LINE"
);
}
);
};
layerId = UUID0;
paths = (
{
closed = 1;
nodes = (
"27 837 LINE",
"171 944 LINE SMOOTH",
"186 955 OFFCURVE",
"199 960 OFFCURVE",
"215 960 CURVE SMOOTH",
"237 960 OFFCURVE",
"258 942 OFFCURVE",
"258 917 CURVE SMOOTH",
"258 894 OFFCURVE",
"242 875 OFFCURVE",
"190 860 CURVE SMOOTH",
"38 816 LINE"
);
},
{
closed = 1;
nodes = (
"191 34 LINE",
"191 830 LINE",
"182 830 LINE",
"29 781 LINE",
"29 768 LINE",
"99 742 LINE",
"99 34 LINE",
"29 19 LINE",
"29 0 LINE",
"260 0 LINE",
"260 19 LINE"
);
}
);
width = 289;
},
{
background = {
paths = (
{
closed = 1;
nodes = (
"35 837 LINE",
"179 944 LINE SMOOTH",
"194 955 OFFCURVE",
"207 960 OFFCURVE",
"223 960 CURVE SMOOTH",
"245 960 OFFCURVE",
"266 942 OFFCURVE",
"266 917 CURVE SMOOTH",
"266 894 OFFCURVE",
"250 875 OFFCURVE",
"198 860 CURVE SMOOTH",
"46 816 LINE"
);
},
{
closed = 1;
nodes = (
"257 55 LINE",
"257 830 LINE",
"236 830 LINE",
"17 782 LINE",
"17 758 LINE",
"102 731 LINE",
"102 55 LINE",
"17 35 LINE",
"17 0 LINE",
"337 0 LINE",
"337 35 LINE"
);
}
);
};
layerId = "1CCFBABC-759F-491A-B184-EA51E5B5BC4A";
paths = (
{
closed = 1;
nodes = (
"35 837 LINE",
"179 944 LINE SMOOTH",
"194 955 OFFCURVE",
"207 960 OFFCURVE",
"223 960 CURVE SMOOTH",
"245 960 OFFCURVE",
"266 942 OFFCURVE",
"266 917 CURVE SMOOTH",
"266 894 OFFCURVE",
"250 875 OFFCURVE",
"198 860 CURVE SMOOTH",
"46 816 LINE"
);
},
{
closed = 1;
nodes = (
"257 55 LINE",
"257 830 LINE",
"236 830 LINE",
"17 782 LINE",
"17 758 LINE",
"102 731 LINE",
"102 55 LINE",
"17 35 LINE",
"17 0 LINE",
"337 0 LINE",
"337 35 LINE"
);
}
);
width = 356;
}
);
leftKerningGroup = l;
rightKerningGroup = l;
unicode = 013A;
},
{
glyphname = lslash;
layers = (
{
background = {
paths = (
{
closed = 1;
nodes = (
"282 447 LINE",
"282 512 LINE",
"19 371 LINE",
"19 306 LINE"
);
}
);
};
components = (
{
name = l;
transform = "{1, 0, 0, 1, 3, 0}";
}
);
layerId = UUID0;
paths = (
{
closed = 1;
nodes = (
"19 306 LINE",
"282 447 LINE",
"282 512 LINE",
"19 371 LINE"
);
}
);
width = 298;
},
{
background = {
paths = (
{
closed = 1;
nodes = (
"341 452 LINE",
"341 547 LINE",
"29 381 LINE",
"29 286 LINE"
);
}
);
};
components = (
{
name = l;
transform = "{1, 0, 0, 1, 2, 0}";
}
);
layerId = "1CCFBABC-759F-491A-B184-EA51E5B5BC4A";
paths = (
{
closed = 1;
nodes = (
"29 286 LINE",
"341 452 LINE",
"341 547 LINE",
"29 381 LINE"
);
}
);
width = 360;
}
);
leftKerningGroup = l;
rightKerningGroup = l;
unicode = 0142;
},
{
glyphname = m;
layers = (
{
background = {
paths = (
{
closed = 1;
nodes = (
"202 35 LINE",
"202 445 LINE",
"198 450 LINE",
"198 540 LINE",
"188 540 LINE",
"33 491 LINE",
"33 478 LINE",
"107 450 LINE",
"107 35 LINE",
"31 20 LINE",
"31 0 LINE",
"277 0 LINE",
"277 20 LINE"
);
},
{
closed = 1;
nodes = (
"192 410 LINE",
"227 458 OFFCURVE",
"277 485 OFFCURVE",
"330 485 CURVE SMOOTH",
"365 485 OFFCURVE",
"387 470 OFFCURVE",
"398 439 CURVE SMOOTH",
"404 417 OFFCURVE",
"410 385 OFFCURVE",
"410 328 CURVE SMOOTH",
"410 34 LINE",
"335 20 LINE",
"335 0 LINE",
"580 0 LINE",
"580 20 LINE",
"505 34 LINE",
"505 338 LINE SMOOTH",
"505 442 OFFCURVE",
"500 464 OFFCURVE",
"492 480 CURVE SMOOTH",
"475 517 OFFCURVE",
"434 540 OFFCURVE",
"386 540 CURVE SMOOTH",
"320 540 OFFCURVE",
"250 507 OFFCURVE",
"192 449 CURVE"
);
},
{
closed = 1;
nodes = (
"495 410 LINE",
"530 458 OFFCURVE",
"580 485 OFFCURVE",
"633 485 CURVE SMOOTH",
"668 485 OFFCURVE",
"691 470 OFFCURVE",
"701 439 CURVE SMOOTH",
"708 417 OFFCURVE",
"713 385 OFFCURVE",
"713 328 CURVE SMOOTH",
"713 34 LINE",
"638 20 LINE",
"638 0 LINE",
"883 0 LINE",
"883 20 LINE",
"808 34 LINE",
"808 338 LINE SMOOTH",
"808 434 OFFCURVE",
"805 459 OFFCURVE",
"795 480 CURVE SMOOTH",
"777 517 OFFCURVE",
"737 540 OFFCURVE",
"689 540 CURVE SMOOTH",
"623 540 OFFCURVE",
"553 507 OFFCURVE",
"495 449 CURVE"
);
}
);
};
layerId = UUID0;
paths = (
{
closed = 1;
nodes = (
"202 35 LINE",
"202 445 LINE",
"198 450 LINE",
"198 540 LINE",
"188 540 LINE",
"33 491 LINE",
"33 478 LINE",
"107 450 LINE",
"107 35 LINE",
"31 20 LINE",
"31 0 LINE",
"277 0 LINE",
"277 20 LINE"
);
},
{
closed = 1;
nodes = (
"192 410 LINE",
"227 458 OFFCURVE",
"277 485 OFFCURVE",
"330 485 CURVE SMOOTH",
"365 485 OFFCURVE",
"387 470 OFFCURVE",
"398 439 CURVE SMOOTH",
"404 417 OFFCURVE",
"410 385 OFFCURVE",
"410 328 CURVE SMOOTH",
"410 34 LINE",
"335 20 LINE",
"335 0 LINE",
"580 0 LINE",
"580 20 LINE",
"505 34 LINE",
"505 338 LINE SMOOTH",
"505 442 OFFCURVE",
"500 464 OFFCURVE",
"492 480 CURVE SMOOTH",
"475 517 OFFCURVE",
"434 540 OFFCURVE",
"386 540 CURVE SMOOTH",
"320 540 OFFCURVE",
"250 507 OFFCURVE",
"192 449 CURVE"
);
},
{
closed = 1;
nodes = (
"495 410 LINE",
"530 458 OFFCURVE",
"580 485 OFFCURVE",
"633 485 CURVE SMOOTH",
"668 485 OFFCURVE",
"691 470 OFFCURVE",
"701 439 CURVE SMOOTH",
"708 417 OFFCURVE",
"713 385 OFFCURVE",
"713 328 CURVE SMOOTH",
"713 34 LINE",
"638 20 LINE",
"638 0 LINE",
"883 0 LINE",
"883 20 LINE",
"808 34 LINE",
"808 338 LINE SMOOTH",
"808 434 OFFCURVE",
"805 459 OFFCURVE",
"795 480 CURVE SMOOTH",
"777 517 OFFCURVE",
"737 540 OFFCURVE",
"689 540 CURVE SMOOTH",
"623 540 OFFCURVE",
"553 507 OFFCURVE",
"495 449 CURVE"
);
}
);
width = 907;
},
{
background = {
paths = (
{
closed = 1;
nodes = (
"256 55 LINE",
"256 465 LINE",
"252 470 LINE",
"252 540 LINE",
"212 540 LINE",
"28 491 LINE",
"28 468 LINE",
"101 440 LINE",
"101 55 LINE",
"26 35 LINE",
"26 0 LINE",
"326 0 LINE",
"326 35 LINE"
);
},
{
closed = 1;
nodes = (
"230 389 LINE",
"258 431 OFFCURVE",
"290 452 OFFCURVE",
"332 452 CURVE SMOOTH",
"378 452 OFFCURVE",
"408 433 OFFCURVE",
"421 399 CURVE SMOOTH",
"429 379 OFFCURVE",
"431 350 OFFCURVE",
"431 279 CURVE SMOOTH",
"431 55 LINE",
"361 35 LINE",
"361 0 LINE",
"656 0 LINE",
"656 35 LINE",
"586 55 LINE",
"586 318 LINE SMOOTH",
"586 410 OFFCURVE",
"583 435 OFFCURVE",
"571 460 CURVE SMOOTH",
"545 513 OFFCURVE",
"496 540 OFFCURVE",
"429 540 CURVE SMOOTH",
"358 540 OFFCURVE",
"277 505 OFFCURVE",
"230 454 CURVE"
);
},
{
closed = 1;
nodes = (
"560 388 LINE",
"588 430 OFFCURVE",
"620 451 OFFCURVE",
"662 451 CURVE SMOOTH",
"708 451 OFFCURVE",
"738 432 OFFCURVE",
"751 399 CURVE SMOOTH",
"759 379 OFFCURVE",
"761 350 OFFCURVE",
"761 279 CURVE SMOOTH",
"761 55 LINE",
"691 35 LINE",
"691 0 LINE",
"986 0 LINE",
"986 35 LINE",
"916 55 LINE",
"916 318 LINE SMOOTH",
"916 410 OFFCURVE",
"913 435 OFFCURVE",
"901 460 CURVE SMOOTH",
"875 513 OFFCURVE",
"826 540 OFFCURVE",
"759 540 CURVE SMOOTH",
"688 540 OFFCURVE",
"607 505 OFFCURVE",
"560 454 CURVE"
);
}
);
};
layerId = "1CCFBABC-759F-491A-B184-EA51E5B5BC4A";
paths = (
{
closed = 1;
nodes = (
"256 55 LINE",
"256 465 LINE",
"252 470 LINE",
"252 540 LINE",
"212 540 LINE",
"28 491 LINE",
"28 468 LINE",
"101 440 LINE",
"101 55 LINE",
"26 35 LINE",
"26 0 LINE",
"326 0 LINE",
"326 35 LINE"
);
},
{
closed = 1;
nodes = (
"230 389 LINE",
"258 431 OFFCURVE",
"290 452 OFFCURVE",
"332 452 CURVE SMOOTH",
"378 452 OFFCURVE",
"408 433 OFFCURVE",
"421 399 CURVE SMOOTH",
"429 379 OFFCURVE",
"431 350 OFFCURVE",
"431 279 CURVE SMOOTH",
"431 55 LINE",
"361 35 LINE",
"361 0 LINE",
"656 0 LINE",
"656 35 LINE",
"586 55 LINE",
"586 318 LINE SMOOTH",
"586 410 OFFCURVE",
"583 435 OFFCURVE",
"571 460 CURVE SMOOTH",
"545 513 OFFCURVE",
"496 540 OFFCURVE",
"429 540 CURVE SMOOTH",
"358 540 OFFCURVE",
"277 505 OFFCURVE",
"230 454 CURVE"
);
},
{
closed = 1;
nodes = (
"560 388 LINE",
"588 430 OFFCURVE",
"620 451 OFFCURVE",
"662 451 CURVE SMOOTH",
"708 451 OFFCURVE",
"738 432 OFFCURVE",
"751 399 CURVE SMOOTH",
"759 379 OFFCURVE",
"761 350 OFFCURVE",
"761 279 CURVE SMOOTH",
"761 55 LINE",
"691 35 LINE",
"691 0 LINE",
"986 0 LINE",
"986 35 LINE",
"916 55 LINE",
"916 318 LINE SMOOTH",
"916 410 OFFCURVE",
"913 435 OFFCURVE",
"901 460 CURVE SMOOTH",
"875 513 OFFCURVE",
"826 540 OFFCURVE",
"759 540 CURVE SMOOTH",
"688 540 OFFCURVE",
"607 505 OFFCURVE",
"560 454 CURVE"
);
}
);
width = 1008;
}
);
leftKerningGroup = n;
unicode = 006D;
},
{
glyphname = n;
layers = (
{
anchors = (
{
name = bottom;
position = "{311, 0}";
},
{
name = top;
position = "{313, 651}";
}
);
background = {
paths = (
{
closed = 1;
nodes = (
"202 35 LINE",
"202 445 LINE",
"198 450 LINE",
"198 540 LINE",
"188 540 LINE",
"33 491 LINE",
"33 478 LINE",
"107 450 LINE",
"107 35 LINE",
"31 20 LINE",
"31 0 LINE",
"277 0 LINE",
"277 20 LINE"
);
},
{
closed = 1;
nodes = (
"192 410 LINE",
"227 458 OFFCURVE",
"277 485 OFFCURVE",
"330 485 CURVE SMOOTH",
"370 485 OFFCURVE",
"395 470 OFFCURVE",
"408 439 CURVE SMOOTH",
"417 417 OFFCURVE",
"420 385 OFFCURVE",
"420 328 CURVE SMOOTH",
"420 34 LINE",
"345 20 LINE",
"345 0 LINE",
"590 0 LINE",
"590 20 LINE",
"515 34 LINE",
"515 338 LINE SMOOTH",
"515 434 OFFCURVE",
"513 459 OFFCURVE",
"502 480 CURVE SMOOTH",
"483 517 OFFCURVE",
"439 540 OFFCURVE",
"386 540 CURVE SMOOTH",
"320 540 OFFCURVE",
"250 507 OFFCURVE",
"192 449 CURVE"
);
}
);
};
layerId = UUID0;
paths = (
{
closed = 1;
nodes = (
"202 35 LINE",
"202 445 LINE",
"198 450 LINE",
"198 540 LINE",
"188 540 LINE",
"33 491 LINE",
"33 478 LINE",
"107 450 LINE",
"107 35 LINE",
"31 20 LINE",
"31 0 LINE",
"277 0 LINE",
"277 20 LINE"
);
},
{
closed = 1;
nodes = (
"192 410 LINE",
"227 458 OFFCURVE",
"277 485 OFFCURVE",
"330 485 CURVE SMOOTH",
"370 485 OFFCURVE",
"395 470 OFFCURVE",
"408 439 CURVE SMOOTH",
"417 417 OFFCURVE",
"420 385 OFFCURVE",
"420 328 CURVE SMOOTH",
"420 34 LINE",
"345 20 LINE",
"345 0 LINE",
"590 0 LINE",
"590 20 LINE",
"515 34 LINE",
"515 338 LINE SMOOTH",
"515 434 OFFCURVE",
"513 459 OFFCURVE",
"502 480 CURVE SMOOTH",
"483 517 OFFCURVE",
"439 540 OFFCURVE",
"386 540 CURVE SMOOTH",
"320 540 OFFCURVE",
"250 507 OFFCURVE",
"192 449 CURVE"
);
}
);
width = 611;
},
{
background = {
paths = (
{
closed = 1;
nodes = (
"257 55 LINE",
"257 450 LINE",
"252 455 LINE",
"252 540 LINE",
"230 540 LINE",
"26 491 LINE",
"26 468 LINE",
"102 440 LINE",
"102 55 LINE",
"27 35 LINE",
"27 0 LINE",
"327 0 LINE",
"327 35 LINE"
);
},
{
closed = 1;
nodes = (
"245 396 LINE",
"270 434 OFFCURVE",
"298 450 OFFCURVE",
"338 450 CURVE SMOOTH",
"380 450 OFFCURVE",
"412 432 OFFCURVE",
"426 399 CURVE SMOOTH",
"434 381 OFFCURVE",
"436 357 OFFCURVE",
"436 279 CURVE SMOOTH",
"436 55 LINE",
"366 35 LINE",
"366 0 LINE",
"666 0 LINE",
"666 35 LINE",
"591 55 LINE",
"591 318 LINE SMOOTH",
"591 407 OFFCURVE",
"588 434 OFFCURVE",
"576 460 CURVE SMOOTH",
"551 511 OFFCURVE",
"501 540 OFFCURVE",
"436 540 CURVE SMOOTH",
"366 540 OFFCURVE",
"290 508 OFFCURVE",
"245 459 CURVE"
);
}
);
};
layerId = "1CCFBABC-759F-491A-B184-EA51E5B5BC4A";
paths = (
{
closed = 1;
nodes = (
"257 55 LINE",
"257 450 LINE",
"252 455 LINE",
"252 540 LINE",
"230 540 LINE",
"26 491 LINE",
"26 468 LINE",
"102 440 LINE",
"102 55 LINE",
"27 35 LINE",
"27 0 LINE",
"327 0 LINE",
"327 35 LINE"
);
},
{
closed = 1;
nodes = (
"245 396 LINE",
"270 434 OFFCURVE",
"298 450 OFFCURVE",
"338 450 CURVE SMOOTH",
"380 450 OFFCURVE",
"412 432 OFFCURVE",
"426 399 CURVE SMOOTH",
"434 381 OFFCURVE",
"436 357 OFFCURVE",
"436 279 CURVE SMOOTH",
"436 55 LINE",
"366 35 LINE",
"366 0 LINE",
"666 0 LINE",
"666 35 LINE",
"591 55 LINE",
"591 318 LINE SMOOTH",
"591 407 OFFCURVE",
"588 434 OFFCURVE",
"576 460 CURVE SMOOTH",
"551 511 OFFCURVE",
"501 540 OFFCURVE",
"436 540 CURVE SMOOTH",
"366 540 OFFCURVE",
"290 508 OFFCURVE",
"245 459 CURVE"
);
}
);
width = 684;
}
);
leftKerningGroup = n;
rightKerningGroup = n;
unicode = 006E;
},
